<?xml version="1.0" encoding="utf-8"?>
<!-- Generator: Adobe Illustrator 18.0.0, SVG Export Plug-In . SVG Version: 6.00 Build 0)  -->
<!DOCTYPE svg PUBLIC "-//W3C//DTD SVG 1.1//EN" "http://www.w3.org/Graphics/SVG/1.1/DTD/svg11.dtd">
<svg version="1.1" id="Layer_1" xmlns="http://www.w3.org/2000/svg" xmlns:xlink="http://www.w3.org/1999/xlink" x="0px" y="0px"
	 viewBox="71 190.5 471.9 413.1" enable-background="new 71 190.5 471.9 413.1" xml:space="preserve">
<path d="M237,190.5c27.1,0,54.3,0,81.4,0c0.3,0.5,0.6,1,0.8,1.6c3.8,7.9,7.6,15.8,11.4,23.7c2.7,5.5,7,9,13.1,10.3
	c2.5,0.5,5,1,7.5,1.7c49.2,12.3,87.7,39.7,115.5,82c17.3,26.4,27.1,55.5,29.8,86.9c0.4,4.7,3.3,7.4,8,7.4c7,0,14-0.1,21,0.1
	c7.7,0.1,14.4,5.3,16.6,12.8c0.3,0.9,0.5,1.7,0.8,2.6c0,0.9,0,1.8,0,2.8c-0.3,0-0.5-0.1-0.8-0.1c-12.8,0-25.6,0-38.3,0
	c-4.2,0-6.9,2.8-7.3,7.2c-0.8,10.1-2.4,20-4.9,29.8c-14,53-44.8,93.1-92.3,120.3c-22.3,12.8-46.5,20.3-72.1,22.9
	c-3.8,0.4-7.5,0.7-11.3,1.1c-6,0-12.1,0-18.1,0c-0.5-0.1-1-0.3-1.5-0.3c-5.5-0.5-11-0.9-16.4-1.6c-29.8-4.2-56.9-15.1-81.6-32.2
	c-4.7-3.3-7.7-7.8-8.8-13.5c-1-5.1-0.3-10,2.3-14.7c2.2,1.9,4.2,3.6,6.3,5.3c38.7,30.9,82.7,43.5,131.9,37.3
	c27.1-3.4,51.9-13.3,74.4-28.8c1.3-0.9,2.5-2.2,3.3-3.6c1.9-3.2,1.4-6.5-0.2-9.7c-16.3-33.2-32.5-66.4-48.7-99.7
	c-0.3-0.7-0.6-1.4-1-2.1c0.4-0.1,0.5-0.1,0.6-0.1c26.3,0,52.6,0,78.9,0c0.6,0,1.5,0.6,1.8,1.2c1.7,3.1,3.2,6.3,4.7,9.5
	c4.9,9.9,9.7,19.9,14.6,29.8c1.3,2.6,3.2,3.6,5.1,2.3c1-0.6,1.7-1.8,2.2-2.8c6.5-15.4,10.5-31.5,12.6-48.1c0.7-5.7-2.4-9.9-8.5-9.9
	C392.2,422,314.6,422,237,422c-7,0-12,3-15.3,9.1c-19.8,36.5-39.7,72.9-59.5,109.4c-8.1,14.9-16.1,29.8-24.2,44.7
	c-3.7,6.8-9.4,10-17.1,9.6c-2.6-0.1-5.1-0.8-7.3-2.4c0.5-0.9,0.9-1.7,1.3-2.4c11-20.2,22-40.5,33-60.7c2-3.7,2.4-7.3,0.4-11.1
	c-0.6-1.2-1.5-2.3-2.2-3.5c-16.5-26.2-26.1-54.7-28.8-85.5c-0.4-4.5-3.2-7.1-7.7-7.2c-6.8,0-13.5,0.1-20.3,0
	c-9.2-0.1-15.9-5.6-18-14.5c-0.1-0.2-0.2-0.4-0.3-0.7c0-0.9,0-1.8,0-2.8c0.8,0,1.6-0.1,2.4-0.1c12.1,0,24.1,0,36.2,0
	c4.6,0,7.3-2.8,7.9-7.3c0.9-7.5,1.6-15.1,3.3-22.5c12.8-57.3,45.1-100.3,96.4-129c4.4-2.4,9-4.5,14-7c0.6,2.8,1.5,5.2,1.6,7.6
	c0.2,7.7-3.4,13.2-10,17c-26.8,15.3-48.2,36.2-64,62.7c-12.8,21.5-20.4,44.8-23,69.7c-0.6,5.3,2.6,8.8,8,8.8c20.3,0,40.5-0.1,60.8,0
	c7.9,0,13.4-3.2,17.2-10.2c18.5-34.3,37.1-68.5,55.8-102.7c3-5.5,3.2-10.7,0.4-16.4c-13.5-27.4-26.8-55-40.1-82.5
	C237.4,191.7,237.2,191.1,237,190.5z M448.5,404c7.3,0,14.7,0,22,0c5.3,0,8.6-3.5,7.9-8.7c-0.8-6-1.6-12.1-2.8-18
	c-8.6-39.6-28.7-72.3-60-98.1c-16.3-13.4-34.6-23.3-54.6-30c-3.7-1.2-6.8-0.4-8.8,2.4c-1.9,2.6-1.6,5.3-0.3,8.1
	c22.4,46.4,44.8,92.9,67.2,139.3c1.6,3.4,4.2,5,7.9,4.9C434.2,403.9,441.3,404,448.5,404z M288.1,404c13.2,0,26.3,0,39.5,0
	c6.4,0,9.7-5.3,6.9-11.1c-12.4-25.6-24.9-51.2-37.3-76.8c-1.3-2.8-3.4-4.5-6.5-4.5c-3.2-0.1-5.3,1.5-6.8,4.2
	c-14,25.7-27.9,51.4-41.9,77.1c-0.5,1-0.9,2.1-1,3.1c-0.5,4.6,2.8,8,7.8,8C261.8,404,275,404,288.1,404z M167.8,422.1L167.8,422.1
	c-8.5,0-17,0-25.6,0c-4.7,0-7.8,3.6-7.4,8c2.2,22,8.4,42.8,18.6,62.5c1.5,2.8,3.4,4.6,6.7,4.7s5.4-1.7,7-4.6
	c10.7-19.7,21.2-39.4,32.1-59c3.2-5.7-0.3-12-6.9-11.7C184.2,422.3,176,422.1,167.8,422.1z"/>
</svg>
