<?xml version="1.0" encoding="utf-8"?>
<!-- Generator: Adobe Illustrator 18.0.0, SVG Export Plug-In . SVG Version: 6.00 Build 0)  -->
<!DOCTYPE svg PUBLIC "-//W3C//DTD SVG 1.1//EN" "http://www.w3.org/Graphics/SVG/1.1/DTD/svg11.dtd">
<svg version="1.1" id="Layer_1" xmlns="http://www.w3.org/2000/svg" xmlns:xlink="http://www.w3.org/1999/xlink" x="0px" y="0px"
	 viewBox="0 0 612 792" enable-background="new 0 0 612 792" xml:space="preserve">
<g>
	<g>
		<path fill="#006647" d="M354.4,228.6c-169,0-306.1,137.1-306.1,306.1s137.1,306.1,306.1,306.1s306.1-137.1,306.1-306.1
			C660.5,365.6,523.5,228.6,354.4,228.6"/>
		<path fill="#FFFFFF" d="M354.4,233.5c-166.3,0-301.2,134.7-301.2,301.2c0,166.3,134.8,301.2,301.2,301.2S655.6,701,655.6,534.7
			C655.6,368.2,520.8,233.5,354.4,233.5"/>
		<path fill="#006647" d="M354.4,242.9C193.4,242.9,63,373.6,63,534.4c0,161,130.7,291.5,291.5,291.5s291.7-130.4,291.7-291.4
			S515.5,242.9,354.4,242.9"/>
		<path fill="#FFFFFF" d="M94.6,467.9l9.1-27c2.6-7.8,8.1-7.7,11-6.6c3.1,0.9,5.2,3.7,5.2,6.3l0,0c2-3.2,5.5-4.4,10.1-3
			c3.8,1.2,9.1,5,5.8,15.2l-8.7,26.2L94.6,467.9z M111,461.3l3.7-10.9c0.8-2.4-0.2-3.8-1.7-4.3c-1.4-0.4-3.1,0-3.8,2.4l-3.7,10.9
			L111,461.3z M127.8,454c0.8-2.3,0-4.3-2-5c-2.3-0.8-3.8,0.4-4.6,2.8l-3.8,11.7l6.6,2.3L127.8,454z"/>
		
			<rect x="138.6" y="381.3" transform="matrix(-0.5439 0.8391 -0.8391 -0.5439 557.3362 494.115)" fill="#FFFFFF" width="11.5" height="34.5"/>
		<polygon fill="#FFFFFF" points="158.9,351 167.4,343.3 176.4,353.2 177.9,333.4 189.1,323 186.9,343.7 213.6,347.5 202.3,358.1 
			184.9,355.2 184.2,361.4 190.8,368.5 182.3,376.4 		"/>
		<polygon fill="#FFFFFF" points="223.2,300.8 254.5,285.6 257.7,292.3 236.9,302.4 239.5,308 259.1,298.6 262.2,305.1 242.7,314.5 
			245.3,320.1 266.2,310.1 269.4,316.7 238.3,331.9 		"/>
		<path fill="#FFFFFF" d="M370.2,277.6c-0.2-2.4-2-4-7.2-4.3c-3.8-0.2-6,0.8-6,3.2c0,1.2,0.8,1.8,2.4,2.3c2.8,0.6,11.7,2.3,15.2,3.1
			c6.4,1.4,10.1,4,9.8,10.3c-0.4,11.7-15.5,11.3-20.4,11c-11.7-0.4-20.2-2.8-20.4-12.5l13.8,0.6c0.2,2.6,1.7,4.3,7.7,4.6
			c2.8,0.2,6-0.4,6.3-3.4c0-1.8-1.4-2.4-5.5-3.2l-11.5-2.3c-7-1.4-9.7-5-9.5-10.1c0.2-4.6,3.2-10.9,18.4-10.3
			c12.5,0.4,19.9,3.8,20.4,11.9L370.2,277.6z"/>
		<polygon fill="#FFFFFF" points="446.3,304.6 430.1,298.6 425,312.3 414.3,308.3 426.1,275.8 436.7,279.8 432.7,291.3 449,297.1 
			453.2,285.6 464.1,289.6 452.4,321.9 441.6,318.1 		"/>
		<path fill="#FFFFFF" d="M511.1,317.5l11.3,8.4l-9.2,36.5l-9.8-7.5l1.8-5.7l-11.9-9l-5,3.2l-9.8-7.5L511.1,317.5z M511.3,328.6
			L511.3,328.6l-11.9,7.5l7.7,5.8L511.3,328.6z"/>
		<path fill="#FFFFFF" d="M561.2,363.7l16.1,22.5c4.9,6.9,3.7,11.7-1.1,14.9c-3.8,2.6-7.2,2.3-9.7,0l0,0c0.6,2.3,0.2,4.6-2.6,7.1
			c-5.2,4.4-6.9,5.8-7.5,8.1l-7.2-10.3c0.8-1.4,2.4-2.6,3.8-3.7c4.4-3.2,4.3-5.2,2.4-7.5l-6-8.7l-9.2,6.6l-6.6-9.2L561.2,363.7z
			 M555.7,382l6.4,9c1.7,2.3,3.7,2.6,5.7,1.2c1.8-1.4,2.3-3.4,0.6-5.7l-6.4-9L555.7,382z"/>
		<polygon fill="#FFFFFF" points="602.9,433.6 613.9,466.2 606.9,468.7 599.4,446.8 593.5,448.8 600.4,469.3 593.7,471.6 
			586.7,451.2 580.8,453.2 588.3,475 581.3,477.4 570.1,444.5 		"/>
		<polygon fill="#FFFFFF" points="146.4,643.3 166,674.6 159.3,678.6 152.6,667.9 129.8,682.2 123.8,672.6 146.6,658.2 139.8,647.5 
					"/>
		<path fill="#FFFFFF" d="M207.3,715.3c9.5,7.7,14.9,17.3,5.8,28.5c-9,11-19.6,7.7-29.1,0c-9.5-7.7-14.9-17.3-5.8-28.5
			C187.4,704.2,198,707.6,207.3,715.3 M189.1,737.7c4.9,3.8,10.1,3.8,14.7-1.7c4.6-5.7,3.4-10.9-1.2-14.7
			c-4.9-3.8-10.1-3.8-14.7,1.7C183.3,728.5,184.3,733.8,189.1,737.7"/>
		<path fill="#FFFFFF" d="M258.5,748.9l26,9.2c8.1,2.8,9.7,7.5,7.7,12.9c-1.7,4.3-4.6,5.8-7.8,5.7l0,0c1.8,1.4,2.8,3.7,1.8,7.2
			c-1.8,6.6-2.4,8.7-1.7,10.9l-11.9-4.3c0-1.7,0.6-3.7,0.9-5c1.8-5,0.4-6.6-2.3-7.7l-9.8-3.4l-3.8,10.9l-10.9-3.8L258.5,748.9z
			 M264.3,767.3l10.4,3.7c2.6,0.9,4.6,0,5.2-2.3c0.8-2.3-0.2-4-2.8-5l-10.4-3.7L264.3,767.3z"/>
		<path fill="#FFFFFF" d="M354.7,767.7c12.1-0.2,22.5,3.7,22.8,17.9c0.2,14.2-10.1,18.5-22.2,18.7s-22.5-3.7-22.8-17.9
			C332.3,771.9,342.6,767.9,354.7,767.7 M355,796.5c6.3,0,10.3-3.4,10.1-10.7s-4.3-10.4-10.4-10.4c-6,0-10.3,3.7-10.1,10.7
			C344.8,793.3,349,796.7,355,796.5"/>
		<polygon fill="#FFFFFF" points="416,761.4 428.4,756.8 450.8,771.7 451,771.7 443.6,751.3 454,747.5 465.9,780 453.8,784.4 
			430.8,769.5 430.8,769.5 438.3,790.1 427.8,793.9 		"/>
		<polygon fill="#FFFFFF" points="486.7,728.8 515.4,705.5 520.1,711.6 510.3,719.6 527,740.4 518.2,747.8 501.4,726.8 491.5,734.8 
					"/>
		<path fill="#FFFFFF" d="M551,659.8c6.6-10.3,15.5-16.7,27.6-9s9.8,18.5,3.4,28.8c-6.6,10.3-15.5,16.7-27.6,9
			C542.4,681,544.5,670.1,551,659.8 M575.4,675.3c3.4-5.2,2.8-10.4-3.4-14.3c-6-3.8-11-2.3-14.5,3c-3.2,5.2-2.6,10.4,3.4,14.3
			C567.2,682.2,572.2,680.6,575.4,675.3"/>
		<path fill="#FFFFFF" d="M354.4,324.4c-116.1,0-210,94.2-210,210c0,116.1,94.2,210,210,210c116.1,0,210-94.2,210-210
			C564.7,418.6,470.5,324.4,354.4,324.4"/>
		<path fill="#00AF41" d="M354.4,334c-110.6,0-200.5,89.6-200.5,200.5c0,110.6,89.6,200.6,200.5,200.6
			c110.6,0,200.5-89.8,200.5-200.6S465.3,334,354.4,334"/>
		<rect x="57.3" y="529.8" fill="#FFFFFF" width="91.7" height="9.7"/>
		<rect x="559.1" y="529.8" fill="#FFFFFF" width="91.7" height="9.7"/>
	</g>
	<g>
		<g>
			<path fill="#006647" d="M211.3,534.1c-1.1,0-2-0.2-2.8-0.8c-1.2-1.1-1.8-2.4-1.7-3.7c-2.3,3.2-4.3,6.6-5.8,10.4
				c-0.8,1.8,0,4,2,4.9c0.6,0.2,1.1,0.4,1.7,0.2c1.4,0,2.6-0.8,3.2-2.3c1.4-3.2,3.1-6.3,5-8.9C212.1,534.1,211.8,534.1,211.3,534.1"
				/>
			<path fill="#006647" d="M299.7,577.8c-1.8-0.8-4,0-4.9,2c-1.4,3.2-3.1,6.3-5,8.9c1.4-0.6,3-0.4,4.3,0.6c1.3,0.9,1.8,2.4,1.7,3.7
				c2.3-3.2,4.3-6.6,5.8-10.4C302.3,580.8,301.4,578.5,299.7,577.8"/>
			<path fill="#FFFFFF" d="M287.3,528.8c-1.1,0-1.8-0.4-2.6-1.1c-8.9-8.9-20.8-13.9-33.4-13.9c-12.7,0-24.5,4.9-33.4,13.9
				c-1.4,1.4-3.7,1.4-5,0c-1.4-1.4-1.4-3.7,0-5c10.3-10.3,24-15.9,38.7-15.9c14.5,0,28.2,5.7,38.7,15.9c1.4,1.4,1.4,3.7,0,5
				C289.1,528.4,288.4,528.8,287.3,528.8"/>
			<path fill="#FFFFFF" d="M251.3,615.9c-14.5,0-28.2-5.7-38.7-15.9c-1.4-1.4-1.4-3.7,0-5c1.4-1.4,3.7-1.4,5,0
				c8.9,8.9,20.8,13.9,33.4,13.9c12.7,0,24.5-4.9,33.4-13.9c1.4-1.4,3.7-1.4,5.2,0c1.4,1.4,1.4,3.7,0,5
				C279.5,610.2,265.7,615.9,251.3,615.9"/>
		</g>
		<g>
			<path fill="#006647" d="M416.1,533.8c-0.4,0.2-0.8,0.4-1.4,0.4c-1.1,0-2-0.2-2.8-0.8c-1.2-1.1-1.8-2.4-1.7-3.7
				c-1.4,1.8-2.6,3.8-3.7,5.8c-6.9,12.9-8.4,27.6-4.3,41.5c0.4,1.7,2,2.6,3.7,2.6c0.2,0,0.6,0,0.8-0.2c2-0.6,3-2.6,2.4-4.4
				c-3.7-12.1-2.4-25,3.7-36C414,537,414.9,535.5,416.1,533.8"/>
			<path fill="#006647" d="M507.1,545.6c-0.6-2-2.6-3.1-4.4-2.4c-2,0.6-3.1,2.6-2.4,4.4c3.7,12.1,2.4,25-3.7,36
				c-1.1,1.8-2,3.4-3.2,5c1.4-0.6,3-0.4,4.3,0.6c1.3,0.9,1.8,2.3,1.7,3.7c1.4-1.8,2.6-3.8,3.7-5.8
				C509.7,574.1,511.3,559.4,507.1,545.6"/>
			<path fill="#FFFFFF" d="M490.7,528.8c-1.1,0-1.8-0.4-2.6-1.1c-8.9-8.9-20.8-13.9-33.4-13.9s-24.5,4.9-33.4,13.9
				c-1.4,1.4-3.7,1.4-5,0c-1.3-1.4-1.4-3.7,0-5c10.3-10.3,24-15.9,38.7-15.9c14.5,0,28.2,5.7,38.7,15.9c1.4,1.4,1.4,3.7,0,5
				C492.6,528.4,491.8,528.8,490.7,528.8"/>
			<path fill="#FFFFFF" d="M454.6,615.9c-14.5,0-28.2-5.7-38.7-15.9c-1.4-1.4-1.4-3.7,0-5c1.4-1.3,3.7-1.4,5,0
				c8.9,8.9,20.8,13.9,33.4,13.9c12.7,0,24.5-4.9,33.4-13.9c1.4-1.4,3.7-1.4,5,0c1.4,1.4,1.4,3.7,0,5
				C483.1,610.2,469.3,615.9,454.6,615.9"/>
		</g>
		<path fill="#FFFFFF" d="M457,436c-1.2,0-2,0.8-2,2l-0.2,7.7l-0.4,17.2l0,0v0.2c0,0.6,0,2.3-0.6,3.2c-0.6,1.2-1.2,1.8-3.4,2
			L432,468l-9.8-6.4c0,0-0.2-0.2-0.4-0.2L421,459l-1.7-8.1l1.7-17c0-1.7-1.4-4.6-5.7-5.5c-5.7-1.1-6-1.4-6.9-2
			c-0.9-0.6-2.4-5.5-7-5.2c-1.7,0.2-2,1.2-2,1.2s-4,1.8-4.6,2.3c-0.6,0.5-0.6,0.6-0.6,0.6s-3-0.6-4.3-0.8c-1.2-0.2-3.8,1.2-3.8,4
			c0,3,2.4,4,3.8,4c1.7,0,4-0.6,4-0.6s1.1,1.1,1.8,1.2l1.1,0.2c1.8,0,3.7-1.4,3.7-1.4l2.3,0.2l6.6,19.6l-6.4,2.4
			c-1.2,0.4-1.8,1.8-1.4,3.1l4,11.1l-37.4,60.8c-10.7,17.1-19.3,20.2-42.7,19.9c-0.4,0-28.6-78.4-29.4-80.3c-1.4-3.7,0.8-6,3.7-7.1
			c3.7-1.4,11.3-3.7,15.3-4.6c2.8-0.8,2.8-3.4,2.4-4.3c-0.9-2.3-5-3.1-9.7-3.2c-4.9-0.2-9,1.4-14.9,1.2c-1.4,0-5.7-0.8-11.7-1.4
			c-11.3-0.8-10.3,8.9-10.3,8.9c0,2.8,12.5,5.7,15.8,6c1.1,0,2.8,5.7,3.2,6.3c0.2,0.4,10.7,30.2,10.7,30.2l-16.4,8.3l-37.2,42.5
			c-1.2,1.4-2.4,3.1-2.4,5c0,1.7,0.6,3.1,1.4,4c1.1,1.2,2.3,2,3.7,2.3c0.4,0.2,0.9,0.2,1.4,0.2s58.7,0.8,58.7,0.8
			c-0.2,1.1-0.4,2.3-0.4,3.4c0,10.4,8.4,19.1,19.1,19.1c3.4,0,6.6-1.1,9.5-2.4l4.6,5.2h-2.3c-1.8,0-3.2,1.4-3.2,3s1.4,3,3.2,3h14.5
			c1.8,0,3.2-1.4,3.2-3s-1.4-3-3.2-3h-2.8c0-0.2-0.2-0.4-0.4-0.6l-8.1-8.9c2.8-3.2,4.4-7.7,4.4-12.3c0-0.4,0-0.8,0-1.1
			c15.5-3,26.2-15.5,32.5-25.9c5.2-8.7,32.5-52.4,32.5-52.4l2.6,7.2c0.4,1.2,1.8,1.8,3,1.4l6.6-2.4l3.2,8.7l21.6,59.6
			c0.8,2,3.2,3,5.2,2.3c2.3-0.8,3.2-3.2,2.4-5.2c0,0-11.7-32.6-21.3-59.3h7.8c1.1,0,2.6-0.6,3.2-2c0,0,3.2-5.8,3.2-6.9
			c0-1.2-0.8-2-2-2h-16.1c-4.6-13-8.3-22.8-8.3-22.8l6.9,4.4l19.6,0.4h0.2c3.7,0,6-2,6.9-4.3c1.1-2.3,1.2-4.3,1.2-5V462l0.4-17
			l0.2-7.7C459,437.1,458.1,436,457,436z M259.1,548.3l30.5-34.9l13-6.6l15.5,42.7L259.1,548.3z M338.6,575.2l-7.2-7.8
			c-1.2-1.2-3.2-1.4-4.6-0.2c-1.4,1.2-1.7,3.2-0.4,4.4l6.9,7.7c-1.4,0.6-2.8,0.8-4.4,0.8c-6.3,0-11.3-4.9-11.9-11.1
			c0-0.2,0-0.6,0-0.8c0-1.2,0.2-2.3,0.6-3.2c1.4-4.9,5.8-8.4,11.3-8.7c6.6,0,11.9,5.2,11.9,11.9C340.8,570.7,340,573.1,338.6,575.2z
			"/>
	</g>
</g>
</svg>
