<svg id="Layer_1" data-name="Layer 1" xmlns="http://www.w3.org/2000/svg" viewBox="0 0 692.87 220.52"><defs><style>.cls-1{fill:#95c13d;}.cls-2{fill:#231f20;}</style></defs><title>car-share-atlantic</title><path class="cls-1" d="M157.05,111.17c0,23.77-16.66,42.68-41.73,42.68s-41.73-18.91-41.73-42.68S90.25,68.5,115.32,68.5s41.73,18.91,41.73,42.67m-58.71,0c0,10.9,6,20,17,20s17-9.08,17-20-6-20-17-20-17,9.08-17,20"/><path class="cls-1" d="M115.46,177.19c-38.68,0-70-29.9-70-66.79s31.35-66.78,70-66.78a72.1,72.1,0,0,1,40.89,12.55V7.39A120.35,120.35,0,0,0,115.46.29C51.69,0.29,0,49.59,0,110.4S51.69,220.52,115.46,220.52a120,120,0,0,0,40.89-7.13V164.63a72.11,72.11,0,0,1-40.89,12.56"/><path class="cls-1" d="M239.75,5.35c8.9,0,26.21,2.79,26.21,13a7.54,7.54,0,0,1-7.56,7.79c-5,0-8.41-4.07-18.65-4.07-15.11,0-22.91,12.2-22.91,26.39,0,13.83,7.92,25.69,22.91,25.69,10.24,0,14.38-4.88,19.38-4.88,5.49,0,8,5.23,8,7.9,0,11.16-18.4,13.72-27.42,13.72-24.74,0-41.93-18.71-41.93-42.78S214.89,5.35,239.75,5.35"/><path class="cls-1" d="M335.19,79.28c0,4.3,0,10.93-8.41,10.93-5.12,0-7.19-2.67-8.41-7.09-4.51,5.12-10,7.79-16.7,7.79-16.45,0-29-13.37-29-32.2,0-18.37,12.92-32.43,29-32.43,6.46,0,12.8,2.44,16.7,7.67a8.21,8.21,0,0,1,8.41-7c8.41,0,8.41,6.63,8.41,10.93V79.28Zm-31.08-3.72c9.14,0,13.53-8.83,13.53-16.85s-4.26-17.09-13.53-17.09c-9.63,0-13.89,9.07-13.89,17.09s4.39,16.85,13.89,16.85"/><path class="cls-1" d="M344.94,35.34c0-5.58,4.63-8.37,9-8.37,4.63,0,8.53,1.63,8.53,7h0.24c3.29-4.65,6.83-7,12.31-7,4.27,0,8.53,2.91,8.53,9,0,5.46-5.24,5.81-10.48,8.14s-10.6,4.53-10.6,11.16V80.9c0,5.58-3.66,9.3-8.77,9.3s-8.78-3.72-8.78-9.3V35.34Z"/><path class="cls-1" d="M443.66,17c0,4.53-3.17,8.6-8.17,8.6s-8.9-3.49-16.21-3.49c-5.24,0-10,2.67-10,7.55,0,12,40.71,4.3,40.71,34.29,0,16.62-14.38,27-31.2,27-9.39,0-29.62-2.09-29.62-13a7.93,7.93,0,0,1,8.17-8.25c5.73,0,12.55,4.53,20.48,4.53s12.43-4.3,12.43-10c0-13.72-40.71-5.46-40.71-32.43,0-16.27,14-26.39,30.23-26.39,6.83,0,23.89,2.44,23.89,11.62"/><path class="cls-1" d="M457.31,9.3c0-5.58,3.66-9.3,8.78-9.3s8.78,3.72,8.78,9.3V32.08h0.24c3.66-4.3,10.48-5.81,16-5.81,13.77,0,24,8.37,24,22.55V80.9c0,5.58-3.66,9.3-8.78,9.3s-8.77-3.72-8.77-9.3V51.73c0-7.79-5.12-11.51-11.46-11.51-7.19,0-11.21,5-11.21,11.51V80.9c0,5.58-3.66,9.3-8.78,9.3s-8.78-3.72-8.78-9.3V9.3Z"/><path class="cls-1" d="M585,79.28c0,4.3,0,10.93-8.41,10.93-5.12,0-7.19-2.67-8.41-7.09-4.51,5.12-10,7.79-16.7,7.79-16.45,0-29-13.37-29-32.2,0-18.37,12.92-32.43,29-32.43,6.46,0,12.8,2.44,16.7,7.67a8.21,8.21,0,0,1,8.41-7C585,27,585,33.59,585,37.89V79.28ZM554,75.56c9.14,0,13.53-8.83,13.53-16.85S563.23,41.61,554,41.61c-9.63,0-13.89,9.07-13.89,17.09S544.46,75.56,554,75.56"/><path class="cls-1" d="M594.79,35.34c0-5.58,4.63-8.37,9-8.37,4.63,0,8.53,1.63,8.53,7h0.24c3.29-4.65,6.82-7,12.31-7,4.27,0,8.53,2.91,8.53,9,0,5.46-5.24,5.81-10.48,8.14s-10.6,4.53-10.6,11.16V80.9c0,5.58-3.66,9.3-8.78,9.3s-8.78-3.72-8.78-9.3V35.34Z"/><path class="cls-1" d="M647.59,64.16c1.22,8.25,8.41,12.09,16.58,12.09,9,0,15.24-6.74,19.87-6.74a7.6,7.6,0,0,1,7.19,7.21c0,7.21-15.6,14.18-28.65,14.18-19.74,0-32.91-13.72-32.91-32.2,0-17,12.92-32.43,31.45-32.43,19,0,31.57,16.51,31.57,30.45,0,5-2.32,7.44-7.68,7.44H647.59ZM675.14,53c-1-7.32-5.85-12.79-14-12.79-7.8,0-13,5.69-13.9,12.79h27.91Z"/><path class="cls-2" d="M210.24,216a8.07,8.07,0,0,1-2.12,3.19,5.65,5.65,0,0,1-4,1.29,6.52,6.52,0,0,1-4.17-1.39,4.51,4.51,0,0,1-1.77-3.75,9.81,9.81,0,0,1,.71-3.19q0.71-1.95,1-2.92l31.2-81.77a14.75,14.75,0,0,1,3.18-5.34,8.66,8.66,0,0,1,11.43,0,14.8,14.8,0,0,1,3.18,5.34l31.2,81.77q0.28,1,1,2.92a9.86,9.86,0,0,1,.71,3.19,4.52,4.52,0,0,1-1.77,3.75,6.53,6.53,0,0,1-4.16,1.39,5.64,5.64,0,0,1-4-1.29,8,8,0,0,1-2.12-3.19l-6.49-17.4H216.73Zm29.93-82.47h-0.28l-19.34,54.35h39Z"/><path class="cls-2" d="M304.68,129.13a6.74,6.74,0,0,1,1.69-4.87,6.66,6.66,0,0,1,9,0,6.75,6.75,0,0,1,1.69,4.87v16.23h5.08q6.21,0,6.21,5.37t-6.21,5.36H317.1v57.82a6.61,6.61,0,0,1-1.69,4.81,6.73,6.73,0,0,1-9,0,6.6,6.6,0,0,1-1.69-4.81V156.09h-5.08q-6.21,0-6.21-5.36t6.21-5.37h5.08V129.13Z"/><path class="cls-2" d="M359.16,213.88a6.66,6.66,0,0,1-1.69,4.83,6.7,6.7,0,0,1-9,0,6.66,6.66,0,0,1-1.69-4.83V118.07a6.67,6.67,0,0,1,1.69-4.83,6.7,6.7,0,0,1,9,0,6.66,6.66,0,0,1,1.69,4.83v95.81Z"/><path class="cls-2" d="M447,214.52a5.16,5.16,0,0,1-2,4.56,6.69,6.69,0,0,1-3.81,1.38,6.55,6.55,0,0,1-3.88-1.38q-1.91-1.38-1.91-4.56v-5.11h-0.28a27,27,0,0,1-9.25,8.35,23.87,23.87,0,0,1-11.22,2.69,30.67,30.67,0,0,1-14-3.11A31.31,31.31,0,0,1,390.22,209a37.09,37.09,0,0,1-6.42-12,46.4,46.4,0,0,1,0-28.16,37.11,37.11,0,0,1,6.42-12,31.34,31.34,0,0,1,10.38-8.35,30.71,30.71,0,0,1,14-3.11A23.3,23.3,0,0,1,425.93,148a35.63,35.63,0,0,1,9.17,7.41h0.28v-4q0-3.25,1.91-4.66a6.47,6.47,0,0,1,3.88-1.41,6.7,6.7,0,0,1,3.81,1.38,5.17,5.17,0,0,1,2,4.56v63.23Zm-51.88-22.24a27,27,0,0,0,3.53,8.62,20,20,0,0,0,6.42,6.36,20.09,20.09,0,0,0,19.27,0,20.3,20.3,0,0,0,6.35-6.36,27.07,27.07,0,0,0,3.53-8.62,42,42,0,0,0,0-18.75,27,27,0,0,0-3.53-8.62,20.29,20.29,0,0,0-6.35-6.36,20.07,20.07,0,0,0-19.27,0,20,20,0,0,0-6.42,6.36,27,27,0,0,0-3.53,8.62,42,42,0,0,0,0,18.75"/><path class="cls-2" d="M472.66,151.85a6.51,6.51,0,0,1,1.69-4.76,6,6,0,0,1,4.52-1.73,6,6,0,0,1,4.52,1.76,6.75,6.75,0,0,1,1.69,4.87v3l0.28,0.28a23.08,23.08,0,0,1,9.6-7.62,29.15,29.15,0,0,1,11.15-2.26,29.69,29.69,0,0,1,9,1.45,23.49,23.49,0,0,1,8.4,4.76,25.47,25.47,0,0,1,6.28,8.63,30.87,30.87,0,0,1,2.47,13V214a6.51,6.51,0,0,1-1.69,4.77,6.79,6.79,0,0,1-9,0,6.47,6.47,0,0,1-1.7-4.75V174.11a20,20,0,0,0-1.55-8.25,15.84,15.84,0,0,0-4-5.57,16.36,16.36,0,0,0-5.58-3.16,19.21,19.21,0,0,0-12.42,0,16.34,16.34,0,0,0-5.58,3.16,15.8,15.8,0,0,0-4,5.57,19.91,19.91,0,0,0-1.55,8.25V214a6.48,6.48,0,0,1-1.69,4.75,6.79,6.79,0,0,1-9,0,6.51,6.51,0,0,1-1.69-4.77V151.85Z"/><path class="cls-2" d="M561.87,129.13a6.74,6.74,0,0,1,1.69-4.87,6.66,6.66,0,0,1,9,0,6.75,6.75,0,0,1,1.69,4.87v16.23h5.08q6.21,0,6.21,5.37t-6.21,5.36h-5.08v57.82a6.61,6.61,0,0,1-1.69,4.81,6.73,6.73,0,0,1-9,0,6.6,6.6,0,0,1-1.69-4.81V156.09h-5.08q-6.21,0-6.21-5.36t6.21-5.37h5.08V129.13Z"/><path class="cls-2" d="M604.71,122.14a7.84,7.84,0,1,1-2.19,5.43,7.38,7.38,0,0,1,2.19-5.43M616.36,214a6.51,6.51,0,0,1-1.69,4.76,6.78,6.78,0,0,1-9,0,6.52,6.52,0,0,1-1.69-4.76V151.85a6.51,6.51,0,0,1,1.69-4.76,6.77,6.77,0,0,1,9,0,6.51,6.51,0,0,1,1.69,4.76V214Z"/><path class="cls-2" d="M640.85,168.83a35.08,35.08,0,0,1,6.28-12,30.75,30.75,0,0,1,10.59-8.35,33.73,33.73,0,0,1,15-3.11q9.6,0,14.89,2.82t5.29,6.63a5.36,5.36,0,0,1-1.41,3.6,4.63,4.63,0,0,1-3.67,1.62,7.36,7.36,0,0,1-3.18-.64q-1.34-.64-3-1.34a36.51,36.51,0,0,0-3.67-1.34,18.29,18.29,0,0,0-5.29-.63,18.82,18.82,0,0,0-9.88,2.46,20.23,20.23,0,0,0-6.63,6.36,28.53,28.53,0,0,0-3.74,8.62,37.21,37.21,0,0,0,0,18.75,28.53,28.53,0,0,0,3.74,8.62,20.24,20.24,0,0,0,6.63,6.36,18.83,18.83,0,0,0,9.88,2.46,19.87,19.87,0,0,0,5.43-.63,20.83,20.83,0,0,0,3.81-1.48q1.62-.85,3-1.48a6.37,6.37,0,0,1,2.75-.64,4.68,4.68,0,0,1,3.46,1.34,5.27,5.27,0,0,1,1.34,3.88q0,3.53-5,6.63t-14.75,3.11a33.69,33.69,0,0,1-15-3.11A30.73,30.73,0,0,1,647.13,209a35.06,35.06,0,0,1-6.28-12,49.45,49.45,0,0,1,0-28.16"/></svg>