<?xml version="1.0" encoding="utf-8"?>
<!-- Generator: Adobe Illustrator 18.0.0, SVG Export Plug-In . SVG Version: 6.00 Build 0)  -->
<!DOCTYPE svg PUBLIC "-//W3C//DTD SVG 1.1//EN" "http://www.w3.org/Graphics/SVG/1.1/DTD/svg11.dtd">
<svg version="1.1" id="Layer_1" xmlns="http://www.w3.org/2000/svg" xmlns:xlink="http://www.w3.org/1999/xlink" x="0px" y="0px"
	 viewBox="2.7 3.4 208.6 33.1" enable-background="new 2.7 3.4 208.6 33.1" xml:space="preserve">
<g id="New_Symbol">
	<g>
		<rect x="40.7" y="3.4" width="7.4" height="33.1"/>
		<rect x="63.2" y="13.4" width="7.4" height="23.1"/>
		<rect x="53.6" y="3.4" width="26.5" height="7"/>
		<rect x="186.7" y="3.4" width="6.4" height="33.1"/>
		<polygon points="159.5,3.4 147.4,36.5 155.3,36.5 167.4,3.4 		"/>
		<polygon points="166,16.2 168.6,23.4 163.3,23.4 160.8,30.5 171.1,30.5 173.3,36.5 181.2,36.5 169.9,5.2 		"/>
		<rect x="120.7" y="3.4" width="7.4" height="23.4"/>
		<rect x="120.7" y="29.8" width="22" height="6.7"/>
		<polygon points="102.5,20 92.9,3.4 84.4,3.4 95.9,23.3 95.9,36.5 104.5,36.5 104.5,23.1 		"/>
		<path d="M208.2,19.4l-0.2-0.1l0.1-0.2c1.2-1.7,1.9-3.7,1.9-5.8c0-5.3-4.2-9.6-9.5-9.9l-1.3,0h-3.2V10h5.2c1.9,0,3.4,1.5,3.4,3.4
			c0,1.9-1.5,3.4-3.4,3.4c-0.1,0-0.1,0-0.1,0l-0.1,0h-5v6.4h5.2c1.9,0,3.4,1.5,3.4,3.4c0,1.9-1.5,3.4-3.4,3.4c-0.1,0-0.1,0-0.1,0
			l-0.1,0h-5v6.5h4.7l1.3-0.1c5.1-0.4,9.2-4.7,9.2-9.9C211.3,23.9,210.2,21.3,208.2,19.4z"/>
		<path d="M19.3,29.3c-4.6,0-8.5-3.4-9.1-7.9H2.7c0.7,8.5,7.8,15.1,16.5,15.1c7.1,0,13.1-4.4,15.5-10.7h-8.2
			C24.8,27.9,22.2,29.3,19.3,29.3z"/>
		<path d="M19.3,10.8c2.8,0,5.3,1.2,7,3.2h8.4C32.2,7.8,26.2,3.4,19.2,3.4c-8.6,0-15.7,6.6-16.5,15h7.5C11,14.1,14.7,10.8,19.3,10.8
			z"/>
		<polygon points="101.9,12.9 106.2,20.3 116,3.4 107.4,3.4 		"/>
	</g>
</g>
</svg>
