<?xml version="1.0" encoding="utf-8"?>
<!-- Generator: Adobe Illustrator 18.0.0, SVG Export Plug-In . SVG Version: 6.00 Build 0)  -->
<!DOCTYPE svg PUBLIC "-//W3C//DTD SVG 1.1//EN" "http://www.w3.org/Graphics/SVG/1.1/DTD/svg11.dtd">
<svg version="1.1" id="Layer_1" xmlns="http://www.w3.org/2000/svg" xmlns:xlink="http://www.w3.org/1999/xlink" x="0px" y="0px"
	 viewBox="0 316.1 612 159.9" enable-background="new 0 316.1 612 159.9" xml:space="preserve">
<g>
	<path fill="#E21F26" d="M278.6,408.8c3.4-24.1,16.8-47.2,36.4-64.5c19.6-17.2,45.3-28.2,73.1-28.2c32.7,0,50.6,12.6,59.4,26.7
		l-28.3,22.3c-7.6-10-18.7-17.9-38.1-17.9c-15.9,0-31.2,6.6-43,17c-12.4,10.8-21.6,26.7-24,43.5c-3.4,24.1,12.5,37.1,34.3,37.1
		c11.9,0,21.1-2.9,28.4-6l10.8-25.2h-34.2l12.1-29.4h67.1l-32.7,77c-16.6,8.6-35.1,14.6-58.2,14.6
		C306.5,475.9,272.1,454.9,278.6,408.8z"/>
	<path fill="#E21F26" d="M611.3,384.5c-3.3,23.6-16.6,47.2-36.2,64.5c-18.6,16.3-42.7,26.9-69.6,26.9c-42.6,0-66.5-29.6-61.1-68.5
		c3.3-23.6,16.6-47.2,36.2-64.5c18.6-16.3,42.7-26.9,69.6-26.9C592.8,316.1,616.7,345.7,611.3,384.5z M551.7,429.3
		c12.8-11.3,21.8-27.8,23.9-42.6c3.2-23-8.4-39.3-33.8-39.3c-14.4,0-27.6,6.2-37.9,15.3c-12.8,11.3-21.8,27.8-23.9,42.6
		c-3.2,23,8.4,39.3,33.8,39.3C528.2,444.6,541.4,438.4,551.7,429.3z"/>
	<path fill="#121820" d="M79.3,475.9c-11.3,0-21.9-2.1-31.6-6.2c-9.8-4.1-18.1-9.8-25.2-16.9c-7.1-7.2-12.6-15.5-16.6-25.3
		C2,417.9,0,407.5,0,396.4V396c0-11,2-21.4,6-31c4-9.6,9.5-18.1,16.5-25.4c7.1-7.3,15.5-13,25.4-17.2c9.9-4.2,20.7-6.3,32.7-6.3
		c7.4,0,14,0.6,19.9,1.8c5.9,1.2,11.3,2.8,16.1,4.9c4.9,2.1,9.4,4.6,13.5,7.5c4.1,2.9,7.9,6.2,11.5,9.7l-21.6,25
		c-6-5.4-12.2-9.7-18.4-12.8s-13.3-4.7-21.1-4.7c-6.5,0-12.5,1.3-18,3.8c-5.5,2.5-10.2,6-14.3,10.4c-4,4.4-7.1,9.5-9.3,15.3
		c-2.2,5.8-3.3,12-3.3,18.6v0.4c0,6.6,1.1,12.9,3.3,18.8s5.2,11,9.2,15.4c3.9,4.4,8.6,7.9,14.1,10.5c5.5,2.6,11.6,3.9,18.2,3.9
		c8.8,0,16.3-1.7,22.4-5c6.1-3.3,12.2-7.7,18.2-13.1l21.6,21.9c-4,4.3-8.1,8.1-12.4,11.5c-4.3,3.4-8.9,6.3-14,8.7
		c-5.1,2.4-10.6,4.3-16.7,5.5C93.6,475.3,86.8,475.9,79.3,475.9z"/>
	<path fill="#121820" d="M232.6,475.9c-11.9,0-22.9-2.1-32.9-6.3c-10-4.2-18.6-9.9-25.9-17c-7.3-7.2-12.9-15.5-17-25.2
		c-4.1-9.7-6.1-20-6.1-31V396c0-11,2.1-21.4,6.2-31c4.1-9.7,9.8-18.1,17.1-25.4c7.3-7.3,16-13,26-17.2c10.1-4.2,21.1-6.3,33.1-6.3
		c11.9,0,22.9,2.1,32.9,6.3c10,4.2,18.6,9.9,25.9,17c7.3,7.2,12.9,15.5,17,25.2c4.1,9.7,6.1,20,6.1,31v0.4c0,11-2.1,21.4-6.2,31
		c-4.1,9.7-9.8,18.1-17.1,25.4c-7.3,7.3-16,13-26,17.2C255.5,473.8,244.6,475.9,232.6,475.9z M233.1,444.6c6.9,0,13.2-1.2,18.9-3.8
		c5.6-2.5,10.5-6,14.6-10.4c4.1-4.4,7.2-9.5,9.5-15.3c2.3-5.8,3.4-12,3.4-18.6V396c0-6.6-1.1-12.9-3.4-18.8s-5.5-11-9.7-15.4
		c-4.2-4.4-9.1-7.9-14.8-10.5c-5.7-2.6-12-3.9-18.9-3.9c-6.8,0-13,1.3-18.8,3.8c-5.7,2.5-10.6,6-14.7,10.4
		c-4.1,4.4-7.2,9.5-9.5,15.3s-3.4,12-3.4,18.6v0.4c0,6.6,1.1,12.9,3.4,18.8c2.3,5.9,5.5,11,9.7,15.4c4.2,4.4,9.2,7.9,14.9,10.5
		C220,443.3,226.3,444.6,233.1,444.6z"/>
</g>
</svg>
