<?xml version="1.0" encoding="UTF-8"?>
<svg width="222px" height="222px" viewBox="0 0 222 222" version="1.1" xmlns="http://www.w3.org/2000/svg" xmlns:xlink="http://www.w3.org/1999/xlink">
    <!-- Generator: Sketch 52.5 (67469) - http://www.bohemiancoding.com/sketch -->
    <title>Agencies/Partners/USA/GCRTA-Cleveland/color</title>
    <desc>Created with Sketch.</desc>
    <g id="Agencies/Partners/USA/GCRTA-Cleveland/color" stroke="none" stroke-width="1" fill="none" fill-rule="evenodd">
        <path d="M221.820144,111.092338 C221.820144,172.294949 172.196466,221.91286 110.995912,221.91286 C49.7953585,221.91286 0.17911554,172.294949 0.17911554,111.092338 C0.17911554,49.8897268 49.7953585,0.268098097 110.995912,0.268098097 C172.196466,0.268098097 221.820144,49.8897268 221.820144,111.092338 Z M30.4641034,140.33032 L50.5507631,140.33032 L50.5507631,80.7821344 C50.5507631,79.8155035 50.5470454,78.3506858 51.7329874,78.3135077 C53.0713545,78.2688939 53.1754497,79.2615496 53.6438782,80.4215067 L61.7893291,100.951261 C62.3209583,102.315698 63.094237,103.527705 63.094237,104.817785 C63.094237,106.368112 62.0309787,106.918349 60.9268259,108.171251 C59.3691153,109.937211 57.8857584,111.07858 57.8857584,113.35388 C57.8857584,114.182952 58.5623773,115.688666 59.2018194,116.81888 C62.9009174,123.484916 77.0541495,147.788249 77.0541495,147.788249 L100.598258,147.788249 C100.118676,146.635728 83.3593457,118.071783 78.7865914,110.372195 C78.3553398,109.44646 77.8943467,109.02263 77.8943467,107.777163 C77.8943467,106.130173 78.7865914,105.665446 80.3554551,103.880897 C81.6975399,102.349158 82.467101,101.32676 82.526584,100.025526 C82.537737,99.7020767 82.348135,98.2335412 81.9280364,97.0178168 C80.0134279,91.4671244 73.4182522,73.8967477 72.5929258,71.9114364 L30.4641034,71.9114364 L30.4641034,140.33032 Z M88.4693608,71.9099482 L88.4693608,82.2454639 L101.35858,82.2454639 C103.291777,82.2454639 104.198892,83.6396431 104.198892,85.022669 L104.198892,147.786761 L123.891477,147.786761 L123.891477,84.9743374 C123.891477,83.6284897 124.768851,82.2454639 126.545905,82.2454639 L139.925859,82.2454639 L139.925859,71.9099482 L88.4693608,71.9099482 Z M170.429047,140.076023 L191.530635,140.076023 L191.530635,71.9099506 L158.487839,71.9099506 L126.545477,147.786763 L148.803265,147.786763 L161.960158,116.401 C162.506658,115.088612 162.863556,114.389664 162.863556,113.025227 C162.863556,111.634765 162.581011,110.586343 160.640379,108.333349 C158.963702,106.485597 158.487839,105.875876 158.487839,103.894282 C158.487839,102.775221 158.867043,101.752823 159.536226,100.317748 L168.135235,79.6206914 C168.458674,78.9886635 168.674299,77.854731 169.49219,77.854731 C170.120479,77.854731 170.417894,78.5350905 170.429047,79.1745541 L170.429047,140.076023 Z" id="Combined-Shape" fill="#D31145"></path>
    </g>
</svg>