<?xml version="1.0" encoding="utf-8"?>
<!-- Generator: Adobe Illustrator 19.2.1, SVG Export Plug-In . SVG Version: 6.00 Build 0)  -->
<svg version="1.1" id="Layer_1" xmlns="http://www.w3.org/2000/svg" xmlns:xlink="http://www.w3.org/1999/xlink" x="0px" y="0px"
	 viewBox="0 0 98.1 120" style="enable-background:new 0 0 98.1 120;" xml:space="preserve">
<style type="text/css">
	.st0{fill:#00AAE6;}
</style>
<title>InMotion_Logo</title>
<rect x="66.7" y="107.1" class="st0" width="3.3" height="12.6"/>
<rect x="0" y="102.6" class="st0" width="3.5" height="17.1"/>
<path class="st0" d="M16.7,108.2c-0.4-0.4-1-0.8-1.6-1s-1.3-0.3-2-0.3c-0.5,0-1,0.1-1.5,0.2s-0.9,0.3-1.3,0.6l-1,0.5l-0.4-1.1H6.4
	v12.6h3.3v-8.8c0-0.1,0-0.2,0-0.3c0-0.1,0.1-0.2,0.2-0.2c0.3-0.1,0.7-0.2,1-0.3c0.4-0.1,0.9-0.1,1.3-0.1h0.1
	c0.7-0.1,1.4,0.1,1.9,0.5c0.3,0.4,0.5,0.9,0.4,1.3v7.8H18v-7.9c0-0.7-0.1-1.4-0.4-2.1C17.4,109.2,17.1,108.6,16.7,108.2"/>
<path class="st0" d="M35.8,102.7c-0.1,0.1-0.2,0.2-0.3,0.3l-5.5,7.1h-0.2l-5.6-7.1c-0.1-0.1-0.2-0.2-0.3-0.3
	c-0.1-0.1-0.3-0.1-0.4-0.1h-2.9v17.1H24V108h0.1l4.3,5.4c0.1,0.1,0.2,0.2,0.3,0.2s0.2,0.1,0.4,0.1h2.2l4.4-5.7h0.1v11.7h3.4v-17.1
	h-2.8C36.1,102.6,35.9,102.6,35.8,102.7"/>
<path class="st0" d="M47.5,116.8L47.5,116.8c-2.1,0-3.1-1.1-3.1-3.4s1-3.4,3-3.4h0.1c2,0,3,1.1,3,3.4S49.5,116.8,47.5,116.8
	 M52,108.6c-0.6-0.6-1.3-1-2-1.3c-0.8-0.3-1.6-0.4-2.4-0.4h-0.1c-0.8,0-1.6,0.1-2.4,0.4c-0.7,0.3-1.4,0.7-2,1.3
	c-0.6,0.6-1.1,1.3-1.4,2c-0.7,1.8-0.7,3.8,0,5.5c0.3,0.8,0.8,1.4,1.4,2c0.6,0.5,1.3,1,2,1.2c0.8,0.3,1.6,0.4,2.4,0.4h0.1
	c0.8,0,1.6-0.1,2.4-0.4c0.7-0.3,1.4-0.7,2-1.2c0.6-0.6,1.1-1.2,1.4-2c0.7-1.8,0.7-3.8,0-5.5C53,109.9,52.6,109.2,52,108.6"/>
<path class="st0" d="M63.4,116.8l-0.9,0.2c-0.3,0-0.5,0.1-0.8,0.1c-0.4,0-0.8-0.1-1.1-0.4s-0.4-0.7-0.3-1.2v-5.7h4.2v-2.6h-4.2v-3.6
	H57v3.7l-2.3,0.5v2.1H57v5.8c-0.1,1.2,0.3,2.4,1.1,3.3c0.4,0.4,0.8,0.6,1.3,0.8c0.6,0.2,1.1,0.3,1.7,0.3c0.8,0,1.6-0.2,2.3-0.5
	c0.7-0.3,1.4-0.6,2-1.1l-0.8-1.9L63.4,116.8z"/>
<path class="st0" d="M69.3,101.8h-2.6v3.3H70v-2.6c0-0.2,0-0.4-0.1-0.5C69.7,101.9,69.5,101.8,69.3,101.8"/>
<path class="st0" d="M78.3,116.8L78.3,116.8c-2.1,0-3.1-1.1-3.1-3.4s1-3.4,3-3.4h0.1c2,0,3,1.1,3,3.4S80.3,116.8,78.3,116.8
	 M82.8,108.6c-0.6-0.6-1.3-1-2-1.3c-0.8-0.3-1.6-0.4-2.4-0.4h-0.1c-0.8,0-1.6,0.1-2.4,0.4c-0.7,0.3-1.4,0.7-2,1.3
	c-0.6,0.6-1.1,1.3-1.4,2c-0.7,1.8-0.7,3.8,0,5.5c0.3,0.8,0.8,1.4,1.4,2c0.6,0.5,1.3,1,2,1.2c0.8,0.3,1.6,0.4,2.4,0.4h0.1
	c0.8,0,1.6-0.1,2.4-0.4c0.7-0.3,1.4-0.7,2-1.2c0.6-0.6,1.1-1.2,1.4-2c0.7-1.8,0.7-3.8,0-5.5C83.8,109.9,83.3,109.2,82.8,108.6"/>
<path class="st0" d="M96.7,108.2c-0.4-0.4-1-0.8-1.6-1s-1.3-0.3-2-0.3c-0.5,0-1,0.1-1.5,0.2s-0.9,0.3-1.3,0.6l-1,0.5l-0.4-1.1h-2.6
	v12.6h3.3v-8.8c0-0.1,0-0.2,0-0.3c0-0.1,0.1-0.2,0.2-0.2c0.3-0.1,0.7-0.2,1-0.3c0.4-0.1,0.9-0.1,1.3-0.1l0,0
	c0.7-0.1,1.4,0.1,1.9,0.5c0.3,0.4,0.5,0.9,0.4,1.3v7.8h3.3v-7.9c0-0.7-0.1-1.4-0.4-2.1C97.4,109.2,97.1,108.6,96.7,108.2"/>
<rect x="34.2" y="23.4" transform="matrix(0.7072 -0.707 0.707 0.7072 -1.8774 56.6133)" class="st0" width="66.5" height="14.3"/>
<rect x="83.8" y="7" class="st0" width="14.3" height="81.3"/>
<polygon class="st0" points="59.1,49 49,59.1 19.8,29.9 19.8,9.7 "/>
<polyline class="st0" points="14.3,6.6 14.3,24.5 1.6,11.7 "/>
<polygon class="st0" points="0,88.3 14.3,88.3 14.3,32.2 0,17.8 "/>
<polygon class="st0" points="19.8,88.3 45.1,63 19.8,37.6 "/>
<path class="st0" d="M12.2,2.1c2.7,2.8,2.7,7.4-0.2,10.1c-2.8,2.7-7.2,2.7-9.9,0c-0.2-0.2-0.3-0.3-0.5-0.5c-2.5-3-2.1-7.5,0.9-10.1
	C5.4-0.7,9.6-0.5,12.2,2.1"/>
<polygon class="st0" points="0,88.3 14.3,88.3 14.3,32.2 0,17.8 "/>
<polygon class="st0" points="19.8,88.3 45.1,63 19.8,37.6 "/>
<path class="st0" d="M83.8,7c0,3.9,3.2,7.1,7.1,7.1c3.9,0,7.2-3.2,7.2-7.1s-3.2-7.1-7.2-7.1C87-0.1,83.8,3.1,83.8,7L83.8,7"/>
<rect x="83.8" y="7" class="st0" width="14.3" height="81.3"/>
</svg>
