<?xml version="1.0" encoding="utf-8"?>
<!-- Generator: Adobe Illustrator 18.0.0, SVG Export Plug-In . SVG Version: 6.00 Build 0)  -->
<!DOCTYPE svg PUBLIC "-//W3C//DTD SVG 1.1//EN" "http://www.w3.org/Graphics/SVG/1.1/DTD/svg11.dtd">
<svg version="1.1"
	 id="svg5230" xmlns:svg="http://www.w3.org/2000/svg" xmlns:rdf="http://www.w3.org/1999/02/22-rdf-syntax-ns#" xmlns:cc="http://creativecommons.org/ns#" xmlns:dc="http://purl.org/dc/elements/1.1/"
	 xmlns="http://www.w3.org/2000/svg" xmlns:xlink="http://www.w3.org/1999/xlink" x="0px" y="0px"
	 viewBox="444.1 -1306.5 885.8 105.4" enable-background="new 444.1 -1306.5 885.8 105.4" xml:space="preserve">
<g id="g3035">
	<g id="g3037">
		<g id="g3043">
			<defs>
				<polygon id="SVGID_1_" points="444.1,-1306.5 1329.9,-1306.5 1329.9,-1201.1 444.1,-1201.1 444.1,-1306.5 				"/>
			</defs>
			<clipPath id="SVGID_2_">
				<use xlink:href="#SVGID_1_"  overflow="visible"/>
			</clipPath>
			<g id="g3045" clip-path="url(#SVGID_2_)">
				<path id="path3051" fill="#231F20" d="M1237.2-1231.7c-3.5,2.8-11.3,9.7-14.6,12.7c-3-2.6-9.3-7.4-13.2-10.2v-0.5
					c1.1-0.4,1.9-1.4,1.9-3.9v-29.2c-3.1-2.2-8.2-5.5-11.6-7.6l-3.4,3.4v34.8l5.3,3.9c0,0-7.4,6.2-10.6,9.2
					c-2.9-2.7-7.2-5.9-11.1-8.8v-0.3c1.1-0.4,1.9-1.5,1.9-4v-30.6c-3.1-2.2-8.1-5.3-11.4-7.4l-4.1,3.2v34.8l5.2,3.9
					c0,0-7.2,5.8-10.6,9.1c-3.2-2.8-6.8-5.4-11.1-8.6v-0.2c1.2-0.5,2-1.9,2-3.6v-35.1l-4-3.4l-4.3,4l-2-2c3.2-2.6,10.2-8.6,14.8-13
					l9.9,8.6v2.5l13.4-11.1c4.2,2.9,16.7,10.6,16.7,10.6l12.8-10.6c4.1,3.2,13.5,8.8,18.7,11.8v0.5c-1.7,0.4-1.9,2.6-1.9,3.7v31.6
					l5.1,3.6l4.1-3.6L1237.2-1231.7L1237.2-1231.7z M1141.7-1292.5c-3.5,4.7-6.3,6.9-11.9,6.9c-3.8,0-5.8-1.1-8.9-4.7l-4.2,3.9
					l-1.9-2.2l14.6-12.7c3.8,7.5,8.3,8.5,12,8.4L1141.7-1292.5"/>
				<path id="path3053" fill="#231F20" d="M1146.4-1231.9c-3.8,3.2-11.2,9.6-14.7,13c-3.2-2.8-8.7-6.9-13.1-10.2v-0.4
					c1.2-0.5,1.9-1.9,1.9-3.6v-33.6l-3.9-3.3l-4.5,4l-1.9-1.9c3.2-2.6,10.3-8.9,14.9-13.2l11.8,10.2v0.5c-1.4,0.4-1.9,1.3-1.9,4.4
					v32.6l5.1,3.4l4.2-3.7L1146.4-1231.9L1146.4-1231.9z M909.4-1231.9c-3.8,3.2-11.4,9.6-14.8,13c-3.2-2.8-8.7-6.9-13.1-10.2v-0.4
					c1.2-0.5,1.9-1.9,1.9-3.6v-54.5l-4-3.4l-4.3,3.7l-1.9-1.9c3.2-2.6,9.5-8.4,14.1-12.7l12.5,10.2v0.5c-1.4,0.4-2,1.3-2,4.4v53.3
					l5.4,3.5l4.3-3.9L909.4-1231.9z M775.4-1231.7c-3.5,2.8-11.5,9.7-14.7,12.7c-3-2.6-9.2-7.4-13.1-10.2v-0.5c1.1-0.4,2-1.4,2-3.9
					v-29.2c-3.1-2.2-8.2-5.4-11.6-7.5c-0.7,0.5-3.4,2.4-4.1,3v35l5.4,3.9c0,0-7.2,5.8-10.6,9.1c-3.2-2.8-6.9-5.4-11.2-8.6v-0.2
					c1.2-0.5,2-1.9,2-3.6v-35.1l-4.1-3.4l-4.1,3.4l-1.7-1.9c3.2-2.6,9.9-8.2,14.6-12.5l9.8,8.6v2.5l13.4-11.1
					c4.1,3.2,13.5,8.8,18.7,11.8v0.5c-1.7,0.4-2,2.6-2,3.7v31.6l5.1,3.5l4.2-3.6L775.4-1231.7L775.4-1231.7z M1313.2-1227.6v-16.9
					c-2.1-0.9-4.4-2.3-6.4-3.3l-16.3,16.8l0.6,0.1c2.5-1.3,3.6-3,8.7-3c5.3,0,10.6,3.7,13.2,6.4L1313.2-1227.6L1313.2-1227.6z
					 M1329.9-1279.5c0,5.7-6.6,13.2-15.4,13.2c-5.8,0-9.2-2.9-11.9-6.5l-0.2,0.1v14.1l7.9,3.7l3.6-3.6c3.7,2.3,11.5,6.3,15.6,8v0.3
					c-0.8,0.3-1.7,1.2-1.7,2.9v9.9c0,1.4,1,2.4,1.7,2.7v0.5c-8.4,3.6-20.6,10-26.5,15.2c-3-2.8-7.1-5.5-12.4-5.5
					c-4.9,0-7.1,1.8-7.1,3.4c0,1,2.1,0.9,2.1,2.3c0,0.7-0.6,1.4-1.5,1.4c-1.2,0-3.3-1.6-3.3-3.6c0-3.8,2.7-7.1,8.9-13.3l10.9-11
					c-4.5-2.2-11-5-14.6-6.5v-0.5c1.1-0.3,1.8-1.4,1.8-2.6v-9c0-1-0.5-2.5-1.8-2.9v-0.5c9.1-3.1,20.6-9.5,27.2-14
					c1.5,1.6,5.4,5,9.6,5c3.5,0,4.3-1.7,4.3-2.9c0-0.7-1.3-1-1.3-2.1c0-0.9,0.5-1.3,1.2-1.3
					C1328-1282.4,1329.9-1281.4,1329.9-1279.5"/>
			</g>
		</g>
		<path id="path3055" fill="#231F20" d="M1267-1256.6c-3-4.1-8.4-10.8-11.8-15.6l-0.3,0.1v23L1267-1256.6z M1280.6-1261.9
			l-25.7,15.5v10.6c3.2,1.4,10,4.3,13.4,6.5l5.5-5.5c1.5-1.5,1.4-4.2,4.1-4.2c0.8,0,1.5,1.1,1.5,2c0,0.9-0.7,1.3-1.2,1.8l-16.7,16.2
			c-5.7-3.6-17.4-8.8-23.1-11.1v-0.5c0.9-0.3,2-1,2-3.3v-29.5c0-2.4-0.9-3.2-2-3.4v-0.5c8.7-2.7,21.8-9.6,28.1-13.9
			C1270.9-1274.7,1276.5-1266.9,1280.6-1261.9L1280.6-1261.9z M1096.7-1230.6v-53.6c-0.6,0-1.8,0.1-2.4,0.1
			c-3.7,0-10.3-1.4-14.5-2.6c-12.5,2.2-27.1,12.5-27.1,31.9c0,16.6,12.1,27.2,29.4,27.2C1087.9-1227.6,1093.1-1228.5,1096.7-1230.6
			L1096.7-1230.6z M1111.6-1298.4c0,8.5-5.8,12.7-12.6,14v52.5c8.8-4.7,10-9.6,10-12c0-0.5-1.2-1.3-1.2-2.2c0-0.7,1-1.4,1.6-1.4
			c1,0,1.4,0.9,1.4,2.5c0,12.3-12.1,28.8-37.8,28.8c-19.3,0-35.7-14.7-35.7-33.7c0-27.1,23.3-36.5,39.6-37.5
			c-5.9-1.3-15.4-3.3-23.3-3.3c-9.2,0-16.8,5.3-16.8,10c0,1.8,1.5,2.1,1.5,3.4c0,0.7-0.3,1.5-1.3,1.5c-1.5,0-2.8-1.5-2.8-2.7
			c0-10.3,7.6-25,23.6-25c16.2,0,28.2,5.7,40.8,5.7c8.3,0,10.7-2.9,10.4-7.6l1.9,0.6C1111.2-1304,1111.6-1301.6,1111.6-1298.4z
			 M986.4-1227.6v-16.9c-2.1-0.9-4.4-2.3-6.4-3.3l-16.3,16.8l0.6,0.1c2.5-1.3,3.6-3,8.8-3c5.3,0,10.6,3.7,13.2,6.4L986.4-1227.6z
			 M1003.1-1279.5c0,5.7-6.6,13.2-15.4,13.2c-5.8,0-9.2-2.9-11.9-6.5l-0.2,0.1v14.1l7.9,3.7l3.6-3.6c3.7,2.3,11.5,6.3,15.6,8v0.3
			c-0.8,0.3-1.8,1.2-1.8,2.9v9.9c0,1.4,1,2.4,1.8,2.7v0.5c-8.4,3.6-20.6,10-26.5,15.2c-3-2.8-7.1-5.5-12.4-5.5
			c-4.9,0-7.1,1.8-7.1,3.4c0,1,2.1,0.9,2.1,2.3c0,0.7-0.6,1.4-1.5,1.4c-1.2,0-3.3-1.6-3.3-3.6c0-3.8,2.7-7.1,8.9-13.3l10.9-11
			c-4.5-2.2-11-5-14.6-6.5v-0.5c1.1-0.3,1.7-1.4,1.7-2.6v-9c0-1-0.5-2.5-1.7-2.9v-0.5c9.1-3.1,20.6-9.5,27.2-14c1.5,1.6,5.4,5,9.6,5
			c3.5,0,4.3-1.7,4.3-2.9c0-0.7-1.3-1-1.3-2.1c0-0.9,0.5-1.3,1.2-1.3C1001.2-1282.4,1003.1-1281.4,1003.1-1279.5"/>
		<path id="path3057" fill="#231F20" d="M940.6-1256.6c-3-4.1-8.4-10.8-11.8-15.6l-0.4,0.1v23L940.6-1256.6z M954.1-1261.9
			l-25.7,15.5v10.6c3.2,1.4,10,4.3,13.4,6.5l5.5-5.5c1.5-1.5,1.4-4.2,4.1-4.2c0.8,0,1.5,1.1,1.5,2c0,0.9-0.7,1.3-1.2,1.8l-16.7,16.2
			c-5.7-3.6-17.4-8.8-23.1-11.1v-0.5c0.9-0.3,2-1,2-3.3v-29.5c0-2.4-0.9-3.2-2-3.4v-0.5c8.7-2.7,21.8-9.6,28.1-13.9
			C944.4-1274.7,950-1266.9,954.1-1261.9L954.1-1261.9z M864.4-1256.6c-3-4.1-8.4-10.8-11.8-15.6l-0.3,0.1v23L864.4-1256.6z
			 M877.9-1261.9l-25.7,15.5v10.6c3.2,1.4,10,4.3,13.4,6.5l5.5-5.5c1.5-1.5,1.4-4.2,4.1-4.2c0.8,0,1.5,1.1,1.5,2
			c0,0.9-0.7,1.3-1.2,1.8l-16.7,16.2c-5.7-3.6-17.4-8.8-23.1-11.1v-0.5c0.9-0.3,2-1,2-3.3v-29.5c0-2.4-0.9-3.2-2-3.4v-0.5
			c8.7-2.7,21.8-9.6,28.1-13.9C868.2-1274.7,873.8-1266.9,877.9-1261.9L877.9-1261.9z M810.2-1229.1v-33c-4.2-2.3-11.2-7-15.9-10.9
			l-0.2,0.1v36.9c4.2,1.9,11.2,5.9,14.4,8.2L810.2-1229.1L810.2-1229.1z M830.5-1223.6c-0.3,13.3-7.2,22.5-20.1,22.5
			c-10,0-17.4-5-26.5-5c-5.3,0-8.2,1.6-9.7,3.4l-0.7-0.3c0.5-9.7,7.6-15.1,16.6-15.1c9.9,0,17.1,6.2,27.7,6.2
			c6.7,0,10.2-3.4,10.9-6.9l-0.1-0.2c-1.4,0.8-3.2,1.9-5.9,1.9c-5.4,0-11.3-3.6-12.3-10c-2.6,1.7-8.3,6.1-10.9,8.3
			c-6.3-4-16.6-8.9-21.6-11.1v-0.5c1-0.3,1.8-1.6,1.8-2.8v-30.1c0-1.8-0.6-3-1.9-3.3v-0.5c9.2-3.3,20.9-9.3,27.3-14.1
			c5.5,4.3,15.7,10.2,21.6,13.5v0.6c-1.3,0.5-2,1.4-2,4.2v32.4c0,4.2,0.4,7,3.5,7c0.5,0,1.1-0.4,1.5-0.9L830.5-1223.6L830.5-1223.6z
			 M682.2-1253.5l-11.1-33.1l-12.2,33.1H682.2z M715.3-1232.2l-14.7,13.3c-4.1-2.8-7.6-5.1-12.8-8.3v-0.6c1.2-0.4,1.7-1.6,1.7-2.9
			c0-0.6-0.1-1.2-0.3-1.9l-4.2-12.8h-29.1l-3.9,10.7c6,0,9.1,0.7,12,1.9l2.9-5.1l2.3,1.2l-10,18c-3.9-2.2-8.4-3.9-13.4-3.9
			c-5.9,0-10.4,1.5-12.6,3.5c-0.4,0.4-1.1,0.3-0.8-0.6c2.4-8.1,7.7-14.3,16.9-14.8l20.3-54.6c-2.1-5.5-4.1-7.7-9.2-7.7
			c-4.8,0-9.4,2.1-9.4,7.8c0,2.6,2.7,2.4,2.7,4.3c0,0.7-0.6,1.4-1.5,1.4c-1.7,0-3.5-2.2-3.5-6.7c0-10,8.4-15.9,16.9-15.9
			c7.8,0,10.9,2.9,13.3,6.1c0.8-2.9,3.6-4.9,6-5.3l0.7,1.2c-1.4,1.7-2.2,3.3-2.2,5.5c0,1.1,0.5,3.5,0.8,4.4l21.8,61.4l3.7,2.2l4-3.6
			L715.3-1232.2L715.3-1232.2z M593-1227.6v-16.9c-2.1-0.9-4.4-2.3-6.4-3.3l-16.3,16.8l0.6,0.1c2.5-1.3,3.6-3,8.7-3
			c5.3,0,10.6,3.7,13.2,6.4L593-1227.6z M609.7-1279.5c0,5.7-6.6,13.2-15.4,13.2c-5.8,0-9.2-2.9-11.9-6.5l-0.2,0.1v14.1l7.9,3.7
			l3.6-3.6c3.7,2.3,11.5,6.3,15.6,8v0.3c-0.8,0.3-1.7,1.2-1.7,2.9v9.9c0,1.4,1,2.4,1.7,2.7v0.5c-8.4,3.6-20.6,10-26.5,15.2
			c-3-2.8-7.1-5.5-12.4-5.5c-4.9,0-7.1,1.8-7.1,3.4c0,1,2.1,0.9,2.1,2.3c0,0.7-0.6,1.4-1.5,1.4c-1.2,0-3.3-1.6-3.3-3.6
			c0-3.8,2.7-7.1,8.9-13.3l10.9-11c-4.5-2.2-11-5-14.6-6.5v-0.5c1.1-0.3,1.8-1.4,1.8-2.6v-9c0-1-0.5-2.5-1.8-2.9v-0.5
			c9.1-3.1,20.6-9.5,27.2-14c1.5,1.6,5.4,5,9.6,5c3.5,0,4.3-1.7,4.3-2.9c0-0.7-1.3-1-1.3-2.1c0-0.9,0.5-1.3,1.2-1.3
			C607.8-1282.4,609.7-1281.4,609.7-1279.5L609.7-1279.5z M542-1227.5v-34.7c-5-2.6-12.3-7.9-15.8-10.9l-0.2,0.1v35.4
			c4.8,2.5,11.9,6.9,15.8,10.2L542-1227.5z M558.4-1234.1c-7.2,2.9-21.2,10-27.3,15.2c-6.4-4.5-15.7-10.5-21.6-13.8v-0.3
			c1.5-0.5,1.9-1.6,1.9-3.4v-26.5c0-2.4-0.6-3.3-1.9-3.7v-0.5c9.9-3.6,19.3-8.6,27.3-14c5.5,4,15.2,9.9,21.6,13.5v0.5
			c-1.2,0.5-2,1.6-2,3.4v26.3c0,1.9,0.8,2.6,2,2.9V-1234.1z M481.2-1237.7v-49.1c-7.1-0.8-10.2-5.3-12.6-8.1l-6.9,5.4
			c0,7.5,2.1,13.5,4.8,19.5c2.4,5.4,5.1,12.5,5.1,17.4c0,8-4.6,13.1-15.5,23.1l0.3,0.3C463-1233.9,472.5-1237.6,481.2-1237.7
			L481.2-1237.7z M507.9-1237.8l-10.6,19.3c-5.6-3.8-14.5-6.1-22.1-6.1c-14.9,0-25.2,2.6-30.5,5.8l-0.7-0.7
			c4.7-4,12.7-10.5,12.7-25.2c0-6.2-2.6-13.2-4.4-17.9c-2.2-5.4-3.9-8.2-3.9-15.6c0-13,7.2-20.4,18.6-25.9l0.8,1
			c-3.9,3.2-5.7,7.2-6.3,11.3l18.1-14.7c4.6,6.3,9,8.7,14.7,8.7c4.7,0,6.1-2,6.1-3.6c0-1.2-1.6-1.3-1.6-2.4c0-1.1,0.8-1.4,1.4-1.4
			c1.4,0,2.8,1.8,2.8,3.2c0,8.9-8.2,15.4-16.3,15.4c-1.4,0-2.4,0.2-3.3,0v48.9c7,0,13.7,1.9,19,4.6l3.3-5.6L507.9-1237.8
			L507.9-1237.8z M1091.9-1279.5c0,0.7-0.9,1.3-1.4,1.3c-0.9,0-1.7-1.7-4.3-1.7c-3.8,0-7,3.2-7,6.9c0,9.8,9.9,13.7,9.9,24.9
			c0,9.3-9.4,14.8-19.1,16l-1.9-1.3c5.3-0.7,7.9-2.5,7.9-8.7c0-8.5-9.1-15.4-9.1-25.4c0-8.1,7.8-14.4,18.6-14.4
			c2.1,0,4.1,0.6,5.2,1.2C1091.4-1280.6,1091.9-1280.1,1091.9-1279.5"/>
	</g>
</g>
</svg>
