<?xml version="1.0" encoding="UTF-8"?>
<svg width="432px" height="162px" viewBox="0 0 432 162" version="1.1" xmlns="http://www.w3.org/2000/svg" xmlns:xlink="http://www.w3.org/1999/xlink">
    <!-- Generator: Sketch 52.5 (67469) - http://www.bohemiancoding.com/sketch -->
    <title>Agencies/Partners/USA/Baltimore/MDOT/color</title>
    <desc>Created with Sketch.</desc>
    <g id="Agencies/Partners/USA/Baltimore/MDOT/color" stroke="none" stroke-width="1" fill="none" fill-rule="evenodd">
        <path d="M0.156,103.632 L3.348,103.632 L10.812,114.432 L18.012,103.632 L21.18,103.632 L21.18,126.828 L17.58,126.828 L17.58,110.76 L11.22,119.976 L10.296,119.976 L3.792,110.724 L3.792,126.828 L0.192,126.828 L0.156,103.632 Z M34.488,103.632 L37.2,103.632 L46.356,126.828 L42.6,126.828 L40.572,121.692 L31.056,121.692 L29.052,126.828 L25.332,126.828 L34.488,103.632 Z M32.4,118.2 L39.264,118.2 L35.832,109.38 L32.4,118.2 Z M50.532,126.828 L50.532,103.632 L58.74,103.632 C60.1083829,103.600587 61.4720542,103.803515 62.772,104.232 C63.7548117,104.54343 64.6370136,105.110856 65.328,105.876 C65.8987359,106.539797 66.3311893,107.310869 66.6,108.144 C66.8659875,109.023032 66.995495,109.937679 66.984,110.856 C67.0310755,112.350545 66.6116669,113.822669 65.784,115.068 C64.9759938,116.261262 63.7805709,117.138754 62.4,117.552 L68.664,126.828 L64.26,126.828 L58.56,118.308 L54.144,118.308 L54.144,126.828 L50.532,126.828 Z M54.132,107.412 L54.132,114.54 L58.8,114.54 C59.9575076,114.611517 61.1024354,114.266762 62.028,113.568 C62.8264814,112.903863 63.2700969,111.905728 63.228,110.868 C63.2868107,109.904007 62.9076476,108.964916 62.196,108.312 C61.1555372,107.611757 59.9045636,107.293713 58.656,107.412 L54.132,107.412 Z M81.6,116.796 L81.6,126.84 L78,126.84 L78,116.796 L69.6,103.596 L74.076,103.596 L79.836,112.836 L85.716,103.596 L90,103.596 L81.6,116.796 Z M94.068,103.632 L97.668,103.632 L97.668,123 L109.512,123 L109.512,126.78 L94.068,126.78 L94.068,103.632 Z M121.956,103.632 L124.704,103.632 L133.86,126.828 L130.08,126.828 L128.052,121.692 L118.536,121.692 L116.532,126.828 L112.8,126.828 L121.956,103.632 Z M119.844,118.2 L126.708,118.2 L123.276,109.38 L119.844,118.2 Z M153.048,126.828 L141.528,111 L141.528,126.804 L138,126.804 L138,103.632 L140.808,103.632 L152.328,119.508 L152.328,103.632 L155.844,103.632 L155.844,126.828 L153.048,126.828 Z M162.3,103.632 L168.84,103.632 C170.703575,103.596449 172.557981,103.90145 174.312,104.532 C175.735928,105.035932 177.005115,105.899971 177.996,107.04 C178.881824,108.099269 179.550529,109.322511 179.964,110.64 C180.395915,112.046901 180.60643,113.512409 180.588,114.984 C180.725708,118.13867 179.632886,121.223526 177.54,123.588 C175.508,125.788 172.476,126.888 168.444,126.888 L162.3,126.888 L162.3,103.632 Z M165.9,107.412 L165.9,123.012 L168.708,123.012 C171.476,123.012 173.52,122.288 174.84,120.84 C176.247887,119.169521 176.957119,117.020331 176.82,114.84 C176.82,109.824 174.136,107.316 168.768,107.316 L165.9,107.412 Z M195.168,103.632 L201.708,103.632 C203.571575,103.596449 205.425981,103.90145 207.18,104.532 C208.603928,105.035932 209.873115,105.899971 210.864,107.04 C211.749824,108.099269 212.418529,109.322511 212.832,110.64 C213.263915,112.046901 213.47443,113.512409 213.456,114.984 C213.593708,118.13867 212.500886,121.223526 210.408,123.588 C208.376,125.788 205.344,126.888 201.312,126.888 L195.168,126.888 L195.168,103.632 Z M198.768,107.412 L198.768,123.012 L201.6,123.012 C204.368,123.012 206.412,122.288 207.732,120.84 C209.139887,119.169521 209.849119,117.020331 209.712,114.84 C209.712,109.824 207.028,107.316 201.66,107.316 L198.768,107.412 Z M218.76,103.632 L234.276,103.632 L234.276,107.4 L222.372,107.4 L222.372,113.232 L233.496,113.232 L233.496,116.832 L222.372,116.832 L222.372,123 L234.576,123 L234.576,126.78 L218.76,126.78 L218.76,103.632 Z M240.18,126.828 L240.18,103.632 L248.58,103.632 C250.042655,103.597448 251.500231,103.816694 252.888,104.28 C253.936658,104.619026 254.86836,105.247093 255.576,106.092 C256.150835,106.806212 256.590074,107.619617 256.872,108.492 C257.139628,109.391225 257.269105,110.325886 257.256,111.264 C257.259532,112.215783 257.101278,113.161245 256.788,114.06 C256.468551,114.943341 255.983932,115.757827 255.36,116.46 C254.617293,117.262266 253.684663,117.864761 252.648,118.212 C251.329053,118.668871 249.939547,118.888266 248.544,118.86 L243.744,118.86 L243.744,126.816 L240.18,126.828 Z M243.78,107.376 L243.78,115.128 L248.58,115.128 C251.924,115.128 253.596,113.824 253.596,111.216 C253.596,108.608 251.996,107.328 248.796,107.376 L243.78,107.376 Z M267.6,103.632 L270.348,103.632 L279.504,126.828 L275.712,126.828 L273.6,121.692 L264.084,121.692 L262.08,126.828 L258.348,126.828 L267.6,103.632 Z M265.452,118.2 L272.316,118.2 L268.884,109.38 L265.452,118.2 Z M283.608,126.828 L283.608,103.632 L291.816,103.632 C293.184383,103.600587 294.548054,103.803515 295.848,104.232 C296.830812,104.54343 297.713014,105.110856 298.404,105.876 C298.975536,106.539236 299.408085,107.310479 299.676,108.144 C299.941988,109.023032 300.071495,109.937679 300.06,110.856 C300.107076,112.350545 299.687667,113.822669 298.86,115.068 C298.064079,116.252461 296.886902,117.128991 295.524,117.552 L301.788,126.828 L297.408,126.828 L291.6,118.32 L287.184,118.32 L287.184,126.84 L283.608,126.828 Z M287.208,107.412 L287.208,114.54 L291.888,114.54 C293.041463,114.608617 294.181637,114.264012 295.104,113.568 C295.902481,112.903863 296.346097,111.905728 296.304,110.868 C296.362811,109.904007 295.983648,108.964916 295.272,108.312 C294.231537,107.611757 292.980564,107.293713 291.732,107.412 L287.208,107.412 Z M303.828,103.632 L321.456,103.632 L321.456,107.4 L314.4,107.4 L314.4,126.816 L310.8,126.816 L310.8,107.4 L303.792,107.4 L303.828,103.632 Z M325.632,103.632 L328.8,103.632 L336.264,114.432 L343.464,103.632 L346.632,103.632 L346.632,126.828 L343.032,126.828 L343.032,110.76 L336.684,119.976 L335.76,119.976 L329.256,110.724 L329.256,126.828 L325.656,126.828 L325.632,103.632 Z M353.112,103.632 L368.628,103.632 L368.628,107.4 L356.724,107.4 L356.724,113.232 L367.848,113.232 L367.848,116.832 L356.724,116.832 L356.724,123 L368.928,123 L368.928,126.78 L353.112,126.78 L353.112,103.632 Z M389.556,126.828 L378,111 L378,126.804 L374.52,126.804 L374.52,103.632 L377.328,103.632 L388.848,119.508 L388.848,103.632 L392.4,103.632 L392.4,126.828 L389.556,126.828 Z M396.528,103.632 L414.156,103.632 L414.156,107.4 L407.148,107.4 L407.148,126.816 L403.548,126.816 L403.548,107.4 L396.54,107.4 L396.528,103.632 Z M34.104,139.944 C36.0327779,137.774557 38.7971279,136.533346 41.7,136.533346 C44.6028721,136.533346 47.3672221,137.774557 49.296,139.944 C53.4060191,144.848819 53.4060191,151.995181 49.296,156.9 C47.367739,159.057272 44.611443,160.290462 41.718,160.290462 C38.824557,160.290462 36.068261,159.057272 34.14,156.9 C30.0108777,152.015747 30.0108777,144.864253 34.14,139.98 L34.104,139.944 Z M36.804,154.2 C38.0393602,155.624739 39.8322655,156.443176 41.718,156.443176 C43.6037345,156.443176 45.3966398,155.624739 46.632,154.2 C47.9950752,152.589139 48.7019323,150.52426 48.612,148.416 C48.6968164,146.301665 47.9665628,144.235477 46.572,142.644 C45.3500305,141.218051 43.5659086,140.397352 41.688,140.397352 C39.8100914,140.397352 38.0259695,141.218051 36.804,142.644 C34.1,146.016973 34.1,150.815027 36.804,154.188 L36.804,154.2 Z M57.696,136.776 L73.056,136.776 L73.056,140.556 L61.296,140.556 L61.296,147.12 L72.276,147.12 L72.276,150.9 L61.308,150.9 L61.308,159.984 L57.708,159.984 L57.696,136.776 Z M85.5,136.776 L103.128,136.776 L103.128,140.556 L96.12,140.556 L96.12,159.972 L92.52,159.972 L92.52,140.556 L85.5,140.556 L85.5,136.776 Z M107.304,159.972 L107.304,136.776 L115.512,136.776 C116.880383,136.744587 118.244054,136.947515 119.544,137.376 C120.526812,137.68743 121.409014,138.254856 122.1,139.02 C122.670736,139.683797 123.103189,140.454869 123.372,141.288 C123.637988,142.167032 123.767495,143.081679 123.756,144 C123.803076,145.494545 123.383667,146.966669 122.556,148.212 C121.760079,149.396461 120.582902,150.272991 119.22,150.696 L125.484,159.972 L121.104,159.972 L115.404,151.452 L110.988,151.452 L110.988,159.972 L107.304,159.972 Z M110.904,140.556 L110.904,147.684 L115.584,147.684 C116.741508,147.755517 117.886435,147.410762 118.812,146.712 C119.610481,146.047863 120.054097,145.049728 120.012,144.012 C120.070811,143.048007 119.691648,142.108916 118.98,141.456 C117.939537,140.755757 116.688564,140.437713 115.44,140.556 L110.904,140.556 Z M137.784,136.776 L140.532,136.776 L149.688,159.972 L145.896,159.972 L143.868,154.836 L134.4,154.836 L132.396,159.972 L128.664,159.972 L137.784,136.776 Z M135.66,151.392 L142.524,151.392 L139.092,142.572 L135.66,151.392 Z M168.876,159.972 L157.356,144.168 L157.356,159.972 L153.84,159.972 L153.84,136.776 L156.648,136.776 L168.168,152.652 L168.168,136.776 L171.684,136.776 L171.684,159.972 L168.876,159.972 Z M189.42,151.884 C188.90318,151.348781 188.271177,150.938389 187.572,150.684 C186.749628,150.385445 185.912537,150.12911 185.064,149.916 C184.152,149.684 183.236,149.408 182.316,149.088 C181.439282,148.779348 180.598417,148.377021 179.808,147.888 C179.037313,147.406953 178.401434,146.738041 177.96,145.944 C176.548217,143.356764 177.224637,140.127239 179.556,138.324 C181.222568,137.009864 183.303254,136.333322 185.424,136.416 C188.479795,136.253982 191.447501,137.469244 193.512,139.728 L191.544,142.572 C189.866438,140.996214 187.641299,140.135425 185.34,140.172 C184.263108,140.136577 183.194523,140.371748 182.232,140.856 C181.525047,141.20717 181.054597,141.90396 180.993115,142.690931 C180.931633,143.477902 181.288161,144.239299 181.932,144.696 C182.652181,145.206987 183.46871,145.56626 184.332,145.752 C185.284,145.984 186.32,146.284 187.44,146.652 C188.496779,146.995949 189.53428,147.396529 190.548,147.852 C191.52563,148.295785 192.357696,149.007201 192.948,149.904 C193.606048,150.911969 193.940952,152.096695 193.908,153.3 C193.947903,155.218009 193.086121,157.043745 191.58,158.232 C189.970757,159.533076 187.948474,160.214267 185.88,160.152 C184.052026,160.155291 182.246986,159.745055 180.6,158.952 C179.06918,158.272069 177.726623,157.230146 176.688,155.916 L178.836,153.096 C180.653766,155.271981 183.36993,156.492928 186.204,156.408 C187.233569,156.469961 188.256897,156.209935 189.132,155.664 C189.814138,155.197831 190.208535,154.41357 190.176,153.588 C190.1639,152.941336 189.891311,152.326929 189.42,151.884 Z M199.128,159.972 L199.128,136.776 L207.528,136.776 C208.99064,136.741691 210.448174,136.96093 211.836,137.424 C212.884658,137.763026 213.81636,138.391093 214.524,139.236 C215.098384,139.950511 215.537577,140.76383 215.82,141.636 C216.087446,142.535264 216.216919,143.469898 216.204,144.408 C216.207532,145.359783 216.049278,146.305245 215.736,147.204 C215.416286,148.087215 214.931695,148.901653 214.308,149.604 C213.564959,150.405869 212.632438,151.008294 211.596,151.356 C210.277053,151.812871 208.887547,152.032266 207.492,152.004 L202.692,152.004 L202.692,159.96 L199.128,159.972 Z M202.728,140.52 L202.728,148.272 L207.528,148.272 C210.872,148.272 212.544,146.968 212.544,144.36 C212.544,141.752 210.944,140.472 207.744,140.52 L202.728,140.52 Z M223.356,139.944 C225.284778,137.774557 228.049128,136.533346 230.952,136.533346 C233.854872,136.533346 236.619222,137.774557 238.548,139.944 C242.658019,144.848819 242.658019,151.995181 238.548,156.9 C236.619739,159.057272 233.863443,160.290462 230.97,160.290462 C228.076557,160.290462 225.320261,159.057272 223.392,156.9 C219.262878,152.015747 219.262878,144.864253 223.392,139.98 L223.356,139.944 Z M226.056,154.2 C227.29136,155.624739 229.084266,156.443176 230.97,156.443176 C232.855734,156.443176 234.64864,155.624739 235.884,154.2 C237.247075,152.589139 237.953932,150.52426 237.864,148.416 C237.948816,146.301665 237.218563,144.235477 235.824,142.644 C234.60203,141.218051 232.817909,140.397352 230.94,140.397352 C229.062091,140.397352 227.27797,141.218051 226.056,142.644 C223.352,146.016973 223.352,150.815027 226.056,154.188 L226.056,154.2 Z M246.948,159.972 L246.948,136.776 L255.156,136.776 C256.524383,136.744587 257.888054,136.947515 259.188,137.376 C260.170812,137.68743 261.053014,138.254856 261.744,139.02 C262.315002,139.683611 262.747487,140.45474 263.016,141.288 C263.281249,142.167195 263.41074,143.081727 263.4,144 C263.447076,145.494545 263.027667,146.966669 262.2,148.212 C261.404079,149.396461 260.226902,150.272991 258.864,150.696 L265.128,159.972 L260.748,159.972 L255.048,151.452 L250.56,151.452 L250.56,159.972 L246.948,159.972 Z M250.548,140.556 L250.548,147.684 L255.228,147.684 C256.381463,147.752617 257.521637,147.408012 258.444,146.712 C259.242481,146.047863 259.686097,145.049728 259.644,144.012 C259.702811,143.048007 259.323648,142.108916 258.612,141.456 C257.571537,140.755757 256.320564,140.437713 255.072,140.556 L250.548,140.556 Z M267.168,136.776 L284.796,136.776 L284.796,140.556 L277.788,140.556 L277.788,159.972 L274.188,159.972 L274.188,140.556 L267.18,140.556 L267.168,136.776 Z M293.496,136.776 L296.244,136.776 L305.4,159.972 L301.608,159.972 L299.58,154.836 L290.064,154.836 L288.06,159.972 L284.4,159.972 L293.496,136.776 Z M291.372,151.392 L298.236,151.392 L294.804,142.572 L291.372,151.392 Z M304.956,136.776 L322.584,136.776 L322.584,140.556 L315.6,140.556 L315.6,159.972 L312,159.972 L312,140.556 L304.992,140.556 L304.956,136.776 Z M326.76,136.776 L330.36,136.776 L330.36,159.972 L326.76,159.972 L326.76,136.776 Z M338.7,139.944 C340.628778,137.774557 343.393128,136.533346 346.296,136.533346 C349.198872,136.533346 351.963222,137.774557 353.892,139.944 C358.002019,144.848819 358.002019,151.995181 353.892,156.9 C351.963739,159.057272 349.207443,160.290462 346.314,160.290462 C343.420557,160.290462 340.664261,159.057272 338.736,156.9 C334.606878,152.015747 334.606878,144.864253 338.736,139.98 L338.7,139.944 Z M341.4,154.2 C342.63536,155.624739 344.428266,156.443176 346.314,156.443176 C348.199734,156.443176 349.99264,155.624739 351.228,154.2 C352.591075,152.589139 353.297932,150.52426 353.208,148.416 C353.292816,146.301665 352.562563,144.235477 351.168,142.644 C349.94603,141.218051 348.161909,140.397352 346.284,140.397352 C344.406091,140.397352 342.62197,141.218051 341.4,142.644 C338.696,146.016973 338.696,150.815027 341.4,154.188 L341.4,154.2 Z M377.328,159.972 L365.808,144.168 L365.808,159.972 L362.292,159.972 L362.292,136.776 L365.1,136.776 L376.62,152.652 L376.62,136.776 L380.136,136.776 L380.136,159.972 L377.328,159.972 Z" id="Maryland-Departement-of-Transportation" fill="#000000"></path>
        <path d="M391.572,87.288 L396.216,87.288 L396.216,88.2 L394.404,88.2 L394.404,92.064 L393.48,92.064 L393.48,88.2 L391.56,88.2 L391.572,87.288 Z M396.936,87.288 L397.74,87.288 L399.756,89.604 L401.676,87.288 L402.48,87.288 L402.48,92.016 L401.544,92.016 L401.544,88.608 L399.744,90.792 L397.92,88.608 L397.92,92.016 L396.984,92.016 L396.936,87.288 Z" id="Shape" fill="#000000"></path>
        <polygon id="Path" fill="#A30C33" points="323.064 1.176 323.064 20.136 368.016 20.136 368.016 87.288 386.928 87.288 386.928 20.136 413.172 20.136 432 1.308 432 1.176"></polygon>
        <path d="M248.148,45.972 L248.148,52.512 C248.148,52.836 248.148,53.148 248.148,53.46 C248.636425,61.5699913 255.131058,68.023323 263.244,68.46 C263.532,68.46 263.808,68.46 264.096,68.46 L322.8,68.46 C323.088,68.46 323.364,68.46 323.652,68.46 L324.276,68.4 C326.106779,68.227292 327.895609,67.7486483 329.568,66.984 C330.008,66.776 330.436,66.548 330.852,66.3 L330.912,66.3 C331.336,66.06 331.736,65.804 332.112,65.532 L332.232,65.448 C332.584,65.184 332.928,64.908 333.264,64.62 L333.432,64.464 C333.744,64.188 334.044,63.9 334.332,63.6 L334.416,63.504 L334.548,63.36 C334.776,63.12 334.992,62.868 335.196,62.616 L335.316,62.484 L335.568,62.148 C335.784,61.872 336,61.584 336.192,61.284 L336.456,60.84 L336.528,60.708 C336.672,60.468 336.852,60.168 336.948,59.988 C337.044,59.808 337.092,59.7 337.212,59.436 C337.332,59.172 337.524,58.776 337.584,58.632 C337.644,58.488 337.752,58.32 337.752,58.164 L337.824,57.96 C337.908,57.708 338.004,57.468 338.088,57.204 C338.172,56.94 338.244,56.616 338.304,56.388 C338.364,56.16 338.4,56.028 338.472,55.704 C338.544,55.38 338.544,54.876 338.628,54.696 C338.712,54.516 338.712,54.336 338.712,54.156 C338.796,53.628 338.796,53.088 338.796,52.548 L338.796,36 C338.796,35.46 338.712,34.92 338.712,34.392 C338.688,34.212 338.676,34.188 338.628,33.852 C338.58,33.516 338.52,33.072 338.472,32.844 C338.424,32.616 338.376,32.436 338.304,32.16 C338.232,31.884 338.16,31.608 338.088,31.344 C338.016,31.08 337.92,30.84 337.824,30.588 L337.752,30.384 C337.704,30.228 337.692,30.192 337.584,29.916 C337.476,29.64 337.296,29.292 337.212,29.112 C337.128,28.932 337.08,28.812 336.948,28.56 C336.816,28.308 336.672,28.08 336.528,27.84 L336.456,27.708 L336.192,27.264 C336,26.964 335.784,26.688 335.568,26.4 L335.316,26.064 L335.196,25.932 C334.98,25.68 334.764,25.428 334.548,25.188 L334.416,25.044 L334.332,24.948 C334.044,24.648 333.744,24.36 333.432,24.084 L333.264,23.928 C332.936,23.64 332.592,23.364 332.232,23.1 L332.112,23.016 C331.712,22.744 331.312,22.488 330.912,22.248 L330.852,22.248 C330.436,22 330.008,21.772 329.568,21.564 C327.895609,20.7993517 326.106779,20.320708 324.276,20.148 L323.652,20.088 L323.245,20.088 L323.196,20.172 L322.8,20.172 L264.096,20.172 C263.808,20.172 263.532,20.172 263.244,20.172 L262.92,20.172 C259.583082,13.8179974 254.376746,8.64098134 248.004,5.34 L247.824,5.256 L248.148,5.076 C253.077307,2.52659705 258.546449,1.19737737 264.096,1.2 L322.8,1.2 L323.364,1.19999613 L323.364,19.8 L353.856,19.8 L354.024,20.1 C354.328,20.692 354.616,21.296 354.888,21.912 C355.397736,23.0866439 355.842409,24.2884628 356.22,25.512 C356.448,26.22 356.676,26.94 356.856,27.672 L356.856,27.828 L356.856,27.924 C356.984,28.46 357.1,29 357.204,29.544 L357.3,30.072 C357.38,30.536 357.452,31.004 357.516,31.476 L357.516,31.74 L357.516,32.1 C357.576,32.568 357.648,33.036 357.648,33.504 C357.648,33.672 357.648,33.828 357.648,33.996 L357.648,34.092 C357.708,34.752 357.708,35.412 357.708,36.084 L357.516,36.084 L357.516,52.608 C357.516,53.28 357.456,53.94 357.456,54.6 L357.456,54.612 C357.456,54.78 357.456,54.936 357.456,55.104 C357.42,55.572 357.324,56.04 357.324,56.508 L357.324,56.868 L357.324,57.132 C357.26,57.604 357.188,58.072 357.108,58.536 L357.012,59.064 C356.908,59.608 356.792,60.148 356.664,60.684 L356.664,60.78 L356.664,60.936 C356.484,61.668 356.256,62.376 356.028,63.096 C355.650432,64.319545 355.205758,65.5213652 354.696,66.696 C354.424,67.312 354.136,67.916 353.832,68.508 C347.852536,80.1385079 335.877559,87.455006 322.8,87.468 L264.108,87.468 C258.558449,87.4706226 253.089307,86.1414029 248.16,83.592 C241.68221,80.2597778 236.408222,74.9857903 233.076,68.508 C230.526597,63.5786931 229.197377,58.1095509 229.2,52.56 L229.2,45.972 L229.187984,45.972 L229.188,36.048 C229.185283,33.2374532 229.523758,30.436969 230.196,27.708 C230.364,27.044 230.548,26.384 230.748,25.728 C231.353855,23.7839881 232.128816,21.8967769 233.064,20.088 L233.22,19.8 C235.452259,19.9410598 237.630597,20.5459267 239.616,21.576 C242.011458,22.7903273 244.071856,24.574632 245.616,26.772 C247.060871,28.8422394 248.001897,31.2215158 248.364,33.72 C248.292,34.188 248.208,34.812 248.208,35.136 C248.208,35.46 248.208,35.76 248.208,36.084 L248.196,45.972 L248.148,45.972 Z" id="O" fill="#000000"></path>
        <path d="M248.472,83.4 L248.172,83.604 C247.656,83.904 247.032,84.168 246.456,84.432 L245.892,84.672 L244.692,85.164 L243.996,85.416 L242.868,85.8 L242.124,86.028 L240.984,86.34 L240.228,86.532 L239.028,86.784 L238.284,86.928 L236.964,87.132 L236.328,87.228 C235.68,87.3 235.02,87.408 234.348,87.408 C233.644,87.448 232.932,87.468 232.212,87.468 L138.612,87.468 L138.612,69.18 L157.524,44.052 L181.2,44.052 L162.792,68.46 L232.212,68.46 C232.5,68.46 232.776,68.46 233.064,68.46 L233.388,68.46 C236.692228,74.8399263 241.901448,80.0323694 248.292,83.316 L248.472,83.4 Z M233.064,20.136 C232.8,20.124 232.5,20.1 232.212,20.088 L160.728,20.088 L175.008,1.176 L232.212,1.176 C237.761551,1.17337737 243.230693,2.50259705 248.16,5.052 C254.627906,8.39215256 259.898701,13.6587548 263.244,20.124 C264.494861,22.5430316 265.457448,25.1005308 266.112,27.744 C266.272,28.416 266.416,29.092 266.544,29.772 C266.927603,31.8540985 267.120403,33.9668592 267.12,36.084 L267.12,52.524 C267.120403,54.6411408 266.927603,56.7539015 266.544,58.836 C266.424,59.524 266.28,60.2 266.112,60.864 C265.457448,63.5074692 264.494861,66.0649684 263.244,68.484 L263.076,68.772 C255.394362,68.3004362 249.097282,62.5043168 247.992,54.888 C248.064,54.432 248.148,53.964 248.148,53.484 C248.148,53.436 248.148,53.316 248.148,53.316 C248.148,53.064 248.148,52.812 248.148,52.548 L248.148,36.084 C248.148,35.832 248.148,35.568 248.148,35.316 C248.148,35.268 248.148,35.148 248.148,35.148 C247.978684,32.2050682 246.993971,29.367267 245.304,26.952 C243.791965,24.7954579 241.772632,23.0439951 239.424,21.852 C237.44755,20.840959 235.280772,20.2563378 233.064,20.136 Z" id="D" fill="#FDB913"></path>
        <polygon id="M" fill="#000000" points="138.612 69.48 157.524 44.352 157.524 1.932 157.524 0.66 134.556 0.66 120.228 19.704 88.164 62.316 88.164 1.632 88.164 0.66 65.184 0.66 0 87.288 23.7 87.288 69.24 26.772 69.24 87.288 88.164 87.288 93.072 87.288 138.612 26.772"></polygon>
    </g>
</svg>