<?xml version="1.0" encoding="utf-8"?>
<!-- Generator: Adobe Illustrator 18.0.0, SVG Export Plug-In . SVG Version: 6.00 Build 0)  -->
<!DOCTYPE svg PUBLIC "-//W3C//DTD SVG 1.1//EN" "http://www.w3.org/Graphics/SVG/1.1/DTD/svg11.dtd">
<svg version="1.1" id="Layer_1" xmlns="http://www.w3.org/2000/svg" xmlns:xlink="http://www.w3.org/1999/xlink" x="0px" y="0px"
	 viewBox="1 1 206 32" enable-background="new 1 1 206 32" xml:space="preserve">
<title>motivate</title>
<g>
	<path fill="#00A77E" d="M29.9,7.4c-3.1,0-6.2,1.1-8,4.1c-1.7-2.6-4.6-4.2-7.8-4.1c-2.8-0.1-5.4,1.2-6.9,3.4V8.1H1v23.8h6.3V18.9
		c0-3.6,2.3-5.4,5-5.4c2.9,0,4.6,1.9,4.6,5.3v13.1h6.3V18.9c0-3.6,2.3-5.4,5-5.4c2.9,0,4.6,1.9,4.6,5.3v13.1h6.3V16.7
		C39.1,11.2,35.4,7.4,29.9,7.4z M85.7,26.6c-2,0-3.5-1.1-3.5-4.1v-8.7h8.5V8.1h-8.5V1h-6.3v22c0,6.2,3,9.5,8.8,9.5
		c2.8,0,5.5-0.9,7.8-2.5l-2.3-5C88.8,25.9,87.2,26.4,85.7,26.6z M97.2,31.9h6.3V8.1h-6.3C97.2,8.1,97.2,31.9,97.2,31.9z M120.6,25.2
		l-6.1-17.1h-6.9l9.3,23.8h7.3l9.2-23.8h-6.7L120.6,25.2z M146.8,7.4c-3.4-0.1-6.8,1-9.6,3l2.5,4.9c1.9-1.4,4.1-2.2,6.4-2.2
		c3.3,0,5,1.6,5.2,4.5h-5.5c-6,0-9.8,2.8-9.8,7.3c0,4.5,3.1,7.6,8.3,7.6c2.7,0.1,5.3-1,7.2-3v2.4h6.1v-14
		C157.8,11,153.5,7.4,146.8,7.4L146.8,7.4z M151.5,24.6c-1.4,1.7-3.4,2.7-5.6,2.8c-2.2,0-3.2-1.3-3.2-2.7c0-1.4,1.1-2.8,4.1-2.8h4.7
		L151.5,24.6L151.5,24.6z M207,20c0-7.4-4.7-12.5-11.4-12.5c-7,0-11.9,5.1-11.9,12.6s5,12.5,12.2,12.5c3.7,0.1,7.3-1.2,10-3.6
		l-3.7-4.1c-1.7,1.4-3.8,2.2-6,2.3c-3,0.2-5.7-2-6-4.9h16.7C207,21.4,207,20.7,207,20z M190.2,17.7c0.6-3,2.3-4.8,5.3-4.8
		c2.7,0,4.5,1.7,5.1,4.8H190.2L190.2,17.7z M173.9,26.6c-2,0-3.5-1.1-3.5-4.1v-8.7h8.5V8.1h-8.5V1H164v22c0,6.2,3,9.5,8.8,9.5
		c2.8,0,5.5-0.9,7.8-2.5l-2.3-5C177,25.9,175.5,26.4,173.9,26.6z M57.5,7L57.5,7l0,6.3h0c3.7,0.1,6.7,3.1,6.6,6.8c0,2-1,3.9-2.5,5.2
		v3.7l3.7,1.4C71,25.9,72,17.7,67.5,12C65.1,8.9,61.4,7,57.5,7z M50.8,20c0-2,0.9-4,2.5-5.3V11l-3.7-1.4c-5.7,4.4-6.7,12.6-2.3,18.3
		c2.4,3.1,6.1,5,10.1,5v-6.3C53.8,26.7,50.8,23.7,50.8,20z"/>
</g>
</svg>
