<?xml version="1.0" encoding="utf-8"?>
<!-- Generator: Adobe Illustrator 19.2.1, SVG Export Plug-In . SVG Version: 6.00 Build 0)  -->
<svg version="1.1" id="Layer_1" xmlns="http://www.w3.org/2000/svg" xmlns:xlink="http://www.w3.org/1999/xlink" x="0px" y="0px"
	 viewBox="0 0 631.6 61.8" style="enable-background:new 0 0 631.6 61.8;" xml:space="preserve">
<g>
	<path d="M214.9,47.6c0.3-0.8,0.6-1.8,0.8-2.8C215.5,45.9,215.3,46.8,214.9,47.6z"/>
	<path d="M220.5,42.2c0.7,0,1.5,0,2.2,0C222,42.2,221.2,42.2,220.5,42.2z"/>
	<path d="M211.8,10.7c-0.4-0.1-0.8-0.3-1.3-0.3C211,10.4,211.5,10.6,211.8,10.7z"/>
	<path d="M213.2,50.2c0.7-0.7,1.3-1.5,1.7-2.6C214.5,48.7,213.9,49.6,213.2,50.2z"/>
	<path d="M195.1,52.1c4.3,0,8.5-0.1,12.7-0.2C203.6,52.1,199.4,52.1,195.1,52.1z"/>
	<path d="M208.8,51.9c0.9-0.1,1.8-0.3,2.5-0.5C210.6,51.6,209.8,51.8,208.8,51.9z"/>
	<path d="M212,51c0.4-0.2,0.8-0.5,1.2-0.8C212.8,50.5,212.5,50.8,212,51z"/>
	<path d="M174.3,60.3c-1.2-0.5-2.3-1.1-3.3-1.9C172,59.2,173.1,59.8,174.3,60.3z"/>
	<path d="M194.9,61.6c-2.8,0-5.7-0.1-8.5-0.2C189.3,61.6,192.1,61.6,194.9,61.6z"/>
	<path d="M173.6,1.9c1.8-0.9,3.7-1.4,5.8-1.6C177.3,0.5,175.4,1.1,173.6,1.9z"/>
	<path d="M180.9,0.2c4.6-0.1,9.2-0.1,13.7-0.1C190.1,0.1,185.5,0.2,180.9,0.2z"/>
	<path d="M174.4,37.2c0-2.2,0-4.3,0-6.5C174.4,32.9,174.4,35,174.4,37.2z"/>
	<path d="M168.1,55.7c-1.1-1.4-2-2.9-2.5-4.5C166.2,52.8,167.1,54.3,168.1,55.7z"/>
	<path d="M168.1,55.7c0.8,1,1.8,1.9,2.8,2.7C169.9,57.6,169,56.7,168.1,55.7z"/>
	<path d="M164.7,18.5c-0.3,9.6-0.2,19.2,0.2,28.8c0,0.9,0.2,1.7,0.4,2.6c-0.2-0.8-0.3-1.7-0.4-2.6C164.5,37.7,164.4,28.1,164.7,18.5
		z"/>
	<path d="M169.9,4.3c-0.7,0.6-1.4,1.3-2,2.1C168.5,5.6,169.2,5,169.9,4.3z"/>
	<path d="M220.5,42.2c-1.5,0-2.9,0.1-4.4,0.2c-0.1,0.9-0.2,1.6-0.4,2.4c0.1-0.7,0.3-1.5,0.4-2.4C217.6,42.3,219,42.2,220.5,42.2z"/>
	<path d="M171.1,3.4c0.8-0.6,1.6-1.1,2.5-1.5C172.7,2.4,171.9,2.9,171.1,3.4z"/>
	<path d="M215.3,15c-0.6-1.5-1.1-2.5-1.8-3.2C214.1,12.4,214.7,13.5,215.3,15z"/>
	<path d="M212.5,11c-0.2-0.1-0.5-0.2-0.7-0.3C212.1,10.8,212.3,10.9,212.5,11z"/>
	<path d="M213.4,11.7c-0.3-0.3-0.6-0.5-0.9-0.7C212.9,11.2,213.2,11.4,213.4,11.7z"/>
	<path d="M215.9,16.8c-0.2-0.5-0.3-0.9-0.5-1.3C215.6,15.9,215.8,16.4,215.9,16.8z"/>
	<path d="M255.4,0.2c6.7,0,13.5,0,20.2,0C268.9,0.2,262.1,0.2,255.4,0.2c-9.7,0.1-16.6,7-16.6,16.8c0,1,0,2.1,0,3.1c0-1,0-2.1,0-3.1
		C238.8,7.2,245.7,0.3,255.4,0.2z"/>
	<path d="M280.9,26c-3.5,0-7,0-10.5,0c-3.6,0-7.1,0-10.8,0c3.6,0,7.2,0,10.8,0C274,26,277.4,26,280.9,26z"/>
	<path d="M242.2,55.1c0.8,1,1.6,1.9,2.6,2.7C243.8,56.9,242.9,56.1,242.2,55.1z"/>
	<path d="M238.6,42c0.2-2.1,0.2-4.1,0.3-6.2C238.8,37.8,238.7,39.9,238.6,42c-0.2,2.2,0,4.3,0.4,6.2C238.6,46.3,238.4,44.2,238.6,42
		z"/>
	<path d="M272.1,61.6c1.5,0,3,0,4.5,0C275.1,61.6,273.6,61.6,272.1,61.6z"/>
	<path d="M265.6,10.1C265.6,10.1,265.6,10.1,265.6,10.1C265.6,10.1,265.6,10.1,265.6,10.1z"/>
	<path d="M238.9,29.5c0-2.1-0.1-4.2-0.1-6.3C238.8,25.3,238.8,27.4,238.9,29.5z"/>
	<path d="M294.6,61.7L294.6,61.7c-6,0-12-0.1-18-0.1C282.6,61.7,288.6,61.8,294.6,61.7z"/>
	<path d="M293.9,52c-5.9,0-11.8,0-17.7,0C282,52.1,288,52,293.9,52z"/>
	<path d="M123.7,51.8L123.7,51.8c0-14.1,0-27.7,0-41.9h0C123.7,24.2,123.7,37.8,123.7,51.8z"/>
	<path d="M24.7,9.8c-6.2,0.1-8.7,2.7-8.7,8.9c0,14,0,27.9,0,42.4h0c0-14.4,0-28.4,0-42.4C16.1,12.4,18.6,9.8,24.7,9.8
		c4,0,8-0.1,12-0.1C32.7,9.7,28.7,9.7,24.7,9.8z"/>
	<path d="M49.7,0c-3.1,0-6.2,0-9.2,0C43.5,0,46.6,0,49.7,0c10.2,0.1,17.2,5.6,17.7,15.7C68,30.7,67.5,45.7,67.5,61h0
		c0-15.3,0.5-30.3-0.2-45.2C66.9,5.7,59.8,0.1,49.7,0z"/>
	<path d="M10.4,2.7C8.8,2.7,7.3,2.3,5.6,1.3C4.2,0.5,2.1,0.9,0,0.7l0,0c2.1,0.2,4.2-0.2,5.6,0.6C7.3,2.3,8.8,2.7,10.4,2.7z"/>
	<path d="M0,9.9L0,9.9c0.3,0,0.7,0,1,0C0.7,9.9,0.3,9.9,0,9.9z"/>
	<path d="M29.6,0.1c-1.6,0-3.3-0.1-4.9-0.1C26.3,0,27.9,0.1,29.6,0.1z"/>
	<path d="M581.2,60.5c1.5,0.5,3.1,0.8,4.8,0.9c3.7,0.1,7.5,0.2,11.2,0.3c-3.7,0-7.5-0.1-11.2-0.3C584.3,61.3,582.7,61,581.2,60.5z"
		/>
	<path d="M597.3,10.1c2.6,0,5.2,0,7.7,0c2.2,0,4.4,0,6.6,0c-2.2,0-4.4,0-6.6,0C602.5,10.1,599.9,10.1,597.3,10.1z"/>
	<path d="M608.7,0.1c-7.6,0-15,0-22.5,0.1c-3.7,0.1-7.1,1.5-9.7,3.8c2.6-2.3,6-3.7,9.7-3.8C593.6,0.1,601.1,0.1,608.7,0.1z"/>
	<path d="M574,55.2c1.8,2.4,4.2,4.3,7.2,5.3C578.2,59.5,575.8,57.6,574,55.2z"/>
	<path d="M572.5,52.6c-0.9-1.9-1.4-3.9-1.6-6.1C571,48.7,571.6,50.8,572.5,52.6z"/>
	<path d="M572.1,10.2c0.4-0.9,0.9-1.9,1.4-2.7C572.9,8.3,572.5,9.2,572.1,10.2z"/>
	<path d="M576.4,4c-0.8,0.7-1.4,1.4-2.1,2.2C575,5.4,575.7,4.7,576.4,4z"/>
	<path d="M570.7,23.4c-0.1,7.1,0,14.2,0.1,21.4c0,0.6,0,1.1,0.1,1.7c-0.1-0.6-0.1-1.1-0.1-1.7C570.7,37.7,570.6,30.5,570.7,23.4z"/>
	<path d="M493,0.2L493,0.2c0,20.6,0,40.7,0,61.3c7.8,0,15.5,0.1,23.1,0.1c-7.6,0-15.3-0.1-23.1-0.1C493,40.9,493,20.8,493,0.2z"/>
	<path d="M414.1,52.2c0,3.3,0,6.1,0,9.2h0C414.1,58.4,414.1,55.6,414.1,52.2L414.1,52.2z"/>
	<path d="M292.9,10.1c-2.2,0-4.3,0-6.4,0C288.7,10.1,290.8,10.1,292.9,10.1z"/>
	<path d="M257.3,10.1c-0.8,0-1.6,0-2.2,0.1C255.8,10.1,256.5,10.1,257.3,10.1z"/>
	<path d="M255.1,10.2c-0.7,0.1-1.3,0.2-1.9,0.3C253.8,10.4,254.4,10.3,255.1,10.2z"/>
	<path d="M294.6,61.7c0.8,0,1.6,0,2.4-0.1C296.2,61.7,295.4,61.7,294.6,61.7L294.6,61.7z"/>
	<path d="M265.6,10.1c2.7,0,5.5,0,8.2,0c4.2,0,8.4,0,12.7,0c-4.3,0-8.5,0-12.7,0C271.1,10.1,268.3,10.1,265.6,10.1z"/>
	<path d="M248.4,37.6c0-0.6,0-1.2,0-1.8h0C248.4,36.4,248.4,37,248.4,37.6z"/>
	<path d="M250,12.5c-0.3,0.4-0.6,0.8-0.8,1.3C249.5,13.4,249.7,12.9,250,12.5z"/>
	<path d="M248.4,26L248.4,26c0-2.8,0-5.1,0-7.4C248.4,20.9,248.4,23.2,248.4,26z"/>
	<path d="M250,12.5c0.6-0.8,1.4-1.3,2.4-1.7C251.4,11.2,250.6,11.8,250,12.5z"/>
	<path d="M297.6,0.3c-0.6-0.1-1.2-0.1-1.7-0.1c-6.7,0-13.5,0-20.2,0c6.7,0,13.5,0,20.2,0C296.4,0.2,297,0.2,297.6,0.3z"/>
	<path d="M267.6,61.7c1.5,0,3,0,4.5,0C270.6,61.6,269.1,61.7,267.6,61.7z"/>
	<path d="M257.3,10.1c2.7,0,5.5,0,8.2,0C262.8,10.1,260.1,10.1,257.3,10.1z"/>
	<path d="M249.3,13.9c-0.2,0.5-0.4,1-0.5,1.7C248.9,14.9,249,14.4,249.3,13.9z"/>
	<path d="M248.7,45.8c0.3,1.4,0.7,2.5,1.4,3.4C249.4,48.3,249,47.2,248.7,45.8z"/>
	<path d="M276.1,52.1c-5.9,0-11.8,0-17.7,0C264.3,52.1,270.2,52.1,276.1,52.1z"/>
	<path d="M248.4,42.1c0,1.4,0.1,2.6,0.3,3.6C248.5,44.7,248.4,43.5,248.4,42.1c0-1.5,0-2.9,0-4.6C248.4,39.2,248.4,40.7,248.4,42.1z
		"/>
	<path d="M252.8,51.2c0.6,0.2,1.2,0.4,1.9,0.5C254,51.6,253.3,51.4,252.8,51.2z"/>
	<path d="M293.9,52c-5.9,0-11.8,0-17.7,0s-11.8,0-17.7,0c-1.4,0-2.6-0.1-3.7-0.3c-0.7-0.1-1.4-0.3-1.9-0.5c-1.1-0.5-2-1.1-2.7-2
		s-1.1-2-1.4-3.4c-0.2-1.1-0.3-2.3-0.3-3.6c0-1.5,0-2.9,0-4.6c0-0.6,0-1.2,0-1.8h0c14.8,0,28.9,0,43.2,0c0-3.5,0-6.4,0-9.7
		c-3.6,0-7.2,0-10.7,0s-7,0-10.5,0c-3.6,0-7.1,0-10.8,0s-7.4,0-11.3,0h0c0-2.8,0-5.1,0-7.4c0-1.2,0.1-2.2,0.3-3.2
		c0.1-0.6,0.3-1.2,0.5-1.7s0.5-0.9,0.8-1.3c0.6-0.8,1.4-1.3,2.4-1.7c0.3-0.1,0.5-0.2,0.8-0.3c0.6-0.2,1.2-0.3,1.9-0.3
		s1.4-0.1,2.2-0.1c2.7,0,5.5,0,8.2,0c0,0,0,0,0,0c2.7,0,5.5,0,8.2,0c4.2,0,8.4,0,12.7,0c2.1,0,4.3,0,6.4,0c2.2,0,4.3,0,6.5,0
		c0-3.5,0-6.4,0-9.6c-0.7,0-1.3-0.1-1.9-0.2c-0.6-0.1-1.2-0.1-1.7-0.1c-6.7,0-13.5,0-20.2,0c-6.7,0-13.5,0-20.2,0
		c-9.7,0.1-16.6,7-16.6,16.8c0,1,0,2.1,0,3.1s0,2.1,0,3.1c0,2.1,0.1,4.2,0.1,6.3c0,2.1,0,4.2,0,6.2c0,2.1-0.1,4.2-0.3,6.2
		c-0.2,2.2,0,4.3,0.4,6.2c0.6,2.6,1.6,4.9,3.2,6.9c0.8,1,1.6,1.9,2.6,2.7c3.4,2.8,8.1,4.3,13.8,4.1c3-0.1,6-0.1,9-0.2
		c1.5,0,3,0,4.5,0s3,0,4.5,0c6,0,12,0.1,18,0.1c0.8,0,1.6,0,2.4-0.1c0.8-0.1,1.6-0.1,2.5-0.2c0-3.3,0-6,0-9.4
		C297.4,52,295.7,52,293.9,52z"/>
	<path d="M580.5,44.4c0.1,0.8,0.2,1.5,0.4,2.2C580.8,45.9,580.6,45.2,580.5,44.4z"/>
	<path d="M581.6,13.2c-0.3,0.5-0.5,1-0.6,1.5C581.1,14.2,581.4,13.7,581.6,13.2z"/>
	<path d="M584.5,10.8c-0.5,0.2-1,0.5-1.4,0.7C583.5,11.3,584,11,584.5,10.8z"/>
	<path d="M624.9,10.1c-2.2,0-4.4,0-6.7,0C620.5,10.1,622.7,10.1,624.9,10.1z"/>
	<path d="M589.6,10.1c-1.7,0-3.1,0.2-4.2,0.5C586.5,10.2,587.9,10.1,589.6,10.1c2.6,0,5.2,0,7.7,0C594.7,10.1,592.2,10.1,589.6,10.1
		z"/>
	<path d="M580.9,46.6c0.3,1,0.6,1.8,1.1,2.5C581.6,48.4,581.2,47.6,580.9,46.6z"/>
	<path d="M590.5,52c5.9,0,11.8,0,17.7,0C602.4,52.1,596.4,52,590.5,52c-4.3,0-6.9-0.8-8.4-2.9C583.6,51.2,586.3,52,590.5,52z"/>
	<path d="M631.1,61.4c0.1-0.1,0.2-0.2,0.4-0.3C631.3,61.2,631.2,61.3,631.1,61.4z"/>
	<path d="M580.4,25.9L580.4,25.9c0-2,0-3.6,0-5.3C580.4,22.2,580.4,23.9,580.4,25.9z"/>
	<path d="M580.4,20.6c0-0.5,0-1.1,0-1.6c0-1.7,0.2-3.1,0.6-4.2c0.2-0.6,0.4-1.1,0.6-1.5c0.4-0.7,0.9-1.2,1.5-1.7
		c0.4-0.3,0.9-0.5,1.4-0.7c0.3-0.1,0.5-0.2,0.8-0.3c1.2-0.3,2.6-0.5,4.2-0.5c2.6,0,5.2,0,7.7,0c2.6,0,5.2,0,7.7,0c2.2,0,4.4,0,6.6,0
		c2.2,0,4.4,0,6.6,0c2.2,0,4.4,0,6.7,0c2.2,0,4.5,0,6.7,0c0-3.5,0-6.4,0-9.9c-7.8,0-15.4,0-23-0.1c-7.6,0-15,0-22.5,0.1
		c-3.7,0.1-7.1,1.5-9.7,3.8c-0.8,0.7-1.4,1.4-2.1,2.2c-0.3,0.4-0.6,0.8-0.9,1.2c-0.6,0.8-1,1.8-1.4,2.7c-0.8,1.9-1.2,4-1.3,6.1
		c0,2.4-0.1,4.7-0.1,7.1c-0.1,7.1,0,14.2,0.1,21.4c0,0.6,0,1.1,0.1,1.7c0.2,2.2,0.8,4.3,1.6,6.1c0.4,0.9,1,1.8,1.5,2.6
		c1.8,2.4,4.2,4.3,7.2,5.3c1.5,0.5,3.1,0.8,4.8,0.9c3.7,0.1,7.5,0.2,11.2,0.3c11.2,0.1,22.5-0.1,33.7-0.1c0.1,0,0.1,0,0.2-0.1
		c0.1-0.1,0.2-0.2,0.4-0.3c0.1-0.1,0.1-0.1,0.2-0.2c0-2.8,0-5.6,0-8.8c-2,0-3.8,0-5.6,0c-5.9,0-11.8,0-17.7,0c-5.9,0-11.8,0-17.7,0
		c-4.3,0-6.9-0.8-8.4-2.9c-0.5-0.7-0.9-1.5-1.1-2.5c-0.2-0.7-0.3-1.4-0.4-2.2s-0.1-1.7-0.1-2.6c0-1.8,0.1-3.6,0.3-6
		c14.6,0,28.8,0,43,0c0-3.6,0-6.5,0-9.8c-14.5,0-28.6,0-43.2,0h0C580.4,23.9,580.4,22.2,580.4,20.6z"/>
	<path d="M554,23.3c0-2.5-0.1-4.9-0.2-7.4c-0.1-1.7-0.4-3.3-0.9-4.8c0.5,1.5,0.8,3.1,0.9,4.8C553.8,18.4,553.9,20.9,554,23.3z"/>
	<path d="M550.7,7c-0.9-1.2-2-2.3-3.2-3.3C548.7,4.7,549.8,5.8,550.7,7z"/>
	<path d="M549.4,56.5c-1.3,1.4-2.9,2.6-4.7,3.4C546.5,59.1,548.1,57.9,549.4,56.5z"/>
	<path d="M550.7,7c0.6,0.8,1.1,1.7,1.6,2.7C551.8,8.7,551.3,7.8,550.7,7z"/>
	<path d="M553.8,45.4c0.2-7.4,0.3-14.7,0.2-22.1C554.1,30.7,554,38.1,553.8,45.4z"/>
	<path d="M554,23.3c0-2.5-0.1-4.9-0.2-7.4c-0.1-1.7-0.4-3.3-0.9-4.8c-0.2-0.5-0.4-1-0.6-1.5c-0.4-0.9-1-1.8-1.6-2.7
		c-0.9-1.2-2-2.3-3.2-3.3c-2.9-2.2-6.5-3.5-10.5-3.5c-4.8-0.1-9.7,0-14.5,0c-9.8,0-19.5,0-29.5,0c0,20.6,0,40.7,0,61.3
		c7.8,0,15.5,0.1,23.1,0.1s15.2,0,22.7-0.3c2.1-0.1,4.1-0.6,5.9-1.4c1.8-0.8,3.4-2,4.7-3.4c2.6-2.9,4.2-6.7,4.4-11.1
		C554,38.1,554.1,30.7,554,23.3z M543.9,45c-0.1,4.7-3.4,6.9-7.6,7c-11,0.2-21.9,0.1-33.5,0.1c0-14.2,0-27.8,0-41.9
		c11.9,0,23.6-0.1,35.2,0.1c3.6,0.1,5.9,2.7,6,6.3C544,26,544.1,35.5,543.9,45z"/>
	<path d="M88,0.6c0,3.2,0,6,0,9.6h0C88,6.6,88,3.8,88,0.6L88,0.6z"/>
	<path d="M88.1,52.2c0,3.5,0,6.3,0,9.3h0C88.1,58.4,88.1,55.7,88.1,52.2L88.1,52.2z"/>
	<path d="M113,10.2L113,10.2c0,14.1,0,27.7,0,41.9h0C113,37.9,113,24.3,113,10.2z"/>
	<path d="M88,10.2c8.6,0,16.7,0,24.9,0h0c0,14.1,0,27.7,0,41.9h0c-8.5,0-16.7,0-24.9,0c0,3.5,0,6.3,0,9.3c20.3,0,40.4,0,60.4,0
		c0-3.3,0-6.2,0-9.6c-8.4,0-16.5,0-24.8,0h0c0-14.1,0-27.7,0-41.9h0c8.5,0,16.7,0,24.8,0c0-3.6,0-6.5,0-9.3c-20.4,0-40.5,0-60.5,0
		C88,3.8,88,6.6,88,10.2z"/>
	<path d="M222.7,54.7c2.4-3.5,3.3-8.1,2.2-12.5c-0.7,0-1.4,0-2.2,0c0.7,0,1.5,0,2.2,0C226,46.6,225.1,51.1,222.7,54.7z"/>
	<path d="M179.6,10.4c-1.1,0.2-1.9,0.6-2.7,1.2C177.7,11,178.6,10.6,179.6,10.4z"/>
	<path d="M175.3,13.7c-0.2,0.4-0.4,0.9-0.5,1.4C174.9,14.6,175.1,14.1,175.3,13.7z"/>
	<path d="M180.5,10.2c0.6-0.1,1.2-0.1,1.8-0.1c3.6,0,7.2,0,10.7,0c-3.6,0-7.2,0-10.7,0C181.6,10.1,181,10.1,180.5,10.2z"/>
	<path d="M214,1c-1.7-0.5-3.6-0.8-5.5-0.8c-4.6,0-9.2,0-13.7-0.1c4.6,0,9.2,0,13.7,0.1C210.4,0.2,212.3,0.5,214,1z"/>
	<path d="M215.2,60.4c-1,0.3-2.2,0.6-3.3,0.6C213,61,214.2,60.8,215.2,60.4z"/>
	<path d="M199.2,61.6c-1.4,0-2.8,0-4.2,0C196.4,61.6,197.8,61.6,199.2,61.6z"/>
	<path d="M176,12.5c0.3-0.4,0.6-0.7,1-0.9C176.6,11.8,176.3,12.1,176,12.5z"/>
	<path d="M215.6,1.6c1.1,0.5,2.1,1,3,1.7C217.7,2.6,216.7,2.1,215.6,1.6z"/>
	<path d="M174.4,30.7c0-2.2,0-4.3,0-6.5C174.4,26.4,174.4,28.5,174.4,30.7z"/>
	<path d="M174.5,44.6c0,0.6,0.1,1.2,0.3,1.7C174.6,45.9,174.5,45.3,174.5,44.6z"/>
	<path d="M177.5,50.7c0.4,0.3,0.9,0.5,1.4,0.7C178.4,51.2,177.9,50.9,177.5,50.7z"/>
	<path d="M174.7,46.4c0.1,0.5,0.3,1,0.5,1.5C175,47.4,174.9,46.9,174.7,46.4z"/>
	<path d="M222.7,54.7c-0.6,0.9-1.3,1.7-2,2.5C221.4,56.4,222.1,55.6,222.7,54.7z"/>
	<path d="M218.6,3.3c-0.9-0.6-1.9-1.2-3-1.7c-0.5-0.2-1.1-0.4-1.7-0.6c-1.7-0.5-3.6-0.8-5.5-0.8c-4.6,0-9.2,0-13.7-0.1
		c-4.6,0-9.2,0-13.7,0.1c-0.5,0-1,0-1.5,0.1c-2,0.2-4,0.8-5.8,1.6c-0.9,0.4-1.7,0.9-2.5,1.5c-0.4,0.3-0.8,0.6-1.1,0.9
		c-0.7,0.6-1.4,1.3-2,2.1c-1.8,2.2-2.9,5-3.1,8c-0.1,1.4-0.1,2.7-0.2,4.1c-0.3,9.6-0.2,19.2,0.2,28.8c0,0.9,0.2,1.7,0.4,2.6
		c0.1,0.4,0.2,0.8,0.4,1.2c0.6,1.6,1.4,3.2,2.5,4.5c0.8,1,1.8,1.9,2.8,2.7c1,0.8,2.2,1.4,3.3,1.9c1.2,0.5,2.4,0.7,3.7,0.8
		c2.8,0.2,5.6,0.3,8.5,0.4s5.7,0.1,8.5,0.2c1.4,0,2.8,0,4.2,0c4.2-0.1,8.5-0.2,12.7-0.5c1.2-0.1,2.3-0.3,3.3-0.6
		c2.1-0.7,3.9-1.8,5.5-3.3c0.8-0.7,1.4-1.6,2-2.5c2.4-3.5,3.3-8.1,2.2-12.5c-0.7,0-1.4,0-2.2,0c-0.7,0-1.5,0-2.2,0
		c-1.5,0-2.9,0.1-4.4,0.2c-0.1,0.9-0.2,1.6-0.4,2.4c-0.2,1.1-0.5,2-0.8,2.8c-0.4,1.1-1,1.9-1.7,2.6c-0.4,0.3-0.8,0.6-1.2,0.8
		c-0.2,0.1-0.4,0.2-0.7,0.3c-0.7,0.3-1.5,0.5-2.5,0.5c-0.3,0-0.6,0-1,0.1c-4.2,0.1-8.5,0.2-12.7,0.2c-4.3,0-8.5-0.1-12.7-0.2
		c-1.3,0-2.5-0.2-3.5-0.6c-0.5-0.2-0.9-0.4-1.4-0.7c-1-0.7-1.8-1.6-2.3-2.7c-0.2-0.5-0.4-1-0.5-1.5c-0.1-0.5-0.2-1.1-0.3-1.7
		c0-0.3,0-0.6,0-1c0-2.2,0-4.3-0.1-6.5c0-2.2,0-4.3,0-6.5s0-4.3,0-6.5c0-2.2,0-4.3,0.1-6.5c0-1,0.1-1.8,0.3-2.6
		c0.1-0.5,0.3-1,0.5-1.4s0.4-0.8,0.7-1.2c0.3-0.4,0.6-0.7,1-0.9c0.7-0.5,1.6-0.9,2.7-1.2c0.3-0.1,0.5-0.1,0.8-0.1
		c0.6-0.1,1.2-0.1,1.8-0.1c3.6,0,7.2,0,10.7,0c3.6,0,7.2,0,10.7,0c3.1,0,5.2,0,6.8,0.3c0.5,0.1,0.9,0.2,1.3,0.3
		c0.3,0.1,0.5,0.2,0.7,0.3c0.3,0.2,0.6,0.4,0.9,0.7c0.7,0.7,1.3,1.8,1.8,3.2c0.1,0.2,0.1,0.4,0.2,0.6c0.1,0.4,0.3,0.8,0.5,1.3
		c0.2,0.7,0.5,1.5,0.8,2.3c2.8,0,5.6,0,8.7,0C225.8,12.1,223.2,6.5,218.6,3.3z"/>
	<path d="M6.2,34c0-5.5,0.1-11,0.1-16.5c0-3.9-0.7-7.4-5.3-7.6c4.6,0.2,5.3,3.7,5.3,7.6C6.3,23,6.2,28.5,6.2,34c0,8.9,0,17.9,0,27.1
		h0C6.2,51.9,6.2,42.9,6.2,34z"/>
	<path d="M18.4,0.9C20.3,0.2,22.4,0,24.6,0C22.4,0,20.3,0.2,18.4,0.9c-2.8,1-5.3,1.9-7.9,1.8C13,2.8,15.6,1.9,18.4,0.9z"/>
	<path d="M31.2,0.1C34.3,0,37.4,0,40.4,0C37.4,0,34.3,0,31.2,0.1c-0.5,0-1.1,0-1.6,0C30.1,0.1,30.7,0.1,31.2,0.1z"/>
	<path d="M57.7,55.9c0-12.3,0-24.7,0-37c0-6.6-2.4-9.1-9-9.1c-4,0-8-0.1-12-0.1c4,0,8,0,12,0.1c6.5,0.1,9,2.5,9,9.1
		C57.7,31.2,57.7,43.6,57.7,55.9c0,1.7,0,3.5,0,5.1h0C57.7,59.4,57.7,57.6,57.7,55.9z"/>
	<path d="M0,0.7c0,3.3,0,6,0,9.2h0C0,6.7,0,3.9,0,0.7L0,0.7z"/>
	<path d="M67.4,15.8C66.9,5.7,59.8,0.1,49.7,0c-3.1,0-6.2,0-9.2,0c-3.1,0-6.2,0-9.2,0.1c-0.5,0-1.1,0-1.6,0c-1.6,0-3.3-0.1-4.9-0.1
		c-2.2,0-4.3,0.2-6.3,0.9c-2.8,1-5.3,1.9-7.9,1.8C8.8,2.7,7.3,2.3,5.6,1.3C4.2,0.5,2.1,0.9,0,0.7c0,3.3,0,6,0,9.2c0.3,0,0.7,0,1,0
		c4.6,0.2,5.3,3.7,5.3,7.6c0,5.5-0.1,11-0.1,16.5c0,8.9,0,17.9,0,27.1c3.3,0,6.2,0,9.9,0c0-14.4,0-28.4,0-42.4
		c0-6.3,2.5-8.9,8.7-8.9c4,0,8-0.1,12-0.1c4,0,8,0,12,0.1c6.5,0.1,9,2.5,9,9.1c0,12.3,0,24.7,0,37c0,1.7,0,3.5,0,5.1
		c3.8,0,6.7,0,9.8,0C67.5,45.7,68,30.7,67.4,15.8z"/>
	<path d="M474.6,61.4L474.6,61.4c0-3.2,0-6.1,0-9.5h0C474.6,55.4,474.6,58.3,474.6,61.4z"/>
	<path d="M449.3,51.9L449.3,51.9c0-14.1,0-27.7,0-41.9h0C449.3,24.3,449.3,37.8,449.3,51.9z"/>
	<path d="M449.3,51.9L449.3,51.9c0-14.1,0-27.7,0-41.9h0c8.6,0,17,0,25.2,0c0-3.6,0-6.5,0-9.4c-20.4,0-40.4,0-60.3,0
		c0,3.3,0,6.2,0,9.6c8.4,0,16.5,0,24.6,0c0,14.2,0,27.9,0,42.1c-8.6,0-16.6,0-24.8,0c0,3.3,0,6.1,0,9.2c20.3,0,40.3,0,60.5,0
		c0-3.2,0-6.1,0-9.5C466,51.9,457.8,51.9,449.3,51.9z"/>
	<path d="M378.9,0.2c-11.5-0.1-23,0-34.5,0c-3.1,0-6.2,0-9.3,0c0,20.8,0,40.9,0,61.1c3.3,0,6.3,0,9.9,0c0-6.4,0-12.3,0-18.1
		c19.1-2.1,19.4-1.9,31.7,11.6c0.3,0.4,0.6,0.8,1,1.1c4.9,5.3,10.9,6.4,17.7,5c0-2.7,0-5.1,0-8.1c-8.5,2.1-11.5-4.1-15.7-9.5
		c1.2-0.4,1.9-0.7,2.7-0.9c8.7-2.3,13.3-7.9,13.5-16.8c0.1-3,0.1-6,0-9C395.5,6.9,388.6,0.3,378.9,0.2z M385.6,27.2
		c-0.1,2-4.1,5.3-6.4,5.4c-11.2,0.6-22.5,0.3-34.1,0.3c0-7.5,0-14.8,0-22.7c11.9,0,23.3,0,34.8,0c0.9,0,2.1,0.3,2.8,0.9
		C388.6,15.4,385.8,21.7,385.6,27.2z"/>
</g>
</svg>
