<?xml version="1.0" encoding="utf-8"?>
<!-- Generator: Adobe Illustrator 18.0.0, SVG Export Plug-In . SVG Version: 6.00 Build 0)  -->
<!DOCTYPE svg PUBLIC "-//W3C//DTD SVG 1.1//EN" "http://www.w3.org/Graphics/SVG/1.1/DTD/svg11.dtd">
<svg version="1.1" id="Layer_1" xmlns="http://www.w3.org/2000/svg" xmlns:xlink="http://www.w3.org/1999/xlink" x="0px" y="0px"
	 viewBox="1.3 0.6 229.7 70.5" enable-background="new 1.3 0.6 229.7 70.5" xml:space="preserve">
<g>
	<g>
		<g>
			<path fill="#686666" d="M127.9,17.4c-10,0-18.2,8.1-18.2,18.2s8.1,18.2,18.2,18.2c10,0,18.2-8.1,18.2-18.2S137.9,17.4,127.9,17.4
				z M127.9,42.7c-3.9,0-7.1-3.2-7.1-7.1s3.2-7.1,7.1-7.1c3.9,0,7.1,3.2,7.1,7.1S131.8,42.7,127.9,42.7z"/>
			<path fill="#686666" d="M212.9,17.4c-10,0-18.2,8.1-18.2,18.2s8.1,18.2,18.2,18.2c10,0,18.2-8.1,18.2-18.2S222.9,17.4,212.9,17.4
				z M212.9,42.7c-3.9,0-7.1-3.2-7.1-7.1s3.2-7.1,7.1-7.1c3.9,0,7.1,3.2,7.1,7.1S216.8,42.7,212.9,42.7z"/>
			<path fill="#686666" d="M88.2,16.7c-5,0-9.2,3-10.8,5.5h-0.1v-4.7h-10v52h10.9V49.2h0.1c2.5,3.4,6.7,4.7,11.2,4.7
				c10,0,16.2-9,16.2-18.9C105.6,24.3,98.7,16.7,88.2,16.7z M87,42.8c-4,0-7.2-3.2-7.2-7.2s3.2-7.2,7.2-7.2c4,0,7.2,3.2,7.2,7.2
				S91.1,42.8,87,42.8z"/>
			<path fill="#686666" d="M179.2,17.6v4.7H179c-1.7-2.5-5.9-5.5-12.1-5.5c-10,0-16.2,9-16.2,18.4c0,10.7,6.9,18.3,17.4,18.3
				c3.3,0,7.5-1.2,10-4.7h0.1v3.4c0,5-3.1,8.7-9.8,8.7c-4.4,0-8.2-1.7-11.5-4.6l-6,9c5.1,4.1,11.5,5.2,17.8,5.2
				c13.7,0,20.5-7.1,20.5-20.5V17.6H179.2z M169.4,42.8c-4,0-7.2-3.2-7.2-7.2s3.2-7.2,7.2-7.2c4,0,7.3,3.2,7.3,7.2
				C176.6,39.6,173.4,42.8,169.4,42.8z"/>
		</g>
		<g>
			<g>
				<g>
					<path fill="#EF5628" d="M28.7,0.6C13.6,0.6,1.3,13.1,1.3,28.4c0,17.2,16.2,31.8,27.4,42.7c11.2-10.9,27.4-25.5,27.4-42.7
						C56.1,13.1,43.8,0.6,28.7,0.6z M28.8,47.5c-7.8,0-14.1-6.3-14.1-14.1c0-7.8,6.3-14.1,14.1-14.1c7.8,0,14.1,6.3,14.1,14.1
						C43,41.2,36.6,47.5,28.8,47.5z"/>
				</g>
			</g>
		</g>
	</g>
</g>
</svg>
