<?xml version="1.0" encoding="UTF-8"?>
<svg width="477px" height="126px" viewBox="0 0 477 126" version="1.1" xmlns="http://www.w3.org/2000/svg" xmlns:xlink="http://www.w3.org/1999/xlink">
    <!-- Generator: Sketch 52.5 (67469) - http://www.bohemiancoding.com/sketch -->
    <title>Agencies/Partners/USA/PSTA-StPet/color</title>
    <desc>Created with Sketch.</desc>
    <g id="Agencies/Partners/USA/PSTA-StPet/color" stroke="none" stroke-width="1" fill="none" fill-rule="evenodd">
        <path d="M98.6108,36.3105 L86.5588,61.1645 L92.0088,61.1645 C100.2008,61.1645 107.3508,59.9575 113.2578,57.5795 C119.2248,55.1785 123.2728,51.8535 125.2878,47.6975 C126.5788,45.0375 126.6708,42.7895 125.5608,41.0185 C123.5768,37.8505 117.9068,36.3105 108.2288,36.3105 L98.6108,36.3105 Z M92.4848,70.0665 L82.2398,70.0665 L67.2338,101.2825 L57.3298,98.1325 C54.0718,97.0285 50.9298,95.9145 47.9808,94.8165 L80.6728,27.4105 L120.3608,27.4105 L121.6528,27.4185 C134.7368,27.5075 143.5498,28.9555 147.8468,31.7215 C152.1888,34.5145 152.7308,39.1045 149.5038,45.7545 C145.8088,53.3715 138.9038,59.3855 128.9808,63.6305 C119.0028,67.9015 106.7228,70.0665 92.4848,70.0665 Z M225.2876,38.6318 C215.0906,35.9968 206.5166,34.6598 199.7986,34.6598 C194.4986,34.6598 189.8356,35.4028 185.9386,36.8658 C181.9616,38.3578 179.3376,40.3658 178.1396,42.8348 C177.0986,44.9808 177.3666,46.8928 178.9356,48.5178 C180.4076,50.0428 183.6636,51.8608 188.8926,54.0738 L195.7336,56.9308 C204.8026,60.7468 210.6976,64.2918 213.2556,67.4668 C215.7646,70.5808 215.9186,74.2908 213.7286,78.8088 C210.5876,85.2878 204.1356,90.4488 194.5536,94.1468 C184.9186,97.8688 173.0326,99.7558 159.2266,99.7558 C150.2626,99.7558 140.0946,98.9798 128.9926,97.4458 L134.4786,86.1358 C145.0586,89.2718 154.8186,90.8608 163.4926,90.8608 C169.6546,90.8608 175.0076,89.9908 179.4036,88.2748 C183.8646,86.5288 186.8676,84.1138 188.3276,81.0978 C189.5386,78.6058 189.3866,76.4548 187.8776,74.7078 C186.4476,73.0548 183.1876,71.1568 177.9076,68.9068 L171.5126,66.2538 C163.0746,62.7038 157.4906,59.2718 154.9136,56.0528 C152.3746,52.8918 152.1446,49.2848 154.2106,45.0248 C156.9996,39.2768 162.7456,34.5858 171.2856,31.0828 C179.8876,27.5508 189.9926,25.7608 201.3216,25.7608 C210.2236,25.7608 219.9876,26.5768 230.3546,28.1868 L225.2876,38.6318 Z M336.2896,36.3105 L295.2446,36.3105 L265.2776,98.1065 L242.4046,98.1065 L272.0316,37.0285 L272.3796,36.3105 L231.3206,36.3105 L235.6406,27.4105 L340.6086,27.4105 L336.2896,36.3105 Z M363.9595,72.3339 L364.4345,72.2509 L359.9855,40.3499 L318.6035,77.6659 L320.0505,77.5639 C335.6815,76.4689 350.4535,74.7089 363.9595,72.3339 Z M434.0155,15.9379 C459.2505,23.5569 476.8745,33.3149 476.8745,39.6669 C476.8745,48.1529 443.2875,65.1049 388.5885,73.4369 L388.1005,73.5109 L391.5325,98.1059 L368.0515,98.1059 L364.9975,76.2879 L364.5235,76.3299 C352.9725,77.3569 341.3005,77.8789 329.8315,77.8789 C326.2515,77.8789 322.6085,77.8419 318.6945,77.7649 L318.4975,77.7609 L295.9345,98.1059 L280.0225,98.1059 L358.4245,27.4099 L381.6675,27.4099 L387.2295,67.2709 L387.7755,67.1219 C414.9205,59.7939 429.8685,50.0439 429.8685,39.6669 C429.8685,21.3829 383.2515,5.8379 317.4425,1.5899 C321.5735,1.4979 325.7135,1.4519 329.8315,1.4519 C378.7375,1.4519 416.0985,10.5279 434.0155,15.9379 Z" id="Combined-Shape" fill="#007CC2"></path>
        <path d="M0,63.3115 C0,52.7195 28.034,37.1355 69.76,24.5325 C98.855,15.7435 159.517,0.9995 238.89,0.9995 C247.958,0.9995 257.111,1.1375 266.221,1.4105 C208.417,4.6895 156.191,13.6825 121.569,26.4175 L80.046,26.4105 L47.04,94.4645 C18.013,83.5535 0,71.6305 0,63.3115 Z M69.269,99.1064 L80.946,75.0284 C98.539,100.1324 171.962,119.9064 266.206,125.2144 C257.142,125.4864 247.995,125.6234 238.89,125.6234 C176.275,125.6234 120.592,117.5634 68.221,101.6454 L69.269,99.1064 Z" id="Combined-Shape" fill="#77CBC4"></path>
    </g>
</svg>