<?xml version="1.0" encoding="utf-8"?>
<!-- Generator: Adobe Illustrator 18.0.0, SVG Export Plug-In . SVG Version: 6.00 Build 0)  -->
<!DOCTYPE svg PUBLIC "-//W3C//DTD SVG 1.1//EN" "http://www.w3.org/Graphics/SVG/1.1/DTD/svg11.dtd">
<svg version="1.1" id="Calque_1" xmlns="http://www.w3.org/2000/svg" xmlns:xlink="http://www.w3.org/1999/xlink" x="0px" y="0px"
	 viewBox="0 0 742 249.1" enable-background="new 0 0 742 249.1" xml:space="preserve">
<g>
	<path fill="#65B32E" d="M140.9,127.3c-15.4-4-34.9-10.3-56.4-18.3c-1.5-0.6-4.5-2-8.1-4.1c-9.4-6.4-14.9-14-13.9-24.5
		c0.8-7.4,5.1-16.6,11.4-22.6c3.3-3.1,7.1-6.4,11.4-9.5c0,0,0,0,0,0c4.3-2.6,8.3-5.2,12.4-7.6c14.6-8.7,29.7-15.9,71.5-23.2
		c5.6-1.3,9.1-5.3,8.5-10.3c-0.5-4.8-5.9-6.9-12.6-6.8c-9.9,0.1-24,2.3-38.7,5.7c-39.9,8.7-64.8,23.6-79.5,36
		c-11,9.2-19,19.1-24.1,29.6c-2.1,4.3-3.3,8.6-3.8,12.9c-2.1,18.4,5.7,33,26.3,45c10.2,5.6,21.8,10.2,34.6,14c0,0,6.4,1.8,11.8,3.3
		c-15.2,6.7-29,13.4-34.7,16.9h0c0,0-64.1,36.2-57.2,66.6c0.2,1,0.5,2,0.9,2.9c0,0,0,0.1,0,0.1c0,0,0.2,0.7,0.8,1.7
		c1.9,3.5,4.9,6.4,8,7.8c0,0,0,0,0,0c6.1,3.7,16.2,7,32.7,6.4c29.7-0.5,59.6-10.2,82-21.8c3-1.5,5.8-3.1,8.4-4.7
		c7.8-4.6,14.4-9.4,19.3-13.9l0,0c41.1-35.7,27.6-62.8,8.9-72.5l0,0c13.8-5.5,28.6-11.2,38.7-14.2c1.5-0.4,2.7-0.6,3.8-1
		c0,0,0,0,0,0c2.9-0.9,5.9-1.4,8.8-1.4c10.1,0,12.5,5.6,7.2,16.7c-2.5,5.2-8.1,14.2-16.9,27l-19.8,28.8c-1.3,1.8-0.8,3.3,1.6,4.5
		c1.7,0.8,3.4,1.2,5.1,1.2c5.6,0,9.7-1.9,12.3-5.7l25.3-36.7c16.6-24,32-36,46.4-36c10.3,0,12.5,6.1,6.7,18.3
		c-0.4,0.9-1,1.9-1.5,2.9c-1.8,3.2-4.3,7.2-7.5,12c-0.9,1.3-1.7,2.6-2.7,4.1c-1.6,2.3-3,4.4-4.3,6.4c0,0.1-0.1,0.1-0.1,0.2
		L244,192.5c-1.3,1.8-0.8,3.3,1.6,4.5c1.7,0.8,3.4,1.2,5.1,1.2c5.6,0,9.7-1.9,12.3-5.7l25.3-36.7c16.5-24,32-36,46.4-36
		c10.3,0,13.4,6.6,6.7,18.3c-3.5,6.2-8.8,16.3-11.1,20.7c-15.3,29.7-7.4,42.5,54.1,40.1c2.7,0.1,5.5-0.1,8.5-0.4c0.1,0,0.2,0,0.3,0
		l0,0c5.7-0.7,11.8-2.1,18.2-4.4c10.3-3.8,19.9-9.4,28.1-16l0,0.1c2.4-2,6.9-4.5,7.8,0.4l0,0c3.8,19.1,27.9,26.1,56.6,15.6
		c30.7-11.2,54.9-38.4,54-60.6c0-0.4-0.1-0.8-0.1-1.1l0.1,0c-0.2-1.6,1.1-3.4,3-1c1.8,2.8,2.4,6.5,1.7,11.1h0
		c-0.8,4-1.6,8.5-2.3,13.6c-1.6,10.8-2.3,14.5-2.6,16.4c-1.3,8.8-0.7,26.4,8.3,26.4c9.6,0,15.5-0.8,29.1-13.9
		c8-7.7,18.9-18.3,31.9-32.6c12.9-14.3,12.5-14.4,19.2-21.5c1.7-1.8,3.2-3.4,4.6-4.8c-0.2,2-0.3,4.4-0.1,7.2
		c0.3,4.1,1.5,8.6,4.1,12.6c-8.5,9.2-14,17.4-16.4,24.7c-1.1,3.3-1.6,6.4-1.6,9.3c0,4.2,1.2,8,3.6,11c4.2,5.5,11.4,7.9,21.1,7.9
		c13.2,0,27.1-4,41.9-11.9c15.5-8.2,27.7-18.5,36.6-31c0,0,3.6-4.7-0.5-7.9c-4.1-3.2-8.4,1.8-8.4,1.8c-6.7,8.4-17.4,16.6-31.9,24.7
		c-14.9,8.3-27.1,12.3-36.2,12.3c-4.3,0-7.4-0.6-9.2-1.4c-1.7-1-2.2-1.7-2.2-3.2c0-0.4,0.1-0.9,0.2-1.4c1-4.1,3.1-9.1,6.5-14.8
		c2.7-4.7,5.1-7.8,6.6-9.2c3.2,1.9,7.6,2.7,13.3,2.7c13.1,0,25.9-5.8,38.5-17.2c6.8-6.5,11.8-14.3,12.4-21c0.1-0.5,0.1-1,0.1-1.5
		c0-0.1,0-0.2,0-0.2c-0.1-3.2-1.3-6.1-3.9-8.4c-2.6-2.3-10.9-8.2-32.1,3h0c-5.9,3.1-12.6,7.8-20.9,14.9c-3.2,2.8-6.2,5.4-9,8.1
		c-0.5-1.5-0.9-3.2-1-4.9c-0.2-3,0.5-7.6,1.9-11.3c0.1-0.3,0.2-0.6,0.3-0.9c0-0.1,0.1-0.3,0.1-0.4c0.1-0.3,0.1-0.6,0.2-0.9
		c0.1-0.6,0.1-1.2,0.1-1.7c0.1-3.2-1.9-6-5-7.3c-1.7-0.8-3.5-1.2-5.4-1.2c-2.1,0-4.3,0.5-6.6,1.4c-2.7,1.1-6.9,4.8-13.8,11.4
		c-6.8,6.6-5.8,5.5-17.4,17.9c-11.6,12.4-20.7,21.7-27.2,27.9c-3.3,3.1-5.9,5.4-7.8,6.9c-0.9,0.8-1.8,1.3-2.3,1.7
		c-5.2,4.1-4.1-1.7-4.1-5.2c0.1-1.8,0.4-5.9,1.3-14.3c0,0,2.1-10.8,1.2-19.7c0.2-20.4-31.3-27.6-50.4-28c-0.1,0-0.2,0-0.3,0
		c-0.4,0-0.8,0-1.2,0l0,0c-7.6,0-16.2,1.5-25.2,4.8c-9.5,3.5-18.4,8.5-26.1,14.4c-6,4.2-8.4,4.6-9.8,0.6c-0.2-0.7-0.3-1.4-0.5-2
		c0-0.2-0.1-0.3-0.1-0.5v0c-5.7-16.7-28.7-22.5-55.8-12.5c-30.7,11.3-54.9,38.4-54,60.6c0.1,2.1,0.4,4,0.9,5.8l0,0
		c1.8,6.1-2.5,7.1-7.1,4.3c-6.1-4.4-7.5-12.8,1-27.7c4.6-9.2,8.7-15.1,10.8-19.4c9.1-19.2,3.8-28.1-17.5-28.1
		c-14.5,0-27.7,3.6-39.5,10.7c-1.7-7.2-8.9-10.7-21.9-10.7c-14.5,0-27.7,3.6-39.5,10.8c-1-5-4.5-8.4-10.5-10.1h0c0,0-0.1,0-0.1,0
		c-3-0.8-6.5-1.2-10.7-1.2c-0.4,0-0.8,0-1.3,0c-15.2,0-30.6,4.6-35.1,5.7c-9.6,2.3-23.3,6.7-37.1,11.3
		C144.7,126.1,143.4,126.4,140.9,127.3z M682.9,138.9c6.3-5,7.2-5.8,18.7-14.1c0.9-0.6,1.9-1.2,2.8-1.7c5.7-3.3,11.8-0.4,7.6,5.4
		c-1.4,1.9-3.9,4.1-8.5,7.5c-10.5,8-19.3,11.8-26,11.8c-0.3,0-0.5,0-0.7,0c-1.5-0.1-2.8-0.2-3.7-0.3
		C674.7,145.8,678,142.8,682.9,138.9z M127.4,194.6c-34,31.4-78.2,35.9-92.4,33.3c-1.5-0.2-2.4-0.6-3.4-1.1c0,0,0,0,0,0
		c-7.1-3.4-4.1-14,1.4-19.1c0.7-0.7,1.4-1.5,2.2-2.2c19.3-19.4,51-38.4,83.1-52.2c1,0.5,4.3,1.9,5.3,2.4
		C135.9,162,148,175.5,127.4,194.6z M410.9,181.2c-20.9,7.7-38.3,1.6-38.9-13.5c-0.6-15.1,15.9-33.6,36.8-41.3
		c20.9-7.7,38.3-1.6,38.9,13.5C448.3,155,431.8,173.5,410.9,181.2z M503.3,181.2c-20.9,7.7-38.3,1.6-38.9-13.5
		c-0.6-15.1,15.9-33.6,36.8-41.3c5.1-1.9,10-2.9,14.5-3.2c0.2,0,0.4,0,0.6,0c13.6-0.7,23.4,5.5,23.8,16.8
		C540.7,155,524.2,173.5,503.3,181.2z"/>
</g>
<path fill="#7CB22A" d="M141.6,126.9c-15.4-4-34.9-10.3-56.4-18.3c-1.5-0.6-4.5-2-8.1-4.1c-9.4-6.4-14.9-14-13.9-24.5
	c0.8-7.4,5.1-16.6,11.4-22.6c3.3-3.1,7.1-6.4,11.4-9.5c0,0,0,0,0,0c4.3-2.6,8.3-5.2,12.4-7.6c14.6-8.7,29.7-15.9,71.5-23.2
	c5.6-1.3,9.1-5.3,8.5-10.3c-0.5-4.8-5.9-6.9-12.6-6.8c-9.9,0.1-24,2.3-38.7,5.7c-39.9,8.7-64.8,23.6-79.5,36
	c-11,9.2-19,19.1-24.1,29.6c-2.1,4.3-3.3,8.6-3.8,12.9c-2.1,18.4,5.7,33,26.3,45c10.2,5.6,21.8,10.2,34.6,14c0,0,6.4,1.8,11.8,3.3
	c-15.2,6.7-29,13.4-34.7,16.9h0c0,0-64.1,36.2-57.2,66.6c0.2,1,0.5,2,0.9,2.9c0,0,0,0.1,0,0.1c0,0,0.2,0.7,0.8,1.7
	c1.9,3.5,4.9,6.4,8,7.8c0,0,0,0,0,0c6.1,3.7,16.2,7,32.7,6.4c29.7-0.5,59.6-10.2,82-21.8c3-1.5,5.8-3.1,8.4-4.7
	c7.8-4.6,14.4-9.4,19.3-13.9l0,0c41.1-35.7,27.6-62.8,8.9-72.5l0,0c13.8-5.5,28.6-11.2,38.7-14.2c1.5-0.4,2.7-0.6,3.8-1c0,0,0,0,0,0
	c2.9-0.9,5.9-1.4,8.8-1.4c10.1,0,12.5,5.6,7.2,16.7c-2.5,5.2-8.1,14.2-16.9,27l-19.8,28.8c-1.3,1.8-0.8,3.3,1.6,4.5
	c1.7,0.8,3.4,1.2,5.1,1.2c5.6,0,9.7-1.9,12.3-5.7l25.3-36.7c16.6-24,32-36,46.4-36c10.3,0,12.5,6.1,6.7,18.3c-0.4,0.9-1,1.9-1.5,2.9
	c-1.8,3.2-4.3,7.2-7.5,12c-0.9,1.3-1.7,2.6-2.7,4.1c-1.6,2.3-3,4.4-4.3,6.4c0,0.1-0.1,0.1-0.1,0.2l-19.8,28.8
	c-1.3,1.8-0.8,3.3,1.6,4.5c1.7,0.8,3.4,1.2,5.1,1.2c5.6,0,9.7-1.9,12.3-5.7l25.3-36.7c16.5-24,32-36,46.4-36
	c10.3,0,13.4,6.6,6.7,18.3c-3.5,6.2-8.8,16.3-11.1,20.7c-15.3,29.7-7.4,42.5,54.1,40.1c2.7,0.1,5.5-0.1,8.5-0.4c0.1,0,0.2,0,0.3,0
	l0,0c5.7-0.7,11.8-2.1,18.2-4.4c10.3-3.8,19.9-9.4,28.1-16l0,0.1c2.4-2,6.9-4.5,7.8,0.4l0,0c3.8,19.1,27.9,26.1,56.6,15.6
	c30.7-11.2,54.9-38.4,54-60.6c0-0.4-0.1-0.8-0.1-1.1l0.1,0c-0.2-1.6,1.1-3.4,3-1c1.8,2.8,2.4,6.5,1.7,11.1h0
	c-0.8,4-1.6,8.5-2.3,13.6c-1.6,10.8-2.3,14.5-2.6,16.4c-1.3,8.8-0.7,26.4,8.3,26.4c9.6,0,15.5-0.8,29.1-13.9
	c8-7.7,18.9-18.3,31.9-32.6c12.9-14.3,12.5-14.4,19.2-21.5c1.7-1.8,3.2-3.4,4.6-4.8c-0.2,2-0.3,4.4-0.1,7.2
	c0.3,4.1,1.5,8.6,4.1,12.6c-8.5,9.2-14,17.4-16.4,24.7c-1.1,3.3-1.6,6.4-1.6,9.3c0,4.2,1.2,8,3.6,11c4.2,5.5,11.4,7.9,21.1,7.9
	c13.2,0,27.1-4,41.9-11.9c15.5-8.2,27.7-18.5,36.6-31c0,0,3.6-4.7-0.5-7.9c-4.1-3.2-8.4,1.8-8.4,1.8c-6.7,8.4-17.4,16.6-31.9,24.7
	c-14.9,8.3-27.1,12.3-36.2,12.3c-4.3,0-7.4-0.6-9.2-1.4c-1.7-1-2.2-1.7-2.2-3.2c0-0.4,0.1-0.9,0.2-1.4c1-4.1,3.1-9.1,6.5-14.8
	c2.7-4.7,5.1-7.8,6.6-9.2c3.2,1.9,7.6,2.7,13.3,2.7c13.1,0,25.9-5.8,38.5-17.2c6.8-6.5,11.8-14.3,12.4-21c0.1-0.5,0.1-1,0.1-1.5
	c0-0.1,0-0.2,0-0.2c-0.1-3.2-1.3-6.1-3.9-8.4c-2.6-2.3-10.9-8.2-32.1,3h0c-5.9,3.1-12.6,7.8-20.9,14.9c-3.2,2.8-6.2,5.4-9,8.1
	c-0.5-1.5-0.9-3.2-1-4.9c-0.2-3,0.5-7.6,1.9-11.3c0.1-0.3,0.2-0.6,0.3-0.9c0-0.1,0.1-0.3,0.1-0.4c0.1-0.3,0.1-0.6,0.2-0.9
	c0.1-0.6,0.1-1.2,0.1-1.7c0.1-3.2-1.9-6-5-7.3c-1.7-0.8-3.5-1.2-5.4-1.2c-2.1,0-4.3,0.5-6.6,1.4c-2.7,1.1-6.9,4.8-13.8,11.4
	c-6.8,6.6-5.8,5.5-17.4,17.9c-11.6,12.4-20.7,21.7-27.2,27.9c-3.3,3.1-5.9,5.4-7.8,6.9c-0.9,0.8-1.8,1.3-2.3,1.7
	c-5.2,4.1-4.1-1.7-4.1-5.2c0.1-1.8,0.4-5.9,1.3-14.3c0,0,2.1-10.8,1.2-19.7c0.2-20.4-31.3-27.6-50.4-28c-0.1,0-0.2,0-0.3,0
	c-0.4,0-0.8,0-1.2,0l0,0c-7.6,0-16.2,1.5-25.2,4.8c-9.5,3.5-18.4,8.5-26.1,14.4c-6,4.2-8.4,4.6-9.8,0.6c-0.2-0.7-0.3-1.4-0.5-2
	c0-0.2-0.1-0.3-0.1-0.5v0c-5.7-16.7-28.7-22.5-55.8-12.5c-30.7,11.3-54.9,38.4-54,60.6c0.1,2.1,0.4,4,0.9,5.8l0,0
	c1.8,6.1-2.5,7.1-7.1,4.3c-6.1-4.4-7.5-12.8,1-27.7c4.6-9.2,8.7-15.1,10.8-19.4c9.1-19.2,3.8-28.1-17.5-28.1
	c-14.5,0-27.7,3.6-39.5,10.7c-1.7-7.2-8.9-10.7-21.9-10.7c-14.5,0-27.7,3.6-39.5,10.8c-1-5-4.5-8.4-10.5-10.1h0c0,0-0.1,0-0.1,0
	c-3-0.8-6.5-1.2-10.7-1.2c-0.4,0-0.8,0-1.3,0c-15.2,0-30.6,4.6-35.1,5.7c-9.6,2.3-23.3,6.7-37.1,11.3
	C145.4,125.8,144.2,126.1,141.6,126.9z M683.6,138.6c6.3-5,7.2-5.8,18.7-14.1c0.9-0.6,1.9-1.2,2.8-1.7c5.7-3.3,11.8-0.4,7.6,5.4
	c-1.4,1.9-3.9,4.1-8.5,7.5c-10.5,8-19.3,11.8-26,11.8c-0.3,0-0.5,0-0.7,0c-1.5-0.1-2.8-0.2-3.7-0.3
	C675.4,145.5,678.7,142.4,683.6,138.6z M128.1,194.2c-34,31.4-78.2,35.9-92.4,33.3c-1.5-0.2-2.4-0.6-3.4-1.1c0,0,0,0,0,0
	c-7.1-3.4-4.1-14,1.4-19.1c0.7-0.7,1.4-1.5,2.2-2.2c19.3-19.4,51-38.4,83.1-52.2c1,0.5,4.3,1.9,5.3,2.4
	C136.7,161.6,148.7,175.2,128.1,194.2z M411.6,180.8c-20.9,7.7-38.3,1.6-38.9-13.5c-0.6-15.1,15.9-33.6,36.8-41.3
	c20.9-7.7,38.3-1.6,38.9,13.5C449,154.6,432.5,173.1,411.6,180.8z M504,180.8c-20.9,7.7-38.3,1.6-38.9-13.5
	c-0.6-15.1,15.9-33.6,36.8-41.3c5.1-1.9,10-2.9,14.5-3.2c0.2,0,0.4,0,0.6,0c13.6-0.7,23.4,5.5,23.8,16.8
	C541.4,154.6,524.9,173.1,504,180.8z"/>
</svg>
