<?xml version="1.0" encoding="UTF-8"?>
<svg width="360px" height="162px" viewBox="0 0 360 162" version="1.1" xmlns="http://www.w3.org/2000/svg" xmlns:xlink="http://www.w3.org/1999/xlink">
    <!-- Generator: Sketch 52.5 (67469) - http://www.bohemiancoding.com/sketch -->
    <title>Agencies/Partners/Canada/MTL/STM/color</title>
    <desc>Created with Sketch.</desc>
    <g id="Agencies/Partners/Canada/MTL/STM/color" stroke="none" stroke-width="1" fill="none" fill-rule="evenodd">
        <path d="M136.6128,101.93481 C160.9128,106.01181 173.6379,112.69521 173.6226,130.89951 C173.6226,140.21181 169.7481,147.85011 163.1115,153.10881 C156.4677,158.38461 147.1077,161.29521 136.0809,161.29521 C120.3966,161.28711 104.6979,153.62631 98.7264,139.94541 C98.2107,138.81141 97.8966,137.65311 97.8966,136.51011 C97.8894,134.00631 99.4383,131.66541 103.2111,129.90501 L105.2613,128.95731 C106.8813,128.14371 108.2979,127.75311 109.5813,127.75311 C112.1634,127.75311 114.0579,129.37221 115.7634,131.94801 C121.5783,140.56461 129.1779,143.02881 137.0349,143.04501 C141.4179,143.04501 145.4796,142.02801 148.4064,140.11011 C151.3332,138.19311 153.1413,135.43821 153.1413,131.84541 C153.1332,129.01311 152.1315,126.89991 149.2677,125.11521 C146.3949,123.33861 141.6375,121.99311 134.2809,120.95991 C110.7558,117.83691 99.306,110.34801 99.3294,93.27141 C99.3294,87.04971 101.9511,79.96671 107.6013,74.43351 C113.2596,68.90031 121.9464,64.93311 134.0145,64.93311 C148.9077,64.94841 162.9945,72.26631 167.8626,82.79181 C168.3783,83.93481 168.6915,85.08501 168.6996,86.22801 C168.7077,88.73181 167.1579,91.07271 163.4166,92.81691 L161.6481,93.78711 C160.0362,94.52331 158.643,94.97781 157.2966,94.97781 C155.0979,94.98501 153.1809,93.74841 151.0128,90.97821 C146.4813,85.35861 140.6115,83.19951 133.2234,83.19141 C129.3192,83.19141 125.9379,84.16971 123.5592,85.79691 C121.1796,87.44121 119.8026,89.67951 119.8026,92.32371 C119.8179,95.03991 121.0626,96.87951 123.8247,98.40501 C126.5796,99.89991 130.8447,100.97901 136.6128,101.93481 Z M232.6698,146.84841 L233.1396,149.07141 C233.3745,150.07221 233.4681,150.98031 233.4681,151.80201 C233.4915,155.80161 230.9085,157.68711 227.9664,158.72841 C223.3017,160.34841 218.4966,160.65351 214.9749,160.65351 C197.1081,160.37181 188.9694,147.93561 189.0234,125.17821 L189.0234,85.09311 L181.1664,85.09311 C179.1945,85.09311 177.363,84.54501 176.0409,83.20671 C174.7179,81.86031 173.943,79.75521 173.943,76.75821 L173.943,74.52801 C173.943,71.53821 174.7179,69.43311 176.0409,68.08671 C177.363,66.74121 179.1945,66.20841 181.1664,66.20841 L189.3447,66.20841 L189.3447,55.16631 C189.4779,49.78161 192.2166,47.66031 195.2775,46.08801 L200.3562,43.53651 C201.4677,42.96501 202.6179,42.68331 203.7204,42.68331 C205.3647,42.68331 206.9136,43.34121 208.0332,44.58501 C209.1366,45.82971 209.8179,47.64501 209.8179,49.92201 L209.8179,66.20841 L224.343,66.20841 C226.3149,66.20841 228.1464,66.74121 229.4694,68.08671 C230.7915,69.43311 231.5664,71.53821 231.5664,74.52801 L231.5664,76.75821 C231.5664,79.75521 230.7915,81.86031 229.4694,83.20671 C228.1464,84.54501 226.3149,85.09311 224.343,85.09311 L209.8179,85.09311 L209.8179,123.43311 C209.8179,130.06971 210.3651,134.45991 211.7115,137.10501 C213.0651,139.73481 215.1081,140.73561 218.5128,140.75991 C219.9762,140.75991 221.6664,140.55651 223.6311,140.18841 C224.28,140.05521 224.9379,139.98501 225.5715,139.98501 C228.7881,139.96161 231.6204,141.96501 232.6698,146.84841 Z M351.4689,73.36971 C356.9949,78.91011 360.0081,87.08841 360,97.55181 L360,151.69221 C360,154.69011 359.2251,156.78711 357.903,158.13351 C356.58,159.48711 354.7485,160.02801 352.7766,160.01991 L346.4379,160.02801 C344.457,160.02801 342.6183,159.48711 341.3043,158.13351 C339.9813,156.78711 339.2064,154.69011 339.2064,151.69311 L339.2064,100.89441 C339.1596,89.60841 333.3987,84.97521 325.1502,84.93651 C316.9017,84.97521 311.1417,89.60841 311.103,100.89441 L311.103,152.01441 C311.103,154.84671 310.32,156.88161 308.997,158.18031 C307.6749,159.48711 305.8515,160.02801 303.8796,160.02801 L297.5328,160.01991 C295.56,160.02801 293.7285,159.48711 292.4064,158.13351 C291.0834,156.78711 290.3085,154.69011 290.3085,151.69221 L290.3085,100.89351 C290.2617,89.60841 284.5017,84.97521 276.2613,84.93651 C268.0119,84.97521 262.2528,89.60841 262.2051,100.89351 L262.2051,151.69221 C262.2051,154.69011 261.4311,156.78711 260.1081,158.13351 C258.7851,159.48711 256.9626,160.02801 254.9817,160.02801 L248.6349,160.01991 C246.6621,160.02801 244.8315,159.48711 243.5013,158.13351 C242.1864,156.78711 241.4115,154.69011 241.4115,151.69221 L241.4115,74.52801 C241.4115,71.53821 242.1864,69.43311 243.5013,68.08671 C244.8315,66.74121 246.6621,66.20841 248.6349,66.20841 L253.557,66.20841 C258.2838,66.20031 260.3664,69.67521 261.3843,73.15821 C266.1732,68.58801 271.26,64.91781 281.4966,64.93311 C287.523,64.93311 297.5796,67.41441 303.7545,76.10841 C310.257,68.52501 318.24,64.92501 328.0068,64.93311 C337.9311,64.93311 345.9366,67.82121 351.4689,73.36971 Z" id="stm" fill="#00AEEF"></path>
        <path d="M74.44251,28.13085 L74.41101,28.11465 L74.45061,28.13445 C77.06421,29.44665 79.21161,31.39515 80.75241,33.74235 C79.21071,31.39605 77.06061,29.44755 74.44251,28.13085 M110.70801,28.13445 L59.80761,2.63745 C57.48291,1.46385 55.00251,0.90045 52.56801,0.90045 C46.59831,0.90045 40.84731,4.21695 38.01321,9.89685 L38.01141,9.89595 C36.81441,12.26745 36.25101,14.79555 36.26721,17.29935 C36.32211,23.21595 39.60081,28.91385 45.23571,31.75425 L67.05441,42.63255 L45.23571,53.54235 C39.60081,56.35125 36.32211,62.02575 36.26721,67.94235 C36.25101,70.43895 36.81441,72.97425 38.01141,75.36105 L38.03571,75.38445 L74.44251,57.16575 C79.93431,54.45855 83.40111,48.80295 83.40291,42.63885 C83.40291,42.64065 83.40381,42.64245 83.40381,42.64425 C83.40381,48.79575 79.93611,54.46125 74.45061,57.16935 L38.03571,75.38805 C40.86081,81.10125 46.61271,84.38085 52.56801,84.38085 C55.01061,84.38085 57.49101,83.83275 59.80761,82.66635 L110.70801,57.16935 C116.28081,54.46125 119.72421,48.79575 119.72421,42.64425 C119.72421,36.42255 116.28081,30.88935 110.70801,28.13445" id="bleu" fill="#00AEEF"></path>
        <path d="M1.76922,75.38832 C4.59432,81.10152 10.34622,84.38022 16.30152,84.38022 C18.74322,84.38022 21.22452,83.83302 23.54112,82.66662 L74.44242,57.16962 C80.01342,54.46152 83.45772,48.79602 83.45772,42.64452 C83.45772,36.42282 80.01342,30.88962 74.44242,28.13472 L23.54112,2.63772 C21.21642,1.46322 18.73602,0.89982 16.30152,0.89982 C10.33182,0.89982 4.58082,4.21722 1.74762,9.89712 L1.74582,9.89622 C0.54792,12.26772 -0.01548,14.79492 0.00072,17.29962 C0.05562,23.21622 3.33432,28.91322 8.96922,31.75452 L30.78792,42.63192 L8.96922,53.54262 C3.33432,56.35152 0.05562,62.02512 0.00072,67.94262 C-0.01548,70.43832 0.54792,72.97452 1.74582,75.36132 L1.76922,75.38472" id="jaune" fill="#FFE512"></path>
        <path d="M38.03553,75.38868 L38.01213,75.36528 C36.81513,72.97758 36.25083,70.44228 36.26703,67.94568 C36.32193,62.02908 39.60063,56.35548 45.23553,53.54568 L67.05423,42.63588 L45.23553,31.75758 C39.60063,28.91718 36.32193,23.22018 36.26703,17.30358 C36.25083,14.79888 36.81513,12.27168 38.01213,9.90018 L74.44233,28.13508 C79.93593,30.89718 83.40363,36.42228 83.40363,42.63588 C83.40363,48.80358 79.93593,54.46188 74.44233,57.16908 L38.03553,75.38868 Z" id="vert" fill="#00A94F"></path>
    </g>
</svg>