<?xml version="1.0" encoding="utf-8"?>
<!-- Generator: Adobe Illustrator 18.0.0, SVG Export Plug-In . SVG Version: 6.00 Build 0)  -->
<!DOCTYPE svg PUBLIC "-//W3C//DTD SVG 1.1//EN" "http://www.w3.org/Graphics/SVG/1.1/DTD/svg11.dtd">
<svg version="1.1" id="Layer_1" xmlns="http://www.w3.org/2000/svg" xmlns:xlink="http://www.w3.org/1999/xlink" x="0px" y="0px"
	 viewBox="57.7 292 440.6 220.3" enable-background="new 57.7 292 440.6 220.3" xml:space="preserve">
<g display="none">
	<path display="inline" fill="#0A9E01" d="M88.5,440v44.7H77.4V440h-16v-11h43.1v11H88.5z"/>
	<path display="inline" fill="#0A9E01" d="M138.1,467.4h-25c0.4,5.8,4.6,8,8.6,7.9c3,0,5.6-1.1,7.2-2.9l7.8,6.4
		c-3.3,4.3-9.4,6.8-15,6.8c-12,0-19.7-8.5-19.7-21.7c0-12.8,8-21.8,18.6-21.8c11.2,0,17.4,9.8,17.4,21.8
		C138.3,465.3,138.1,466.5,138.1,467.4L138.1,467.4z M120.2,451.6c-4,0-6.4,3.3-6.8,7.3h14.3c-0.3-3.8-2.5-7.4-7.4-7.5h-0.1
		L120.2,451.6L120.2,451.6z"/>
	<path display="inline" fill="#0A9E01" d="M164.5,485.6c-10.9,0-19.6-8.9-19.6-21.7c0-12.8,8.4-21.8,20-21.8c8,0,13.2,4,16.5,9.2
		l-7.2,7.3c-2.5-3.5-5.1-6-9.6-6c-5.2,0-8.7,4.4-8.7,11.3c0,6.7,3.4,11,8.6,11c4.3,0,7-1.9,9.9-5.3l7,6.6c-3.9,5.3-8.6,9.2-16.9,9.2
		h-0.1L164.5,485.6L164.5,485.6z"/>
	<path display="inline" fill="#0A9E01" d="M215,484.7v-22.6c0-7.5-2.5-9.7-7.1-9.7c-4.5,0-7.2,2.2-7.2,9.5v22.8h-11v-52.5l11-5.5v19
		c1.9-2,5.4-3.7,9.8-3.7c10.7,0,15.3,7.3,15.3,19.1v23.5H215z"/>
	<path display="inline" fill="#343C34" d="M269.9,445.3c-2-3.8-5.2-6.1-10.2-6.1c-8.4,0-13.1,7.3-13.1,17.7
		c0,10.1,4.9,17.8,13.2,17.7c5,0,8-2.1,10.9-7.1l9.4,5.6c-3.8,7.9-10.5,12.6-20.6,12.5c-14.6,0-24.3-11.1-24.3-28.7
		c0-16.9,10.2-28.7,24.7-28.7c10.5,0,16.8,5.2,20.5,12.3L269.9,445.3z"/>
	<path display="inline" fill="#343C34" d="M310.8,455.8c-1.7-1.6-3.9-2.7-6.4-2.7c-4.3,0-7.1,1.8-7.1,9.1v22.6h-11V443h11v2.8
		c1.9-2,4.7-3.7,8.6-3.7c3.6,0,6.4,1.5,7.6,2.9L310.8,455.8z"/>
	<path display="inline" fill="#343C34" d="M345.2,484.7V482c-1.9,2-5.4,3.7-9.8,3.7c-10.7,0-15.4-7.3-15.4-19.1V443h11v22.6
		c0,7.3,2.4,9.8,7,9.7c4.5,0,7.2-2.2,7.2-9.5V443h11v41.8H345.2z"/>
	<path display="inline" fill="#343C34" d="M392.1,484.7v-22.6c0-7.5-2.5-9.7-7.1-9.7c-4.5,0-7.2,2.2-7.2,9.5v22.8h-11V443h11v2.8
		c1.9-2,5.4-3.7,9.8-3.7c10.7,0,15.3,7.3,15.3,19.1v23.5H392.1z"/>
	<path display="inline" fill="#343C34" d="M430.8,485.6c-10.9,0-19.6-8.9-19.6-21.7c0-12.8,8.4-21.8,20.1-21.8c8,0,13.2,4,16.5,9.2
		l-7.2,7.3c-2.5-3.5-5.1-6-9.5-6c-5.3,0-8.7,4.4-8.7,11.3c0,6.7,3.4,11,8.6,11c4.3,0,7-1.9,9.9-5.3l7,6.6c-3.9,5.3-8.7,9.2-16.9,9.2
		h-0.1L430.8,485.6L430.8,485.6z"/>
	<path display="inline" fill="#343C34" d="M481.3,484.7v-22.6c0-7.5-2.5-9.7-7.1-9.7c-4.5,0-7.2,2.2-7.2,9.5v22.8h-11v-52.5l11-5.5
		v19c1.9-2,5.4-3.7,9.8-3.7c10.6,0,15.3,7.3,15.3,19.1v23.5H481.3z"/>
</g>
<g>
	<polygon fill="#0A9E01" points="278,292 278,365.4 204.6,365.4 204.6,512.3 131.1,512.3 131.1,365.4 57.7,365.4 57.7,292 	"/>
	<rect x="351.4" y="292" fill="#0A9E01" width="146.9" height="73.4"/>
	<polygon fill="#0A9E01" points="351.4,365.4 351.4,438.8 498.3,438.8 498.3,512.3 278,512.3 278,365.4 	"/>
</g>
</svg>
