<?xml version="1.0" encoding="UTF-8"?>
<svg width="584px" height="82px" viewBox="0 0 584 82" version="1.1" xmlns="http://www.w3.org/2000/svg" xmlns:xlink="http://www.w3.org/1999/xlink">
    <!-- Generator: Sketch 50.2 (55047) - http://www.bohemiancoding.com/sketch -->
    <title>The_New_York_Times</title>
    <desc>Created with Sketch.</desc>
    <defs></defs>
    <g id="The_New_York_Times" stroke="none" stroke-width="1" fill="none" fill-rule="evenodd">
        <g id="Group-3" fill="#1A1919">
            <path d="M36.086,0.094 C37.72,0.238 40.284,1.042 42.216,2.735 C44.268,4.728 44.736,7.752 44.017,10.501 C43.377,12.95 42.661,14.223 40.162,15.916 C37.636,17.62 34.582,17.476 34.582,17.476 L34.582,28.087 L39.744,32.265 L34.581,36.43 L34.582,50.885 C34.582,50.885 39.754,47.92 42.962,41.281 C42.962,41.281 43.094,40.92 43.396,40.236 C43.681,42.014 43.518,45.615 41.506,50.236 C39.99,53.717 37.233,57.066 33.775,58.975 C27.647,62.373 23.052,62.697 18.125,61.676 C12.356,60.488 7.117,57.246 3.541,51.592 C1.028,47.619 -0.097,42.986 0.006,38.003 C0.208,28.219 7.486,19.781 15.887,16.635 C16.91,16.252 17.317,16 18.768,15.867 C18.099,16.324 17.326,16.912 16.377,17.536 C13.672,19.313 11.354,22.854 10.365,25.579 L26.671,18.304 L26.671,41.102 L13.521,47.691 C15.02,49.768 19.572,52.914 23.466,53.357 C30.091,54.09 33.978,51.197 33.978,51.197 L33.977,36.43 L28.843,32.265 L33.98,28.1 L33.98,17.476 C31.18,17.152 27.778,16.228 25.789,15.735 C22.865,15.015 13.114,12.278 11.581,12.05 C10.05,11.822 8.16,11.894 7.017,12.915 C5.873,13.947 5.165,15.759 5.652,17.392 C5.927,18.316 6.563,18.856 7.044,19.384 C7.044,19.384 6.481,19.336 5.461,18.724 C3.62,17.62 2.22,15.459 2.051,12.794 C1.835,9.301 3.273,6.156 6.154,4.044 C8.657,2.435 11.488,1.402 14.78,1.871 C19.582,2.555 26.039,5.268 31.79,6.648 C34.018,7.189 35.743,7.369 37.309,6.456 C38.039,5.928 39.322,4.571 38.273,2.771 C37.049,0.658 34.702,0.706 32.714,0.334 C34.425,-0.026 34.8,-0.026 36.086,0.094 Z M16.697,45.422 L16.697,23.406 L10.076,26.359 C10.074,26.359 8.388,30.14 8.683,35.626 C8.916,39.912 11.312,45.039 13.153,47.187 L16.697,45.422 Z" id="Fill-1"></path>
        </g>
        <path d="M99.332,22.337 C99.332,22.337 94.336,25.363 90.976,27.367 C87.617,29.36 83.11,31.557 83.11,31.557 L83.11,52.564 L80.105,54.979 L80.503,55.445 L83.435,53.082 L92.624,61.389 L108.594,48.736 L108.216,48.279 L99.39,55.205 L92.136,48.412 L92.137,45.879 L106.708,35.158 L99.332,22.337 Z M99.544,39.684 L92.136,45.111 L92.136,27.055 L99.544,39.684 Z" id="Fill-4" fill="#1A1919"></path>
        <path d="M57.471,69.287 C59.568,69.803 63.267,70.092 67.727,67.857 C72.665,65.385 75.148,60.139 75.115,54.762 L75.324,47.139 L75.325,30.488 L78.482,28.076 L78.114,27.607 L75.007,29.948 L67.837,21.978 L58.639,29.876 L58.639,3.035 L47.146,11.918 C47.657,12.242 49.286,12.543 49.334,14.835 L49.334,52.434 L44.467,56.047 L44.8,56.551 L47.15,54.797 L53.695,60.883 L63.998,52.686 L63.624,52.217 L61.202,54.137 L58.639,51.592 L58.664,30.645 L61.666,28.087 L66.142,33.646 C66.142,33.646 66.133,47.211 66.145,51.713 C66.112,56.514 66.096,62.504 63.573,65.397 C61.051,68.303 60.04,68.531 57.471,69.287" id="Fill-5" fill="#1A1919"></path>
        <path d="M128.975,67.391 C124.859,66.922 123.13,64.426 123.177,62.457 C123.207,61.195 124.352,58.723 126.855,58.387 C129.356,58.039 131.913,59.215 134.072,61.748 L143.579,51.244 L143.121,50.836 L140.567,53.693 C137.973,50.74 134.292,48.879 130.625,48.34 L130.625,16.335 L155.319,61.316 C155.319,61.316 155.556,61.832 156.571,61.832 C157.445,61.832 157.235,61.123 157.235,61.123 L157.231,15.855 C159.237,15.771 162.301,14.667 163.788,13.143 C168.543,8.257 166.601,2.927 166.079,2.411 C165.788,4.74 163.997,7.081 161.008,7.092 C157.086,7.104 154.695,4.211 154.695,4.211 L145.195,15.039 L145.648,15.447 L148.37,12.338 C151.694,15.399 154.121,15.687 156.631,15.855 L156.629,42.121 L138.312,8.845 C136.655,6.096 134.128,3.683 130.17,3.647 C125.62,3.623 122.363,7.632 121.974,11.089 C121.534,14.991 122.021,15.891 122.021,15.891 C122.021,15.891 122.691,11.546 125.38,11.582 C127.795,11.618 129.052,13.838 130.021,15.507 L130.021,25.146 C127.53,25.314 121.045,25.603 120.649,32.349 C120.62,34.858 122.178,37.487 123.543,38.375 C125.298,39.527 126.667,39.503 126.667,39.503 C126.667,39.503 124.564,38.387 125.194,36.178 C125.757,34.198 129.875,33.874 130.024,34.702 L130.023,48.303 C128.042,48.279 121.697,48.496 118.835,53.934 C117.11,57.223 117.211,60.897 119.055,63.488 C120.558,65.602 123.651,68.303 128.975,67.391" id="Fill-6" fill="#1A1919"></path>
        <path d="M181.13,22.337 C181.13,22.337 176.133,25.363 172.773,27.367 C169.413,29.36 164.908,31.557 164.908,31.557 L164.908,52.564 L161.902,54.979 L162.301,55.445 L165.232,53.082 L174.421,61.389 L190.392,48.736 L190.013,48.279 L181.188,55.205 L173.933,48.412 L173.934,45.879 L188.506,35.158 L181.13,22.337 Z M181.343,39.684 L173.933,45.111 L173.933,27.055 L181.343,39.684 Z" id="Fill-7" fill="#1A1919"></path>
        <path d="M203.453,61.545 L195.623,55.037 L192.184,57.535 L191.834,57.043 L195.333,54.486 L195.333,36.298 C195.501,28.808 188.472,30.668 188.853,22.722 C189.021,19.229 192.402,16.587 194.108,15.712 C195.935,14.787 197.912,14.787 197.912,14.787 C197.912,14.787 194.707,16.791 195.485,19.672 C196.684,24.114 204.278,24.51 204.421,30.428 L204.421,51.064 L210.029,55.555 L211.503,54.402 L211.503,32.061 L208.479,29.06 L216.264,22.169 L223.375,28.472 L220.662,31.413 L220.662,51.209 L227.322,56.707 L228.506,55.949 L228.506,32.121 L225.477,29.288 L233.277,22.158 L240.569,28.184 L243.481,25.603 L243.875,26.059 L237.319,31.821 L237.319,51.244 L220.544,61.592 L211.964,54.797 L203.453,61.545" id="Fill-8" fill="#1A1919"></path>
        <path d="M546.609,22.337 C546.609,22.337 541.611,25.363 538.253,27.367 C534.892,29.36 530.386,31.557 530.386,31.557 L530.386,52.564 L527.38,54.979 L527.781,55.445 L530.712,53.082 L539.902,61.389 L555.871,48.736 L555.494,48.279 L546.667,55.205 L539.412,48.412 L539.412,45.879 L553.986,35.158 L546.609,22.337 Z M546.822,39.684 L539.412,45.111 L539.412,27.055 L546.822,39.684 Z" id="Fill-9" fill="#1A1919"></path>
        <polyline id="Fill-10" fill="#1A1919" points="471.633 31.125 472.024 31.581 475.032 28.988 479.497 34.042 479.497 51.4 477.329 53.381 484.286 61.244 491.424 54.209 488.491 51.172 488.491 30.176 490.266 28.76 495.202 34.521 495.202 51.832 493.346 53.682 499.897 61.053 506.903 54.041 504.329 51.34 504.262 30.26 506.155 28.724 511.301 34.39 511.301 51.605 509.608 53.297 516.841 61.184 526.552 52.217 526.14 51.773 523.783 53.945 520.166 49.936 520.166 30.284 523.658 27.631 523.294 27.151 519.798 29.804 513.191 22.397 503.743 29.864 497.125 22.662 488 29.804 481.323 22.698 471.633 31.125"></polyline>
        <polyline id="Fill-11" fill="#1A1919" points="451.862 30.584 452.254 31.041 454.795 28.844 458.77 33.549 458.77 53.393 455.967 55.842 456.358 56.299 459.301 53.789 465.711 61.184 474.975 52.914 474.584 52.457 471.856 54.858 468.026 50.44 468.026 31.041 471.256 28.244 470.866 27.788 467.797 30.428 461.051 22.566 451.862 30.584"></polyline>
        <g id="Group-16" transform="translate(409.000000, 0.000000)" fill="#1A1919">
            <polyline id="Fill-12" points="45.532 14.151 52.506 7.765 58.178 14.055 51.172 20.417 45.532 14.151"></polyline>
            <path d="M36.153,0.094 C37.788,0.238 40.352,1.042 42.284,2.735 C44.336,4.728 44.803,7.752 44.084,10.501 C43.444,12.95 42.729,14.223 40.227,15.916 C37.704,17.62 34.649,17.476 34.649,17.476 L34.649,28.087 L39.813,32.265 L34.649,36.43 L34.649,50.885 C34.649,50.885 39.821,47.92 43.03,41.281 C43.03,41.281 43.163,40.92 43.461,40.236 C43.747,42.014 43.586,45.615 41.573,50.236 C40.057,53.717 37.299,57.066 33.842,58.975 C27.715,62.373 23.12,62.697 18.194,61.676 C12.424,60.488 7.186,57.246 3.61,51.592 C1.096,47.619 -0.031,42.986 0.075,38.003 C0.276,28.219 7.553,19.781 15.956,16.635 C16.977,16.252 17.383,16 18.836,15.867 C18.167,16.324 17.393,16.912 16.446,17.536 C13.741,19.313 11.422,22.854 10.432,25.579 L26.737,18.304 L26.737,41.102 L13.588,47.691 C15.088,49.768 19.639,52.914 23.536,53.357 C30.159,54.09 34.045,51.197 34.045,51.197 L34.045,36.43 L28.913,32.265 L34.045,28.1 L34.045,17.476 C31.247,17.152 27.846,16.228 25.858,15.735 C22.932,15.015 13.18,12.278 11.649,12.05 C10.118,11.822 8.227,11.894 7.084,12.915 C5.94,13.947 5.233,15.759 5.719,17.392 C5.995,18.316 6.629,18.856 7.112,19.384 C7.112,19.384 6.547,19.336 5.528,18.724 C3.686,17.62 2.286,15.459 2.118,12.794 C1.903,9.301 3.34,6.156 6.221,4.044 C8.725,2.435 11.555,1.402 14.848,1.871 C19.649,2.555 26.106,5.268 31.858,6.648 C34.086,7.189 35.811,7.369 37.375,6.456 C38.106,5.928 39.389,4.571 38.34,2.771 C37.116,0.658 34.77,0.706 32.782,0.334 C34.493,-0.026 34.868,-0.026 36.153,0.094 Z M16.766,45.422 L16.766,23.406 L10.145,26.359 C10.145,26.359 8.456,30.14 8.75,35.626 C8.983,39.912 11.379,45.039 13.221,47.187 L16.766,45.422 Z" id="Fill-14"></path>
            <path d="M155.38,64.102 C154.322,64.412 149.722,63.297 148.619,58.531 C147.544,53.885 150.769,50.74 155.642,45.795 L149.89,40.536 L149.89,30.5 C149.89,30.5 154.117,28.388 157.429,26.323 C160.742,24.246 164.13,22.001 164.13,22.001 C164.13,22.001 166.601,25.123 169.394,24.871 C173.767,24.486 173.564,21.041 173.437,20.225 C174.183,21.557 176.181,25.519 168.498,34.377 L174.755,39.431 L174.755,52.469 C174.755,52.469 167.486,56.25 160.611,61.268 C160.611,61.268 156.773,56.467 153.441,58.76 C151.191,60.307 152.22,62.924 155.38,64.102 Z M149.972,54.053 C149.972,54.053 153.275,48.592 158.949,49.768 C164.392,50.896 166.281,56.646 166.281,56.646 L166.281,43.406 L162.484,40.104 C158.314,44.295 150.892,50.355 149.972,54.053 Z M158.394,26.395 L158.394,36.827 L161.867,39.852 C161.867,39.852 169.41,33.813 172.148,28.219 C172.148,28.219 168.759,32.817 164.195,31.413 C160.375,30.249 158.394,26.395 158.394,26.395 Z" id="Fill-15"></path>
        </g>
        <path d="M329.528,31.004 L332.346,28.412 L332.75,28.868 L330.006,31.413 L330.006,52.145 C330.006,52.145 324.793,54.906 321.155,56.959 C317.52,59.012 313.635,61.424 313.635,61.424 L304.071,53.369 L301.542,55.566 L301.133,55.109 L303.792,52.793 L303.792,30.5 L303.827,30.5 C303.827,30.5 308.338,28.459 312.143,26.311 C315.547,24.39 319.356,22.169 319.356,22.169 L329.528,31.004 Z M312.866,49.275 L320.948,56.586 L320.948,34.209 L312.866,26.731 L312.866,49.275 Z" id="Fill-17" fill="#1A1919"></path>
        <path d="M348.333,28.904 L354.407,22.698 C354.407,22.698 355.243,23.43 356.024,23.814 C356.469,24.03 358.307,24.979 359.995,24.054 C360.909,23.55 361.04,23.418 362.042,22.469 C362.247,27.295 359.93,30.692 357.04,32.097 C355.856,32.673 352.401,33.777 348.786,29.372 L348.786,51.676 L352.631,55.074 L355.84,52.42 L356.211,52.889 L346.159,61.279 L338.51,54.318 L335.758,56.91 L335.307,56.43 L339.499,52.649 L339.534,33.393 L336.319,29.132 L333.555,31.569 L333.155,31.125 L342.893,22.374 L348.333,28.904" id="Fill-18" fill="#1A1919"></path>
        <path d="M373.946,38.195 L385.178,21.857 C385.178,21.857 386.659,23.61 389.239,24.294 C392.747,25.207 395.809,21.821 395.809,21.821 C395.223,26.191 393.008,31.148 388.434,31.905 C384.405,32.577 380.657,29.444 380.657,29.444 L379.928,30.572 L395.522,54.125 L398.641,51.389 L399.043,51.844 L388.342,61.195 L373.946,38.195" id="Fill-19" fill="#1A1919"></path>
        <path d="M364.667,16.383 C364.667,12.854 363.221,10.682 361.333,10.837 L373.584,2.231 L373.584,50.945 L373.586,50.945 L376.821,54.354 L379.272,52.229 L379.657,52.686 L369.784,61.305 L363.096,55.025 L360.418,57.379 L359.995,56.922 L364.667,52.854 L364.667,16.383" id="Fill-20" fill="#1A1919"></path>
        <path d="M262.243,15.579 C262.242,12.29 260.906,10.454 258.742,10.405 C255.628,10.333 254.89,14.727 254.89,14.727 C254.89,14.727 254.323,11.342 257.156,8.269 C258.749,6.552 261.721,4.139 266.368,5.256 C271.167,6.42 272.53,10.141 272.53,13.43 L272.53,58.746 C272.53,58.746 274.343,58.963 275.587,59.24 C277.03,59.539 278.397,59.924 278.397,59.924 L278.397,5.28 L278.994,5.28 L278.994,12.65 L288.833,4.728 L296.042,11.138 L299.403,8.233 L299.786,8.689 L296.272,11.714 L296.272,53.85 C296.098,56.598 295.655,59.395 293.059,61.004 C287.269,64.437 280.284,60.477 274.063,59.576 C269.444,58.891 262.194,58.016 260.374,62.252 C259.78,63.645 259.821,65.793 261.917,67.197 C266.121,70.008 284.841,62.481 291.262,65.469 C297.116,68.193 297.094,72.504 296.19,75.469 C294.668,81.027 287.651,82 287.651,82 C287.651,82 291.083,80.006 290.105,76.705 C289.609,75.037 288.476,74.568 284.802,74.977 C276.778,75.889 267.187,79.777 260.742,77.078 C257.42,75.697 255.071,71.543 255.299,67.463 C255.464,61.592 262.243,59.275 262.243,59.275 L262.241,37.559 C262.047,36.694 258.43,36.922 257.64,38.519 C256.437,40.933 259.134,42.037 259.134,42.037 C259.134,42.037 256.898,42.373 255.024,40.212 C254.112,39.155 252.206,35.458 254.684,32.037 C256.721,29.216 259.163,28.724 262.243,28.388 L262.243,15.579 Z M278.994,60.092 C278.994,60.092 281.849,60.848 283.93,59.143 C286.243,57.234 286,54.559 286,54.559 L286,37.679 C286,37.679 284.659,35.95 282.528,35.95 C280.398,35.95 278.994,37.739 278.994,37.739 L278.994,60.092 Z M286,15.783 L281.274,11.63 L278.994,13.43 L278.994,29.072 C278.994,29.072 280.398,30.848 282.528,30.848 C284.659,30.848 286,29.144 286,29.144 L286,15.783 Z M286,30.08 C286,30.08 284.647,31.617 282.517,31.617 C280.387,31.617 278.994,30.068 278.994,30.068 L278.994,36.743 C278.994,36.743 280.387,35.194 282.517,35.194 C284.647,35.194 286,36.658 286,36.658 L286,30.08 Z" id="Fill-21" fill="#1A1919"></path>
    </g>
</svg>