<?xml version="1.0" encoding="UTF-8"?>
<svg width="200px" height="69px" viewBox="0 0 200 69" version="1.1" xmlns="http://www.w3.org/2000/svg" xmlns:xlink="http://www.w3.org/1999/xlink">
    <!-- Generator: Sketch 53.2 (72643) - https://sketchapp.com -->
    <title>Rideshare/Uber/logo/black</title>
    <desc>Created with Sketch.</desc>
    <g id="Rideshare/Uber/logo/black" stroke="none" stroke-width="1" fill="none" fill-rule="evenodd">
        <path d="M11.5055016,49.6481772 C12.3505933,51.8939238 13.5206041,53.8140967 15.0157497,55.4086957 C16.5108954,57.0035107 18.2822006,58.2239265 20.3296656,59.0701593 C22.3773463,59.9163921 24.6036677,60.3394005 27.0088457,60.3394005 C29.3490831,60.3394005 31.5428263,59.899973 33.590507,59.021118 C35.6381877,58.142263 37.4256742,56.9056441 38.9531823,55.3110451 C40.4806904,53.7162301 41.6670982,51.8124764 42.5121899,49.5993519 C43.3572816,47.3862274 43.7797195,44.9129895 43.7797195,42.17899 L43.7797195,-1.42108547e-14 L54.0176915,-1.42108547e-14 L54.0176915,68.3454496 L43.8772384,68.3454496 L43.8772384,61.9990278 C41.6021575,64.4072374 38.9206041,66.2623819 35.8330097,67.5644612 C32.7451996,68.8661086 29.4140237,69.5170402 25.838835,69.5170402 C22.1984898,69.5170402 18.8021575,68.8823116 15.6494067,67.6130705 C12.4968716,66.3438293 9.76655879,64.5377262 7.45911543,62.1943289 C5.15167206,59.8509317 3.33139159,57.0361329 1.99892125,53.7488523 C0.666235167,50.4617877 -4.97379915e-14,46.8005401 -4.97379915e-14,42.7646773 L-4.97379915e-14,-1.42108547e-14 L10.237972,-1.42108547e-14 L10.237972,42.17899 C10.237972,44.9129895 10.6604099,47.4024305 11.5055016,49.6481772 Z M71.6651564,-7.10542736e-15 L71.6651564,24.8972185 C73.9402373,22.6190656 76.5730313,20.8129625 79.5631068,19.4784769 C82.5531823,18.1439914 85.803452,17.4768566 89.3134844,17.4768566 C92.9538296,17.4768566 96.3661273,18.1601944 99.5514563,19.5270861 C102.73657,20.8939779 105.499029,22.7491223 107.839266,25.0925196 C110.179504,27.4359168 112.032147,30.2021064 113.397195,33.3915204 C114.762244,36.5811504 115.44466,39.9658655 115.44466,43.5458817 C115.44466,47.1256819 114.762244,50.4941939 113.397195,53.6509857 C112.032147,56.8079935 110.179504,59.5581961 107.839266,61.9011612 C105.499029,64.2445585 102.73657,66.0997029 99.5514563,67.4665947 C96.3661273,68.8334864 92.9536138,69.5168242 89.3134844,69.5168242 C85.8032362,69.5168242 82.5370011,68.8496894 79.5143474,67.5152039 C76.4916936,66.1809344 73.8427184,64.3746152 71.5676375,62.0964623 L71.5676375,68.3452336 L61.81726,68.3452336 L61.81726,-7.10542736e-15 L71.6651564,-7.10542736e-15 Z M72.7864078,50.2826897 C73.6638619,52.3657575 74.8828479,54.1882798 76.4429342,55.7504726 C78.0030205,57.3126654 79.8230852,58.5495004 81.9031284,59.4607615 C83.9833873,60.3720227 86.22589,60.8276533 88.631068,60.8276533 C90.9713053,60.8276533 93.1812298,60.3720227 95.2612729,59.4607615 C97.3413161,58.5495004 99.1449838,57.3128814 100.672923,55.7504726 C102.200431,54.1884958 103.419202,52.3657575 104.329234,50.2826897 C105.239266,48.199838 105.694283,45.9543073 105.694283,43.5458817 C105.694283,41.1374561 105.239266,38.8755063 104.329234,36.7600324 C103.419202,34.6445585 102.200431,32.8058331 100.672923,31.2436403 C99.1451996,29.6816635 97.3415318,28.4610316 95.2612729,27.5823927 C93.181014,26.7037537 90.9710895,26.2641102 88.631068,26.2641102 C86.2910464,26.2641102 84.0809061,26.7035377 82.000863,27.5823927 C79.9208198,28.4612476 78.1007551,29.6816635 76.5404531,31.2436403 C74.9805825,32.8058331 73.7454153,34.6445585 72.835383,36.7600324 C71.9253506,38.8755063 71.4703344,41.1374561 71.4703344,43.5458817 C71.4701187,45.9543073 71.9089536,48.199838 72.7864078,50.2826897 Z M121.00151,33.489387 C122.301402,30.3650014 124.08932,27.6150149 126.364186,25.2392115 C128.639051,22.863408 131.337001,20.9920605 134.457174,19.6251688 C137.577346,18.2582771 140.957497,17.5749392 144.597627,17.5749392 C148.172816,17.5749392 151.488026,18.2258709 154.543258,19.5275182 C157.598274,20.8293816 160.230852,22.6357008 162.440992,24.9464758 C164.651133,27.2570348 166.373894,29.9910343 167.60863,33.1478261 C168.843797,36.3048339 169.461273,39.7383743 169.461273,43.4486632 L169.461273,46.6706994 L128.99698,46.6706994 C129.322114,48.6885228 129.972168,50.5598704 130.947141,52.2845261 C131.92233,54.0093978 133.140885,55.5065622 134.603452,56.7758034 C136.066019,58.0452606 137.723625,59.0379692 139.576268,59.7537132 C141.42891,60.4696732 143.395038,60.8278693 145.475297,60.8278693 C151.390723,60.8278693 156.168501,58.3868215 159.80863,53.5049419 L166.926429,58.7772077 C164.456311,62.0968944 161.401294,64.7006211 157.761165,66.5881718 C154.12082,68.4757224 150.025674,69.4196057 145.475512,69.4196057 C141.770227,69.4196057 138.308954,68.768458 135.091262,67.4668107 C131.873571,66.1651634 129.078533,64.3424251 126.705933,61.9990278 C124.333333,59.6556306 122.464509,56.9056441 121.099461,53.7488523 C119.734412,50.5920605 119.05178,47.1583041 119.05178,43.4482312 C119.051348,39.9334594 119.701618,36.6137726 121.00151,33.489387 Z M134.700971,29.6326222 C131.938296,31.9433972 130.10205,35.0189576 129.192017,38.8593033 L159.516073,38.8593033 C158.670982,35.0189576 156.867098,31.9433972 154.104423,29.6326222 C151.341748,27.3220632 148.107875,26.1666757 144.402805,26.1666757 C140.697519,26.1666757 137.463646,27.3220632 134.700971,29.6326222 Z M187.889105,30.7553875 C185.809061,33.0335404 184.768932,36.1253038 184.768932,40.0308939 L184.768932,68.3456657 L174.92082,68.3456657 L174.92082,18.5510127 L184.671197,18.5510127 L184.671197,24.7021334 C185.906365,22.68431 187.51521,21.089495 189.497735,19.9179044 C191.480259,18.7460978 193.836677,18.1601944 196.56699,18.1601944 L199.979504,18.1601944 L199.979504,27.3380502 L195.884358,27.3380502 C192.634304,27.3382663 189.969148,28.4772347 187.889105,30.7553875 Z" id="Combined-Shape" fill="#1E212D"></path>
    </g>
</svg>