<?xml version="1.0" encoding="utf-8"?>
<!-- Generator: Adobe Illustrator 19.2.1, SVG Export Plug-In . SVG Version: 6.00 Build 0)  -->
<svg version="1.1" id="Calque_1" xmlns="http://www.w3.org/2000/svg" xmlns:xlink="http://www.w3.org/1999/xlink" x="0px" y="0px"
	 viewBox="0 0 162.9 23.6" style="enable-background:new 0 0 162.9 23.6;" xml:space="preserve">
<style type="text/css">
	.st0{fill:#F37029;}
	.st1{fill:none;stroke:#F37029;stroke-width:0.3058;}
	.st2{fill:#404040;}
</style>
<g>
	<path class="st0" d="M28,1.6L28,1.6c0.1-0.5-0.1-1.1-0.7-1.2c-0.5-0.1-1.1,0.1-1.2,0.7l0,0l-0.2,0.6l-5.5,17.5L15,1.7l0,0
		C14.9,1.3,14.4,1,14,1c-0.6,0-1,0.4-1.2,0.9L7.5,19.1L2.1,1.6L1.9,0.9l0,0C1.7,0.4,1.2,0.2,0.7,0.3S-0.1,1,0,1.5l0,0l6.5,20.8l0,0
		C6.6,22.7,7.1,23,7.6,23c0.4,0,0.7-0.2,0.9-0.5l0,0l0,0c0-0.1,0.1-0.1,0.1-0.1l0,0l0,0c0-0.1,0.1-0.1,0.1-0.2L14,5l5.3,17.2l0,0
		c0.1,0.4,0.6,0.8,1.1,0.8c0.4,0,0.9-0.3,1-0.7l0,0l0,0c0-0.1,0.1-0.1,0.1-0.2L28,1.6L28,1.6z"/>
	<path class="st1" d="M28,1.6L28,1.6c0.1-0.5-0.1-1.1-0.7-1.2c-0.5-0.1-1.1,0.1-1.2,0.7l0,0l-0.2,0.6l-5.5,17.5L15,1.7l0,0
		C14.9,1.3,14.4,1,14,1c-0.6,0-1,0.4-1.2,0.9L7.5,19.1L2.1,1.6L1.9,0.9l0,0C1.7,0.4,1.2,0.2,0.7,0.3S-0.1,1,0,1.5l0,0l6.5,20.8l0,0
		C6.6,22.7,7.1,23,7.6,23c0.4,0,0.7-0.2,0.9-0.5l0,0l0,0c0-0.1,0.1-0.1,0.1-0.1l0,0l0,0c0-0.1,0.1-0.1,0.1-0.2L14,5l5.3,17.2l0,0
		c0.1,0.4,0.6,0.8,1.1,0.8c0.4,0,0.9-0.3,1-0.7l0,0l0,0c0-0.1,0.1-0.1,0.1-0.2L28,1.6L28,1.6z"/>
	<path class="st0" d="M40.8,0c-3.3,0-6.1,1.2-8.4,3.4C30.1,5.7,29,8.5,29,11.8s1.2,6.1,3.4,8.4c2.3,2.3,5.1,3.4,8.4,3.4
		c4.4,0,7.9-2.1,10.5-6.3l0,0c0.3-0.6,0.1-1.2-0.4-1.5c-0.6-0.3-1.2-0.1-1.6,0.4l0,0c-2.1,3.5-4.9,5.2-8.5,5.2
		c-2.4,0-4.6-0.8-6.3-2.4c-1.8-1.6-2.8-3.6-3.1-6h18.5h0.4c0,0,1.5,0.1,2-1.1c0.2-0.5,0.2-1.4,0.2-1.6c-0.3-2.6-1.5-4.9-3.3-6.8
		C46.8,1.2,44.1,0,40.8,0 M50.2,10.7H31.3c0.3-2.4,1.3-4.4,3.1-6c1.8-1.6,3.9-2.4,6.3-2.4s4.5,0.8,6.3,2.4
		C48.9,6.4,50,8.3,50.2,10.7L50.2,10.7z"/>
	<path class="st2" d="M151.4,0.5c-3.1,0-5.8,1.1-8.1,3.3c-2.2,2.2-3.3,4.9-3.3,8.1c0,3.1,1.1,5.8,3.3,8.1c2.2,2.2,4.9,3.3,8.1,3.3
		c4.3,0,7.6-2,10.1-6.1l0,0c0.3-0.5,0.1-1.2-0.4-1.5s-1.2-0.1-1.5,0.4l0,0c-2,3.3-4.7,5-8.1,5c-2.3,0-4.4-0.7-6.1-2.3
		c-1.7-1.5-2.7-3.4-3-5.7h17.8h0.4c0,0,1.4,0.1,1.9-1c0.2-0.5,0.2-1.4,0.2-1.5c-0.3-2.5-1.4-4.7-3.2-6.5
		C157.2,1.6,154.6,0.5,151.4,0.5 M160.5,10.8h-18.1c0.3-2.3,1.2-4.2,3-5.8c1.7-1.5,3.8-2.3,6.1-2.3s4.4,0.8,6,2.3
		C159.2,6.6,160.2,8.5,160.5,10.8L160.5,10.8z"/>
	<path class="st2" d="M139.4,22.1c0-0.6-0.5-1.1-1.1-1.1l0,0h-8.7V1.4l0,0c0-0.6-0.5-1.1-1.1-1.1s-1.1,0.5-1.1,1.1l0,0V21
		c0,0-0.1,1.2,0.6,1.7s1.7,0.4,1.7,0.4h8.7l0,0C138.9,23.2,139.4,22.7,139.4,22.1L139.4,22.1z"/>
	<path class="st2" d="M80.7,5.5L80.7,5.5c-2.4-3.4-5.5-5.1-9.4-5.1c-3.1,0-5.8,1.1-8.1,3.3C61,6,59.9,8.6,59.9,11.8s1.1,5.9,3.3,8.1
		c2.2,2.3,4.9,3.3,8.1,3.3c3.9,0,7.1-1.7,9.5-5.2l0,0c0.3-0.5,0.1-1.2-0.4-1.5s-1.2-0.1-1.5,0.4l0,0c-2,2.8-4.5,4.1-7.6,4.1
		c-2.5,0-4.7-0.9-6.5-2.7c-1.7-1.8-2.7-3.9-2.7-6.5c0-2.5,0.9-4.7,2.7-6.5c1.8-1.8,3.9-2.7,6.5-2.7c3.1,0,5.6,1.4,7.6,4.1l0,0
		c0.3,0.5,1,0.7,1.5,0.4C80.8,6.6,81,6,80.7,5.5L80.7,5.5z"/>
	<path class="st2" d="M122.4,5.5L122.4,5.5c-2.4-3.4-5.5-5.1-9.4-5.1c-3.1,0-5.8,1.1-8.1,3.3c-2.2,2.3-3.3,4.9-3.3,8.1
		s1.1,5.9,3.3,8.1c2.2,2.3,4.9,3.3,8.1,3.3c3.9,0,7.1-1.7,9.5-5.2l0,0c0.3-0.5,0.1-1.2-0.4-1.5s-1.2-0.1-1.5,0.4l0,0
		c-2,2.8-4.5,4.1-7.6,4.1c-2.5,0-4.7-0.9-6.5-2.7c-1.7-1.8-2.7-3.9-2.7-6.5c0-2.5,0.9-4.7,2.7-6.5s3.9-2.7,6.5-2.7
		c3.1,0,5.6,1.4,7.6,4.1l0,0c0.3,0.5,1,0.7,1.5,0.4C122.6,6.6,122.8,6,122.4,5.5L122.4,5.5z"/>
	<path class="st2" d="M101.3,0.5c-0.4-0.4-1.1-0.5-1.5-0.1l0,0l-7.9,5.7L84,0.4l0,0C83.6,0,82.9,0,82.5,0.5
		c-0.4,0.4-0.4,1.1,0.1,1.5l0,0l8.2,6v13.9l0,0c0,0.6,0.4,1.1,1,1.1l0,0l0,0l0,0l0,0c0.6,0,1-0.5,1-1.1l0,0V8l8.2-6l0,0
		C101.7,1.7,101.8,1,101.3,0.5L101.3,0.5z"/>
</g>
</svg>
