<?xml version="1.0" encoding="UTF-8"?>
<svg width="286px" height="101px" viewBox="0 0 286 101" version="1.1" xmlns="http://www.w3.org/2000/svg" xmlns:xlink="http://www.w3.org/1999/xlink">
    <!-- Generator: Sketch 52.6 (67491) - http://www.bohemiancoding.com/sketch -->
    <title>alliance</title>
    <desc>Created with Sketch.</desc>
    <g id="Page-1" stroke="none" stroke-width="1" fill="none" fill-rule="evenodd">
        <g id="alliance">
            <g id="Group" transform="translate(0.000000, 88.695163)" fill="#00080F">
                <path d="M8.97637795,5.98425197 C9.40382452,5.44994376 9.61754781,4.8087739 9.61754781,4.16760405 C9.61754781,3.31271091 9.29696288,2.67154106 8.76265467,2.0303712 C8.12148481,1.28233971 7.05286839,0.961754781 5.77052868,0.961754781 L-8.8817842e-16,0.961754781 L-8.8817842e-16,11.4341957 L1.81664792,11.4341957 L1.81664792,7.37345332 L5.5568054,7.37345332 L7.80089989,11.4341957 L9.83127109,11.4341957 L7.37345332,7.15973003 C8.01462317,6.83914511 8.54893138,6.41169854 8.97637795,5.98425197 Z M6.09111361,5.77052868 L1.81664792,5.77052868 L1.81664792,2.56467942 L5.77052868,2.56467942 C6.51856018,2.56467942 7.05286839,2.7784027 7.37345332,3.09898763 C7.69403825,3.41957255 7.80089989,3.74015748 7.80089989,4.16760405 C7.80089989,4.59505062 7.5871766,5.02249719 7.26659168,5.34308211 C6.94600675,5.5568054 6.51856018,5.77052868 6.09111361,5.77052868 Z" id="Shape" fill-rule="nonzero"></path>
                <polygon id="Path" points="15.7086614 6.73228346 19.6625422 6.73228346 19.6625422 5.12935883 15.7086614 5.12935883 15.7086614 2.56467942 22.3340832 2.56467942 22.3340832 0.854893138 13.8920135 0.854893138 13.8920135 11.3273341 22.7615298 11.3273341 22.7615298 9.72440945 15.7086614 9.72440945"></polygon>
                <polygon id="Path" points="34.3025872 8.12148481 28.2114736 0.854893138 26.6085489 0.854893138 26.6085489 11.3273341 28.4251969 11.3273341 28.4251969 4.16760405 34.5163105 11.3273341 36.1192351 11.3273341 36.1192351 0.854893138 34.3025872 0.854893138"></polygon>
                <path d="M44.4544432,0.854893138 L39.6456693,11.3273341 L41.5691789,11.3273341 L42.7446569,8.54893138 L47.7671541,8.54893138 L49.0494938,11.3273341 L50.9730034,11.3273341 L46.1642295,0.854893138 L44.4544432,0.854893138 Z M43.3858268,7.15973003 L45.2024747,3.09898763 L45.3093363,3.09898763 L47.1259843,7.15973003 L43.3858268,7.15973003 Z" id="Shape" fill-rule="nonzero"></path>
                <path d="M60.6974128,9.51068616 C60.1631046,9.93813273 59.5219348,10.151856 58.6670416,10.151856 C57.8121485,10.151856 57.1709786,9.93813273 56.6366704,9.51068616 C56.1023622,9.0832396 55.7817773,8.44206974 55.7817773,7.69403825 L55.7817773,0.961754781 L53.9651294,0.961754781 L53.9651294,7.69403825 C53.9651294,8.97637795 54.3925759,9.93813273 55.2474691,10.6861642 C56.1023622,11.4341957 57.2778403,11.7547807 58.56018,11.7547807 C59.9493813,11.7547807 61.0179978,11.4341957 61.8728909,10.6861642 C62.727784,9.93813273 63.1552306,8.97637795 63.1552306,7.69403825 L63.1552306,0.961754781 L61.3385827,0.961754781 L61.3385827,7.69403825 C61.3385827,8.44206974 61.231721,9.0832396 60.6974128,9.51068616 Z" id="Path"></path>
                <polygon id="Path" points="69.8875141 0.854893138 68.0708661 0.854893138 68.0708661 11.3273341 76.2992126 11.3273341 76.2992126 9.72440945 69.8875141 9.72440945"></polygon>
                <polygon id="Path" points="77.1541057 2.56467942 81.3217098 2.56467942 81.3217098 11.3273341 83.1383577 11.3273341 83.1383577 2.56467942 87.1991001 2.56467942 87.1991001 0.854893138 77.1541057 0.854893138"></polygon>
                <polygon id="Path" points="102.052868 8.12148481 96.0686164 0.854893138 94.4656918 0.854893138 94.4656918 11.3273341 96.2823397 11.3273341 96.2823397 4.16760405 102.266592 11.3273341 103.869516 11.3273341 103.869516 0.854893138 102.052868 0.854893138"></polygon>
                <polygon id="Path" points="108.998875 0.854893138 110.815523 0.854893138 110.815523 11.3273341 108.998875 11.3273341"></polygon>
                <path d="M121.287964,5.02249719 C119.257593,4.8087739 117.12036,5.02249719 117.12036,3.63329584 C117.12036,3.09898763 117.334083,2.7784027 117.76153,2.45781777 C118.188976,2.24409449 118.723285,2.13723285 119.471316,2.13723285 C120.326209,2.13723285 121.074241,2.24409449 121.715411,2.45781777 C122.35658,2.67154106 122.890889,2.99212598 123.211474,3.31271091 L124.28009,2.0303712 C123.745782,1.60292463 123.104612,1.28233971 122.249719,0.961754781 C121.394826,0.641169854 120.433071,0.534308211 119.471316,0.534308211 C118.937008,0.534308211 118.4027,0.641169854 117.975253,0.641169854 C117.547807,0.748031496 117.013498,0.961754781 116.586052,1.17547807 C116.158605,1.38920135 115.83802,1.70978628 115.517435,2.13723285 C115.303712,2.56467942 115.089989,3.09898763 115.089989,3.63329584 C115.089989,6.09111361 117.547807,6.41169854 120.005624,6.51856018 C121.074241,6.62542182 121.822272,6.73228346 122.249719,6.94600675 C122.784027,7.15973003 122.99775,7.5871766 122.99775,8.22834646 C122.99775,8.76265467 122.784027,9.19010124 122.249719,9.51068616 C121.715411,9.83127109 121.074241,9.93813273 120.219348,9.93813273 C118.509561,9.93813273 116.906637,9.29696288 115.517435,8.01462317 L114.448819,9.29696288 C116.051744,10.7930259 117.975253,11.5410574 120.219348,11.5410574 C121.608549,11.5410574 122.677165,11.2204724 123.532058,10.6861642 C124.386952,10.151856 124.814398,9.19010124 124.814398,8.01462317 C125.134983,5.87739033 123.211474,5.23622047 121.287964,5.02249719 Z" id="Path"></path>
                <path d="M134.859393,5.02249719 C132.829021,4.8087739 130.691789,5.02249719 130.691789,3.63329584 C130.691789,3.09898763 130.905512,2.7784027 131.332958,2.45781777 C131.760405,2.24409449 132.294713,2.13723285 133.042745,2.13723285 C133.897638,2.13723285 134.645669,2.24409449 135.286839,2.45781777 C135.928009,2.67154106 136.462317,2.99212598 136.782902,3.31271091 L137.851519,2.0303712 C137.31721,1.60292463 136.67604,1.28233971 135.821147,0.961754781 C134.966254,0.641169854 134.004499,0.534308211 133.042745,0.534308211 C132.508436,0.534308211 131.974128,0.641169854 131.546682,0.641169854 C131.119235,0.748031496 130.584927,0.961754781 130.15748,1.17547807 C129.730034,1.38920135 129.409449,1.70978628 129.088864,2.13723285 C128.875141,2.56467942 128.661417,3.09898763 128.661417,3.63329584 C128.661417,6.09111361 131.119235,6.41169854 133.577053,6.51856018 C134.645669,6.62542182 135.393701,6.73228346 135.821147,6.94600675 C136.355456,7.15973003 136.569179,7.5871766 136.569179,8.22834646 C136.569179,8.76265467 136.355456,9.19010124 135.821147,9.51068616 C135.286839,9.83127109 134.645669,9.93813273 133.790776,9.93813273 C132.08099,9.93813273 130.478065,9.29696288 129.088864,8.01462317 L128.020247,9.29696288 C129.623172,10.7930259 131.546682,11.5410574 133.790776,11.5410574 C135.179978,11.5410574 136.248594,11.2204724 137.103487,10.6861642 C137.95838,10.151856 138.385827,9.19010124 138.385827,8.01462317 C138.706412,5.87739033 136.782902,5.23622047 134.859393,5.02249719 Z" id="Path"></path>
                <path d="M214.150731,5.02249719 C212.12036,4.8087739 209.983127,5.02249719 209.983127,3.63329584 C209.983127,3.09898763 210.19685,2.7784027 210.624297,2.45781777 C211.051744,2.24409449 211.586052,2.13723285 212.334083,2.13723285 C213.188976,2.13723285 213.937008,2.24409449 214.578178,2.45781777 C215.219348,2.67154106 215.753656,2.99212598 216.074241,3.31271091 L217.142857,2.0303712 C216.608549,1.60292463 215.967379,1.28233971 215.112486,0.961754781 C214.257593,0.641169854 213.295838,0.534308211 212.334083,0.534308211 C211.799775,0.534308211 211.265467,0.641169854 210.83802,0.641169854 C210.410574,0.748031496 209.876265,0.961754781 209.448819,1.17547807 C209.021372,1.38920135 208.700787,1.70978628 208.380202,2.13723285 C208.166479,2.56467942 207.952756,3.09898763 207.952756,3.63329584 C207.952756,6.09111361 210.410574,6.41169854 212.868391,6.51856018 C213.937008,6.62542182 214.685039,6.73228346 215.112486,6.94600675 C215.646794,7.15973003 215.860517,7.5871766 215.860517,8.22834646 C215.860517,8.76265467 215.646794,9.19010124 215.112486,9.51068616 C214.578178,9.83127109 213.937008,9.93813273 213.082115,9.93813273 C211.372328,9.93813273 209.769404,9.29696288 208.380202,8.01462317 L207.311586,9.29696288 C208.914511,10.7930259 210.83802,11.5410574 213.082115,11.5410574 C214.471316,11.5410574 215.539933,11.2204724 216.394826,10.6861642 C217.249719,10.151856 217.677165,9.19010124 217.677165,8.01462317 C217.99775,5.87739033 216.074241,5.23622047 214.150731,5.02249719 Z" id="Path"></path>
                <path d="M261.5973,5.02249719 C259.566929,4.8087739 257.429696,5.02249719 257.429696,3.63329584 C257.429696,3.09898763 257.64342,2.7784027 258.070866,2.45781777 C258.498313,2.24409449 259.032621,2.13723285 259.780652,2.13723285 C260.635546,2.13723285 261.383577,2.24409449 262.024747,2.45781777 C262.665917,2.67154106 263.200225,2.99212598 263.52081,3.31271091 L264.589426,2.0303712 C264.055118,1.60292463 263.413948,1.28233971 262.559055,0.961754781 C261.704162,0.641169854 260.742407,0.534308211 259.780652,0.534308211 C259.246344,0.534308211 258.712036,0.641169854 258.284589,0.641169854 C257.857143,0.748031496 257.322835,0.961754781 256.895388,1.17547807 C256.467942,1.38920135 256.147357,1.70978628 255.826772,2.13723285 C255.613048,2.56467942 255.399325,3.09898763 255.399325,3.63329584 C255.399325,6.09111361 257.857143,6.41169854 260.314961,6.51856018 C261.383577,6.62542182 262.131609,6.73228346 262.559055,6.94600675 C263.093363,7.15973003 263.307087,7.5871766 263.307087,8.22834646 C263.307087,8.76265467 263.093363,9.19010124 262.559055,9.51068616 C262.024747,9.83127109 261.383577,9.93813273 260.528684,9.93813273 C258.818898,9.93813273 257.215973,9.29696288 255.826772,8.01462317 L254.758155,9.29696288 C256.36108,10.7930259 258.284589,11.5410574 260.528684,11.5410574 C261.917885,11.5410574 262.986502,11.2204724 263.841395,10.6861642 C264.696288,10.151856 265.123735,9.19010124 265.123735,8.01462317 C265.444319,5.87739033 263.52081,5.23622047 261.5973,5.02249719 Z" id="Path"></path>
                <path d="M145.866142,0.854893138 L141.057368,11.3273341 L142.980877,11.3273341 L144.263217,8.54893138 L149.285714,8.54893138 L150.568054,11.3273341 L152.491564,11.3273341 L147.68279,0.854893138 L145.866142,0.854893138 Z M144.797525,7.15973003 L146.614173,3.09898763 L146.721035,3.09898763 L148.537683,7.15973003 L144.797525,7.15973003 Z" id="Shape" fill-rule="nonzero"></path>
                <polygon id="Path" points="163.712036 8.12148481 157.620922 0.854893138 156.017998 0.854893138 156.017998 11.3273341 157.834646 11.3273341 157.834646 4.16760405 163.925759 11.3273341 165.528684 11.3273341 165.528684 0.854893138 163.712036 0.854893138"></polygon>
                <polygon id="Path" points="180.061867 7.05286839 176.32171 0.854893138 174.505062 0.854893138 174.505062 11.3273341 176.214848 11.3273341 176.214848 4.27446569 176.32171 4.27446569 179.848144 10.151856 180.061867 10.151856 183.588301 4.27446569 183.695163 4.27446569 183.695163 11.3273341 185.404949 11.3273341 185.404949 0.854893138 183.695163 0.854893138"></polygon>
                <polygon id="Path" points="190.427447 0.854893138 192.244094 0.854893138 192.244094 11.3273341 190.427447 11.3273341"></polygon>
                <polygon id="Path" points="195.449944 2.56467942 199.617548 2.56467942 199.617548 11.3273341 201.434196 11.3273341 201.434196 2.56467942 205.494938 2.56467942 205.494938 0.854893138 195.449944 0.854893138"></polygon>
                <path d="M228.36333,9.51068616 C227.829021,9.93813273 227.187852,10.151856 226.332958,10.151856 C225.478065,10.151856 224.836895,9.93813273 224.302587,9.51068616 C223.768279,9.0832396 223.447694,8.44206974 223.447694,7.69403825 L223.447694,0.961754781 L221.631046,0.961754781 L221.631046,7.69403825 C221.631046,8.97637795 222.058493,9.93813273 222.913386,10.6861642 C223.768279,11.4341957 224.943757,11.7547807 226.226097,11.7547807 C227.615298,11.7547807 228.683915,11.4341957 229.538808,10.6861642 C230.393701,9.93813273 230.821147,8.97637795 230.821147,7.69403825 L230.821147,0.961754781 L229.004499,0.961754781 L229.004499,7.69403825 C229.004499,8.44206974 228.897638,9.0832396 228.36333,9.51068616 Z" id="Path"></path>
                <path d="M243.965129,5.5568054 C244.392576,5.44994376 244.713161,5.12935883 244.926884,4.70191226 C245.140607,4.27446569 245.354331,3.84701912 245.354331,3.41957255 C245.354331,2.7784027 245.140607,2.24409449 244.606299,1.81664792 C243.965129,1.17547807 243.110236,0.854893138 242.04162,0.854893138 L235.736783,0.854893138 L235.736783,11.3273341 L242.148481,11.3273341 C243.32396,11.3273341 244.178853,11.0067492 244.820022,10.4724409 C245.461192,9.83127109 245.781777,9.0832396 245.781777,8.22834646 C245.781777,7.5871766 245.568054,7.05286839 245.247469,6.51856018 C245.033746,6.09111361 244.499438,5.77052868 243.965129,5.5568054 Z M237.553431,2.56467942 L241.934758,2.56467942 C242.469066,2.56467942 242.789651,2.67154106 243.110236,2.99212598 C243.32396,3.20584927 243.430821,3.5264342 243.430821,3.84701912 C243.430821,4.27446569 243.32396,4.59505062 243.003375,4.91563555 C242.789651,5.12935883 242.362205,5.34308211 241.934758,5.34308211 L237.553431,5.34308211 L237.553431,2.56467942 Z M243.537683,9.29696288 C243.217098,9.61754781 242.789651,9.83127109 242.255343,9.83127109 L237.553431,9.83127109 L237.553431,6.73228346 L242.255343,6.73228346 C242.789651,6.73228346 243.217098,6.94600675 243.537683,7.26659168 C243.858268,7.5871766 243.965129,7.90776153 243.965129,8.22834646 C243.965129,8.65579303 243.858268,8.97637795 243.537683,9.29696288 Z" id="Shape" fill-rule="nonzero"></path>
                <polygon id="Path" points="249.84252 0.854893138 251.659168 0.854893138 251.659168 11.3273341 249.84252 11.3273341"></polygon>
                <polygon id="Path" points="276.878515 4.91563555 271.107987 4.91563555 271.107987 0.854893138 269.291339 0.854893138 269.291339 11.3273341 271.107987 11.3273341 271.107987 6.51856018 276.878515 6.51856018 276.878515 11.3273341 278.588301 11.3273341 278.588301 0.854893138 276.878515 0.854893138"></polygon>
                <polygon id="Path" points="283.290214 0.854893138 285.106862 0.854893138 285.106862 11.3273341 283.290214 11.3273341"></polygon>
            </g>
            <path d="M205.067492,61.6591676 C170.658043,34.7300337 131.867267,40.5005624 131.867267,40.5005624 C130.905512,41.9966254 130.050619,43.2789651 130.050619,43.2789651 C171.192351,38.5770529 197.266592,59.2013498 203.571429,63.6895388 C204.105737,64.1169854 204.96063,64.0101237 205.388076,63.4758155 C205.708661,62.8346457 205.6018,62.0866142 205.067492,61.6591676 Z" id="Path" fill="#FF5F00"></path>
            <path d="M128.554556,40.7142857 C115.089989,42.1034871 95.1068616,48.087739 78.0089989,61.6591676 C78.3295838,61.4454443 78.6501687,61.3385827 79.0776153,61.4454443 C79.0776153,61.4454443 80.359955,61.7660292 81.7491564,62.0866142 C89.336333,56.7435321 103.762655,47.1259843 126.524184,43.7064117 C126.524184,43.5995501 127.592801,42.2103487 128.554556,40.7142857 Z" id="Path" fill="#FF5F00"></path>
            <path d="M154.521935,40.8211474 C147.255343,30.2418448 142.767154,16.5635546 142.767154,1.28233971 C142.767154,7.80089989 141.912261,12.8233971 141.484814,15.2812148 C144.263217,30.5624297 151.209224,40.3937008 151.209224,40.3937008 C152.705287,40.6074241 154.521935,40.8211474 154.521935,40.8211474 Z" id="Path" fill="#FFB300"></path>
            <path d="M142.767154,1.28233971 C142.767154,0.534308211 142.232846,0 141.484814,0 C140.736783,0 140.202475,0.534308211 140.202475,1.28233971 C140.202475,39.7525309 111.24297,70.1012373 78.9707537,61.4454443 C78.3295838,61.231721 77.5815523,61.6591676 77.4746907,62.4071991 C77.2609674,63.048369 77.6884139,63.7964004 78.4364454,63.9032621 C112.739033,72.87964 142.767154,41.1417323 142.767154,1.28233971 Z" id="Path" fill="#EA001B"></path>
            <path d="M156.552306,43.5995501 C168.307087,58.3464567 184.336333,65.3993251 201.006749,61.8728909 C201.434196,62.1934758 202.823397,63.1552306 203.464567,63.6895388 C203.464567,63.6895388 203.892013,64.0101237 204.533183,63.9032621 C182.947132,69.4600675 164.673791,59.2013498 153.025872,43.1721035 C153.132733,43.1721035 154.84252,43.2789651 156.552306,43.5995501 Z" id="Path" fill="#FFB300"></path>
        </g>
    </g>
</svg>