<?xml version="1.0" encoding="utf-8"?>
<!-- Generator: Adobe Illustrator 18.0.0, SVG Export Plug-In . SVG Version: 6.00 Build 0)  -->
<!DOCTYPE svg PUBLIC "-//W3C//DTD SVG 1.1//EN" "http://www.w3.org/Graphics/SVG/1.1/DTD/svg11.dtd">
<svg version="1.1" id="Layer_1" xmlns="http://www.w3.org/2000/svg" xmlns:xlink="http://www.w3.org/1999/xlink" x="0px" y="0px"
	 viewBox="0 0 1000 341.4" enable-background="new 0 0 1000 341.4" xml:space="preserve">
<g>
	<path fill="#8DC640" d="M0,310.9c2.8-5.9,2.8-12.5,3.8-18.8c5.3-32.3,10.2-64.7,15.4-97.1c1.5-9.7,7-15.4,16.6-16.6
		c7.8-1,15.7-0.9,23.4,0c8.8,1,12.4,6,11.6,14.8c-0.2,2.3-0.7,4.6-1.1,7.8c4.1-3.9,7.4-7.2,10.9-10.3c13.5-12,29.2-17.6,47.3-15.8
		c16.4,1.6,28,9.8,33.8,26.2c3.1-3,5.8-5.8,8.7-8.3c17.2-14.6,36.9-21.1,59.3-17.1c19.5,3.5,30.1,16.5,31.3,36.5
		c0.8,14-2.2,27.5-4.2,41.1c-3.4,22.4-7,44.7-10.7,67c-1.8,10.9-6.8,16.1-17.7,17c-7.9,0.7-16,0.7-23.9,0
		c-9.7-0.8-13.7-6.5-12.3-16.1c1.3-9.1,2.9-18.1,4.3-27.1c2.9-19.1,6.6-38,8.7-57.2c1.2-10.7-3.4-14.8-14-13.4
		c-9,1.2-15.8,6-21,13.1c-8.1,10.9-11.1,23.7-13.1,36.8c-2.4,15.6-4.8,31.2-7.3,46.8c-1.9,11.2-7.8,16.6-19.2,17.3
		c-7.1,0.4-14.3,0.4-21.5,0c-10.2-0.5-14.7-6-13.2-16.2c4.1-27,8.4-53.9,12.6-80.9c2.3-15.1-3.9-20.4-18.4-15.9
		c-11.1,3.4-17.4,11.8-22,21.7c-5.3,11.3-6.8,23.6-8.8,35.7c-2.1,13-4,26-6.1,38.9c-1.6,9.8-6.8,15.1-16.8,16.3
		c-8.3,0.9-16.6,0.5-25,0.1c-4.6-0.2-8-2.7-11.3-5.6C0,324.9,0,317.9,0,310.9z"/>
	<path fill="#8DC640" d="M1000,248.9c-1,0.3-0.9,1.2-1.1,2c-3.1,11.2-11,17.3-22.6,17.3c-25.5,0-51,0-76.4,0c-5.9,0-6,0.1-4.8,5.8
		c2.9,14.3,17,23.7,33.8,22.5c8.9-0.6,17.4-2.8,25.5-6.4c1.7-0.7,3.3-1.5,5.1-2.1c10.7-3.8,16.3-1.2,20.3,9.4
		c6.9,18.2,4.3,24.6-13.4,32.5c-24.7,11-50.3,14.6-76.9,7.9c-29.5-7.5-49.4-33.1-49.5-63.6c-0.2-46.9,28.9-86,72.6-96.9
		c14.7-3.7,29.6-4.2,44.5-0.7c22.8,5.3,38,21.8,41.9,44.9c0.2,1.1-0.2,2.4,1,3.2C1000,232.9,1000,240.9,1000,248.9z M924.4,237.8
		c6.7,0,13.3,0,20,0c1.6,0,3.1,0.3,3.6-2.2c1.7-8.7-3.9-18.4-12.6-20.7c-15.1-4-28.7,6.4-34.2,20.8c-1,2.6,1.3,2.1,2.6,2.1
		C910.8,237.8,917.6,237.8,924.4,237.8z"/>
	<path fill="#8DC640" d="M544,192.9c7.7-5.4,15.1-11.2,24.2-14.5c24.6-8.9,52.9-2.3,67.5,16.1c11.4,14.3,14.8,31.1,14,48.8
		c-1.1,23.7-7.8,45.6-22.7,64.4C608.7,331,585,343.1,555,340.9c-14.9-1.1-27.1-7.3-35.6-21.3c-0.7,6.4-2.5,11.2-7.2,14.4
		c-4.6,3.2-9.9,3.8-15.3,3.7c-5.3-0.1-10.7,0.2-16-0.4c-8.3-1-11.9-5.1-11.2-13.5c0.7-8.8,2.2-17.5,3.6-26.2
		c5.9-37.1,11.8-74.3,17.7-111.4c2.9-18.1,5.7-36.1,8.8-54.2c1.7-10.1,7.7-15.2,17.8-15.5c7.8-0.3,15.7-0.3,23.5,0.1
		c8.8,0.4,12.9,4.8,12.1,13.6c-1.1,10.9-3,21.7-4.7,32.6C547.1,173,545.5,183,544,192.9c-0.5,0-0.8,0.1-0.4,0.7
		C543.8,193.4,543.9,193.2,544,192.9z M594.9,251.3c-0.1-8.6-1.4-15.9-6.2-22.2c-8-10.4-23.3-12.4-36.2-4.5
		c-16.3,10-21.2,25.9-21.3,43.7c0,10.7,2.9,20.8,13.6,26c11,5.3,21.6,2.9,31.1-3.9C589.7,280.7,593.7,266.1,594.9,251.3z"/>
	<path fill="#8DC640" d="M354.6,341.2c-17.4,0.1-32.9-3-47.1-11.3c-25.5-14.9-35.2-40.4-32-67.5c6.4-54.8,56-88.6,104.6-87.8
		c14.9,0.3,29.1,2.8,42.3,9.8c26.9,14.1,38.6,40.7,35.1,70.2c-5.8,48.2-45.3,79.5-87.6,85.4C364.5,340.9,359,340.9,354.6,341.2z
		 M403.1,251.2c0.1-21.3-15.1-34.5-36.1-31.4c-20.2,3-36.5,22.2-37,43.6c-0.5,22.6,14.2,35.7,36.7,32.6
		C387.2,293.2,403,273.7,403.1,251.2z"/>
	<path fill="#8DC640" d="M806,116.7c3.7,0,7.3-0.2,11,0c9.1,0.6,13.6,5.9,12.2,15c-2.7,18.6-5.7,37.1-8.6,55.7
		c-4.8,30.2-9.7,60.4-14.4,90.6c-1.4,9.1,0.5,11.8,9.1,14.4c5.6,1.7,8,4.6,7.8,10.6c-0.2,7.8-1.5,15.6-3.6,23.1
		c-1.9,7.2-7.1,11.9-14.6,12.6c-10.5,1-21,0.4-31-3.3c-15.5-5.6-21.7-17.7-22.9-33.1c-1.2-14.8,2.2-29.2,4.4-43.6
		c5.7-37.1,11.7-74.2,17.6-111.3c0.7-4.6,1.3-9.2,2.2-13.8c2.1-11.7,8.3-16.9,20.8-17.3c3.3-0.1,6.7,0,10,0
		C806,116.4,806,116.6,806,116.7z"/>
	<path fill="#8DC640" d="M124.2,131.9c-14.2,0.7-15.8-1.6-17.2-15.6c-1.2-11.8-1.1-11.8-12.7-11.8c-8.7,0-17.3,0.1-26-0.1
		c-2.7-0.1-4.2,0.8-5.3,3.4c-2.3,5.5-4.8,11-7.3,16.4c-2.4,5.2-6.6,7.8-12.3,7.7c-4.3-0.1-8.7,0.1-13,0c-6-0.2-8.4-3.6-6.6-9.3
		c0.5-1.6,1.2-3.1,2-4.6C43.6,82.1,61.7,46.3,79.4,10.4C83,3,88.3-0.4,96.4,0c4.5,0.3,9-0.1,13.5,0.1c6.3,0.2,9,2.5,10.2,8.8
		c6.9,37.1,13.7,74.2,20.5,111.4c1.3,7.1-2.6,11.5-10,11.7C128.5,132,126.4,131.9,124.2,131.9z M96.6,32.1
		C91.1,46.8,84.4,60.8,77.9,75c-1.4,3.1-0.4,3.7,2.5,3.6c6-0.1,12-0.2,18,0c2.9,0.1,3.7-0.9,3.3-3.8C99.5,60.7,97.8,46.5,96.6,32.1z
		"/>
	<path fill="#8DC640" d="M684.6,337.8c-4.1-0.2-9,0.4-13.7-0.6c-6.5-1.5-9.9-5.2-9.8-11.8c0.2-10.4,2.7-20.4,4.3-30.6
		c5.1-32.9,10.4-65.7,15.6-98.5c1.7-11,7-16.9,17.6-17.8c7.9-0.6,16-0.6,24,0c9.6,0.7,13.4,5.4,12.4,15c-1,9.4-2.7,18.8-4.1,28.1
		c-5.2,32.7-10.4,65.4-15.7,98c-2.1,12.8-8.3,18.2-21.3,18.3C691,337.8,688.1,337.8,684.6,337.8z"/>
	<path fill="#8DC640" d="M380.1,134.1c-22.2,0-39.2-10.3-44.6-27.8c-5-16.3-1.3-31.4,8.1-45c15.4-22.5,46.2-32.2,71.9-23.1
		c22.7,8,32.7,31.3,24,56.2C431.1,118.4,407.6,134.1,380.1,134.1z M366.1,88.7c-0.1,11.2,7.7,19.1,18.6,18.8
		c15-0.4,27.5-16,24.6-30.7c-1.9-9.9-8.1-15-18-15C377.7,61.8,366.3,74,366.1,88.7z"/>
	<path fill="#8DC640" d="M211.9,119.6c-9.8,10.8-21.3,15.2-34.9,14.5c-17.1-0.8-27.3-11.3-25.4-28.3c2.3-20,5.8-39.8,9.1-59.7
		c1-6,4.8-8.8,10.8-9.1c4.3-0.2,8.7-0.2,13,0c6.3,0.3,9.1,3.8,8.2,9.9c-2.4,15.1-4.8,30.2-7.3,45.3c-1.8,10.7,3.4,15.2,13.8,12
		c11.1-3.5,15.6-12.5,17.7-22.8c2.1-10.4,3.6-21,5.1-31.5c1.5-9.9,4.7-12.8,14.8-12.9c3.3,0,6.7-0.1,10,0.1c6,0.4,8.8,3.8,7.9,9.6
		c-3.3,21.4-6.8,42.7-10.2,64c-0.6,3.6-1.1,7.2-1.7,10.8c-1.3,7.2-5,10.3-12.3,10.4c-2.2,0-4.3,0-6.5,0
		C213.2,131.9,212.2,131,211.9,119.6z"/>
	<path fill="#8DC640" d="M302,11.3c13.3,0,14.8,1.7,13,14.8c-0.5,3.3-0.8,6.6-1.6,9.8c-0.5,2.4,0.4,2.9,2.5,2.9
		c2.8-0.1,5.7-0.1,8.5,0.1c2.6,0.1,4.9,1.1,6.2,3.6c4.6,8.8-2.8,21.2-12.7,21.3c-8.7,0.1-8.8,0.1-10.1,8.6
		c-1.1,6.6-2.1,13.1-3.1,19.7c-1.1,6.7,1.5,10.5,8.1,11.9c9.8,2,10.6,3.2,9.1,13.1c-0.2,1.6-0.6,3.3-0.8,4.9
		c-1.1,6.6-4,10-10.6,10.7c-10.4,1.1-20.3-0.7-29-6.8c-9.6-6.7-11.6-16.5-10-27.4c1.5-10.4,3.1-20.7,4.9-31c0.4-2.4,0.5-3.5-2.5-3.7
		c-6.6-0.5-8.3-2.7-7.9-9.4c0.5-9,2.7-16.2,13.7-15.5c2.1,0.1,2.3-1.3,2.6-2.9c0.6-3.9,1.3-7.9,1.9-11.8c1.4-9.6,4.8-12.7,14.5-12.8
		C299.7,11.3,300.9,11.3,302,11.3z"/>
	<path fill="#8DC640" d="M713.6,158.6c-4.6-0.1-9.3,0.3-13.9-0.6c-6.2-1.3-9.5-5.2-9.6-11.5c-0.1-5.9,0.9-11.6,2.6-17.2
		c2.2-7.2,7.1-11.6,14.7-12.4c8.8-0.9,17.6-1.1,26.4,0c7.1,0.9,10.5,5,10.6,12.1c0.1,5.7-0.8,11.3-2.5,16.7
		c-2.2,7.1-7.1,11.3-14.7,12.4C722.6,158.7,718.1,158.4,713.6,158.6z"/>
</g>
</svg>
