<?xml version="1.0" encoding="UTF-8"?>
<svg width="806px" height="424px" viewBox="0 0 806 424" version="1.1" xmlns="http://www.w3.org/2000/svg" xmlns:xlink="http://www.w3.org/1999/xlink">
    <!-- Generator: Sketch 52.6 (67491) - http://www.bohemiancoding.com/sketch -->
    <title>BDC-logo</title>
    <desc>Created with Sketch.</desc>
    <defs>
        <polygon id="path-1" points="0.7443 0.047 128.7693 0.047 128.7693 265.8824 0.7443 265.8824"></polygon>
        <polygon id="path-3" points="0.7693 0.047 128.7943 0.047 128.7943 265.8823 0.7693 265.8823"></polygon>
    </defs>
    <g id="BDC-logo" stroke="none" stroke-width="1" fill="none" fill-rule="evenodd">
        <g id="Group-13" transform="translate(0.523438, -0.898438)">
            <g id="Group-3" transform="translate(548.006836, 0.953000)">
                <mask id="mask-2" fill="white">
                    <use xlink:href="#path-1"></use>
                </mask>
                <g id="Clip-2"></g>
                <path d="M128.7693,0.0464 L95.7373,0.0464 L95.7373,4.9364 C95.7363,26.3094 95.7763,47.6834 95.7123,69.0564 C95.6883,77.1224 90.7563,80.1764 83.4573,76.7854 C71.7583,71.3504 60.0753,65.8814 48.3813,60.4314 C41.8713,57.3964 35.3553,54.3704 28.6153,51.2344 C19.2553,71.2984 10.0533,91.0284 0.7443,110.9844 C2.1213,111.6784 3.1643,112.2394 4.2363,112.7404 C20.2943,120.2344 36.3553,127.7274 52.4203,135.2064 C60.7153,139.0674 61.6483,144.0104 55.2473,150.4114 C42.4383,163.2184 29.6203,176.0164 16.8133,188.8244 C15.9033,189.7344 15.0533,190.7044 14.5813,191.2104 C30.1973,206.8414 45.6113,222.2704 61.1573,237.8324 C61.8473,237.1724 62.8153,236.2794 63.7463,235.3504 C76.9033,222.2094 90.0703,209.0764 103.2003,195.9074 C105.8233,193.2764 108.5833,191.3514 112.4913,192.9874 C116.3353,194.5974 117.0913,197.7664 117.0783,201.5634 C117.0063,221.6084 117.0443,241.6524 117.0443,261.6984 L117.0443,265.8824 L128.7693,265.8824 L128.7693,0.0464 Z" id="Fill-1" fill="#EE2722" mask="url(#mask-2)"></path>
            </g>
            <g id="Group-6" transform="translate(675.835938, 0.953000)">
                <mask id="mask-4" fill="white">
                    <use xlink:href="#path-3"></use>
                </mask>
                <g id="Clip-5"></g>
                <path d="M0.7693,265.8823 L12.3643,265.8823 L12.3643,261.0053 C12.3643,242.0473 12.3643,223.0883 12.3653,204.1303 C12.3653,202.9233 12.3803,201.7153 12.3863,200.5073 C12.4033,197.0763 13.6443,194.3903 17.0013,193.0323 C20.3933,191.6623 23.0893,192.9103 25.4893,195.3103 C38.8943,208.7163 52.3053,222.1153 65.7213,235.5123 C66.6443,236.4343 67.6203,237.3033 68.1833,237.8323 C83.8513,222.1723 99.3463,206.6843 115.3273,190.7103 C114.6963,190.2483 113.6083,189.6453 112.7603,188.8013 C99.6653,175.7693 86.5863,162.7193 73.5383,149.6403 C68.0253,144.1153 68.9733,139.1063 76.0743,135.7953 C92.5753,128.1003 109.0783,120.4083 125.5753,112.7063 C126.6273,112.2143 127.6443,111.6423 128.7943,111.0473 C119.3923,90.9123 110.1363,71.0903 100.8303,51.1593 C82.4903,59.7063 64.5843,68.0733 46.6583,76.3933 C38.3633,80.2423 33.7843,77.3343 33.7813,68.2853 C33.7743,46.9113 33.7793,25.5383 33.7793,4.1643 L33.7793,0.0463 L0.7693,0.0463 L0.7693,265.8823 Z" id="Fill-4" fill="#AA1228" mask="url(#mask-4)"></path>
            </g>
            <path d="M549.3885,350.9203 C561.1865,362.7753 572.9105,374.5563 585.3155,387.0223 C580.3835,391.9563 575.3745,397.6613 569.6655,402.5493 C553.6205,416.2843 534.6795,423.0003 513.7525,424.5173 C491.2425,426.1473 469.9615,422.1763 450.6715,410.0683 C425.4105,394.2143 410.8295,371.2233 406.9475,341.7543 C403.0685,312.3133 409.8315,285.5403 429.5655,262.8933 C447.6175,242.1743 470.9435,231.9273 498.2195,230.2663 C530.9675,228.2723 560.2295,240.9703 580.9635,266.0313 C569.1185,277.8883 557.3005,289.7173 545.3165,301.7123 C544.1375,300.4243 542.6245,298.7403 541.0805,297.0853 C528.3695,283.4653 513.0075,277.7243 494.6275,282.2183 C474.0515,287.2503 460.8115,305.2513 460.7585,327.5553 C460.7055,349.5123 473.7405,367.7253 493.7365,372.8803 C511.6605,377.5013 527.3885,372.9613 540.7005,360.1733 C543.8075,357.1893 546.6145,353.8913 549.3885,350.9203" id="Fill-7" fill="#223142"></path>
            <path d="M134.6561,351.5941 C126.8991,367.6311 114.0751,376.3611 96.2061,376.3541 C78.1751,376.3481 65.0951,367.5751 57.6581,351.2401 C50.7741,336.1201 50.8211,320.5061 57.1031,305.1811 C64.2491,287.7461 80.0221,278.0701 98.9261,278.8961 C116.1401,279.6481 131.1821,291.5551 136.7131,308.8981 C137.5891,311.6451 138.3621,314.4561 138.8231,317.2961 C139.3821,320.7361 139.5591,324.2381 139.9021,327.7121 C139.7581,336.0591 138.2841,344.0911 134.6561,351.5941 M132.6891,235.2921 C108.0411,226.6861 83.5851,227.6301 60.4551,241.2851 C58.9431,242.1771 55.9765625,243.898438 54.4765625,242.398438 C53.693005,241.61488 53.3605175,239.901434 53.4791,237.2581 L53.4011,154.5941 L0.0001,154.5941 L0.0001,420.6421 L53.3831,420.6421 C53.3831,418.5421 53.4291,419.638966 53.4061,414.9671 C53.3831,410.295234 56.0111,409.8181 59.2671,412.0511 C74.3561,422.4001 91.1081,426.0831 109.1301,424.5431 C141.3211,421.7931 166.3101,407.2051 182.2261,378.7241 C194.4831,356.7881 197.2311,332.9481 192.9641,308.5281 C186.7471,272.9461 167.3041,247.3781 132.6891,235.2921 Z" id="Fill-9" fill="#223142"></path>
            <path d="M337.251996,351.5941 C329.494996,367.6311 316.670996,376.3611 298.801996,376.3541 C280.770996,376.3481 267.690996,367.5751 260.253996,351.2401 C253.369996,336.1201 253.416996,320.5061 259.698996,305.1811 C266.844996,287.7461 282.617996,278.0701 301.521996,278.8961 C318.735996,279.6481 333.777996,291.5551 339.308996,308.8981 C340.184996,311.6451 340.957996,314.4561 341.418996,317.2961 C341.977996,320.7361 342.154996,324.2381 342.497996,327.7121 C342.353996,336.0591 340.879996,344.0911 337.251996,351.5941 M335.284996,235.2921 C310.636996,226.6861 286.180996,227.6301 263.050996,241.2851 C261.538996,242.1771 258.572458,243.898438 257.072458,242.398438 C256.288901,241.61488 255.956413,239.901434 256.074996,237.2581 L255.996996,154.5941 L202.595996,154.5941 L202.595996,420.6421 L255.978996,420.6421 C255.978996,418.5421 256.024996,419.638966 256.001996,414.9671 C255.978996,410.295234 258.606996,409.8181 261.862996,412.0511 C276.951996,422.4001 293.703996,426.0831 311.725996,424.5431 C343.916996,421.7931 368.905996,407.2051 384.821996,378.7241 C397.078996,356.7881 399.826996,332.9481 395.559996,308.5281 C389.342996,272.9461 369.899996,247.3781 335.284996,235.2921 Z" id="Fill-9" fill="#223142" transform="translate(300.018792, 289.736632) scale(-1, 1) translate(-300.018792, -289.736632) "></path>
        </g>
    </g>
</svg>