<?xml version="1.0" encoding="utf-8"?>
<!-- Generator: Adobe Illustrator 18.0.0, SVG Export Plug-In . SVG Version: 6.00 Build 0)  -->
<!DOCTYPE svg PUBLIC "-//W3C//DTD SVG 1.1//EN" "http://www.w3.org/Graphics/SVG/1.1/DTD/svg11.dtd">
<svg version="1.1" id="Logo" xmlns="http://www.w3.org/2000/svg" xmlns:xlink="http://www.w3.org/1999/xlink" x="0px" y="0px"
	 viewBox="0 0 576.2 161.3" enable-background="new 0 0 576.2 161.3" xml:space="preserve">
<g>
	<path fill="#D32D27" d="M199.6,80.4c-3.6-14.4-17.8-16.6-23.1-16.6s-70.9,0-70.9,0s19-24.8,23.6-30.6c6-7.6,9.2-22.5-4.9-30.5
		C109.1-6,98.5,9.1,98.5,9.1L55.9,63.7c0,0-18.5-0.1-23.9,0s-7.6,3.4-8.6,4.8c-0.8,1.1-11.9,14.5-14.1,17.8
		c-4.7,7,2.3,10.8,4.5,10.8s15.8,0.2,15.8,0.2s-14.9,19-16.9,21.7c-3,4-13.9,14.5-12.6,23.4c3.1,20.9,21.8,18.8,21.8,18.8
		s82.5,0,104.9,0s36.1-18.8,36.1-18.8s30.1-38.5,32.2-41.1C197.9,97.7,202.4,91.4,199.6,80.4z M142.9,107.6
		c-1.9,2.4-9.9,12.7-10.9,13.9c-0.8,1-4,5.7-10.1,5.7c-5.5,0-65.6,0-65.6,0l22.8-29.7c0,0,57.6,0,58.6,0c1,0,4.1-0.3,5.8,2.4
		C145.5,102.8,144.7,105.2,142.9,107.6z"/>
	<g>
		<path fill="#D32D27" d="M193,131.4c-6.4,8.4-2,23.1,7.9,27.8c6,2.9,11.9,2.6,16.7,0.2c3.6-1.8,7.1-5.5,9.2-8.1
			C235,141.3,270,96.8,270,96.8h-49.1C220.9,96.8,199.8,122.5,193,131.4z"/>
		<path fill="#D32D27" d="M315.4,3c-6.1-3.5-14.2-3.4-19-1c-3.6,1.8-6.2,4.8-8.2,7.4c-8.1,10.1-42,54.7-42,54.7h49.1
			c0,0,20.1-25.2,26.5-34.4C327.8,21,324,8,315.4,3z"/>
	</g>
	<g>
		<path fill="#D32D27" d="M444.5,131.4c-6.4,8.4-2,23.1,7.9,27.8c6,2.9,11.9,2.6,16.7,0.2c3.6-1.8,7.1-5.5,9.2-8.1
			c8.1-10.1,43.1-54.6,43.1-54.6h-49.1C472.4,96.8,451.3,122.5,444.5,131.4z"/>
		<path fill="#D32D27" d="M566.9,3c-6.1-3.5-14.2-3.4-19-1c-3.6,1.8-6.2,4.8-8.2,7.4c-8.1,10.1-42,54.7-42,54.7h49.1
			c0,0,20.1-25.2,26.5-34.4C579.3,21,575.5,8,566.9,3z"/>
	</g>
	<g>
		<path fill="#D32D27" d="M315.4,97.1c0,0-42.7,24.5-45.7,26.3c-5,3-17.2,14.3-9.7,27c11.5,19.5,29,6.8,30.7,6
			c2.3-1.2,72.7-41.5,72.7-41.5s0,22,0,27.2c0,5,3.8,19.2,19.3,19.2c16.8,0,19.2-15.3,19.3-19.3c0.2-4,0-44.8,0-44.8H315.4z"/>
		<path fill="#D32D27" d="M505.8,9.4C495-6.2,480.1,2.8,480.1,2.8l-78,44.8c0,0,0.2-25.8,0-29s-1.5-18.2-19.5-18.2
			s-19.3,18.3-19.3,18.3l0.3,45.7c0,0,83.3,0.2,87.5,0.2c0,0,44-25.5,46.7-27.2C505.3,32.6,513.9,21.3,505.8,9.4z"/>
	</g>
</g>
</svg>
