<?xml version="1.0" encoding="utf-8"?>
<!-- Generator: Adobe Illustrator 18.0.0, SVG Export Plug-In . SVG Version: 6.00 Build 0)  -->
<!DOCTYPE svg PUBLIC "-//W3C//DTD SVG 1.1//EN" "http://www.w3.org/Graphics/SVG/1.1/DTD/svg11.dtd">
<svg version="1.1" id="Layer_1" xmlns="http://www.w3.org/2000/svg" xmlns:xlink="http://www.w3.org/1999/xlink" x="0px" y="0px"
	 viewBox="0 0 262.1 65.5" enable-background="new 0 0 262.1 65.5" xml:space="preserve">
<g>
	<path fill="#8DC63F" d="M44.5,33c0,7.1-4.7,12.7-11.8,12.7c-7.1,0-11.8-5.6-11.8-12.7c0-7.1,4.7-12.7,11.8-12.7
		C39.8,20.3,44.5,25.9,44.5,33 M27.9,33c0,3.2,1.7,5.9,4.8,5.9c3.1,0,4.8-2.7,4.8-5.9c0-3.2-1.7-5.9-4.8-5.9
		C29.6,27,27.9,29.7,27.9,33z"/>
	<path fill="#8DC63F" d="M47.5,24.4c0-2,1.4-3.6,3.5-3.6c1.9,0,3.1,1.2,3.5,2.2c1.1-1.8,3.5-2.7,6-2.7c2,0,4.8,0.7,6.5,2.9
		c1.7-1.3,3.8-2.9,6.8-2.9c4.9,0,8.7,2.5,8.7,8.3v13c0,2-1.4,3.6-3.5,3.6c-2.1,0-3.5-1.6-3.5-3.6V30.5c0-2.2-1.2-4.2-3.5-4.2
		c-2.3,0-3.5,2-3.5,4.2v11.1c0,2-1.4,3.6-3.5,3.6s-3.5-1.6-3.5-3.6V30.5c0-2.2-1.2-4.2-3.5-4.2c-2.3,0-3.5,2-3.5,4.2v11.1
		c0,2-1.4,3.6-3.5,3.6c-2.1,0-3.5-1.6-3.5-3.6V24.4"/>
	<path fill="#8DC63F" d="M86.5,24.4c0-2,1.4-3.6,3.5-3.6c1.9,0,3.1,1.2,3.5,2.2c1.1-1.8,3.5-2.7,6-2.7c2,0,4.8,0.7,6.5,2.9
		c1.7-1.3,3.8-2.9,6.8-2.9c4.9,0,8.7,2.5,8.7,8.3v13c0,2-1.4,3.6-3.5,3.6s-3.5-1.6-3.5-3.6V30.5c0-2.2-1.2-4.2-3.5-4.2
		c-2.3,0-3.5,2-3.5,4.2v11.1c0,2-1.4,3.6-3.5,3.6c-2.1,0-3.5-1.6-3.5-3.6V30.5c0-2.2-1.2-4.2-3.5-4.2s-3.5,2-3.5,4.2v11.1
		c0,2-1.4,3.6-3.5,3.6c-2.1,0-3.5-1.6-3.5-3.6V24.4"/>
	<path fill="#8DC63F" d="M32.7,52.6c-11,0-19.9-8.9-19.9-19.9c0-11,8.9-19.9,19.9-19.9c4.3,0,8.3,1.4,11.6,3.7V2.1
		C40.7,0.8,36.8,0,32.7,0C14.7,0,0,14.7,0,32.7c0,18.1,14.7,32.7,32.7,32.7c4.1,0,8-0.8,11.6-2.1V48.9
		C41.1,51.2,37.1,52.6,32.7,52.6"/>
	<path d="M125.3,22.5c0-1.3,0.8-2.1,2.1-2.1c1.3,0,2.1,0.8,2.1,2.1v12.9c0,4.2,1.9,6.4,5.9,6.4c4,0,5.9-2.2,5.9-6.4V22.5
		c0-1.3,0.8-2.1,2.1-2.1c1.3,0,2.1,0.8,2.1,2.1v13.1c0,7.1-5,9.7-10.2,9.7c-5.2,0-10.2-2.6-10.2-9.7V22.5"/>
	<path d="M150.2,22.5c0-1.3,0.8-2.1,2.1-2.1c1.3,0,2.1,0.8,2.1,2.1v1l0.1,0.1c1.9-2.3,4.5-3.2,7.1-3.2c4,0,8.9,2.4,8.9,9.2v13.5
		c0,1.3-0.8,2.2-2.1,2.2c-1.3,0-2.1-0.8-2.1-2.2V29.8c0-4.3-3.1-6-5.9-6c-2.8,0-5.9,1.7-5.9,6v13.3c0,1.3-0.8,2.2-2.1,2.2
		c-1.3,0-2.1-0.8-2.1-2.2V22.5"/>
	<path d="M197,43.3c0,1.4-1.2,2-2,2c-0.9,0-2-0.5-2-2v-1.7h-0.1c-1.8,2.5-4.2,3.7-7,3.7c-7.2,0-11.3-6-11.3-12.5
		c0-6.5,4-12.5,11.3-12.5c2.9,0,5,1.2,7,3.3h0.1v-1.3c0-1.4,1.1-2,2-2c0.8,0,2,0.5,2,2V43.3 M185.9,41.7c5.2,0,7-4.9,7-9
		c0-4.1-1.8-9-7-9c-5.2,0-7,4.9-7,9C178.9,36.9,180.7,41.7,185.9,41.7z"/>
	<path d="M202.2,22.5c0-1.3,0.8-2.1,2.1-2.1c1.3,0,2.1,0.8,2.1,2.1v12.9c0,4.2,1.9,6.4,5.9,6.4s5.9-2.2,5.9-6.4V22.5
		c0-1.3,0.8-2.1,2.1-2.1c1.3,0,2.1,0.8,2.1,2.1v13.1c0,7.1-5,9.7-10.2,9.7c-5.2,0-10.2-2.6-10.2-9.7V22.5"/>
	<path d="M250.8,20.3c7.2,0,11.3,6,11.3,12.5c0,6.5-4.1,12.5-11.3,12.5c-7.2,0-11.3-6-11.3-12.5C239.5,26.3,243.6,20.3,250.8,20.3
		 M250.8,41.7c5.2,0,7-4.9,7-9c0-4.1-1.8-9-7-9s-7,4.9-7,9C243.8,36.9,245.6,41.7,250.8,41.7z"/>
	<path d="M235.7,41c-1.3-0.2-2-1.3-2-3.2h0V24.1h1.7c1.4,0,2.1-0.6,2.1-1.7c0-1.1-0.7-1.7-2.1-1.7h-1.7v-5.3c0-1.3-0.8-2.2-2.1-2.2
		c-1.3,0-2.1,0.8-2.1,2.2v5.3h-1.7c-1.4,0-2.1,0.6-2.1,1.7c0,1.1,0.7,1.7,2.1,1.7h1.7v13.7h0c0,0,0,0,0,0.1v0.5h0
		c0.2,4.6,3,6.6,5.7,6.9c0.1,0,0.2,0,0.3,0c1.1,0,2-0.8,2.1-1.8C237.7,42.2,236.8,41.1,235.7,41"/>
</g>
</svg>
