<?xml version="1.0" encoding="utf-8"?>
<!-- Generator: Adobe Illustrator 18.0.0, SVG Export Plug-In . SVG Version: 6.00 Build 0)  -->
<!DOCTYPE svg PUBLIC "-//W3C//DTD SVG 1.1//EN" "http://www.w3.org/Graphics/SVG/1.1/DTD/svg11.dtd">
<svg version="1.1" id="Layer_1" xmlns="http://www.w3.org/2000/svg" xmlns:xlink="http://www.w3.org/1999/xlink" x="0px" y="0px"
	 viewBox="0 310.5 598.5 170.9" enable-background="new 0 310.5 598.5 170.9" xml:space="preserve">
<g>
	<path fill="#141006" d="M597.6,347.2c-0.7-1.5-2.6-2.2-4.8-2.2H578c-2.2,0-3.7,1.5-5.2,3.3l-42.9,51.8l-42.9-51.8
		c-1.5-1.9-3-3.3-5.2-3.3H467c-2.2,0-3.7,0.7-4.8,2.2s-1.5,3.3,0,5.2l56.2,68.5v31.8c0,3,2.6,5.2,5.6,5.2h11.8c3,0,5.6-2.6,5.6-5.2
		v-31.8l56.2-68.5C599,350.5,598.7,348.6,597.6,347.2"/>
	<path fill="#141006" d="M86.6,435.2H22.9v-67.3h63.3c14.1,0,25.2,11.5,25.2,25.2v16.3C111.7,423.8,100.6,435.2,86.6,435.2
		 M86.6,344.9H5.2c-3,0-5.2,2.2-5.2,5.2v102.5c0,3,2.2,5.2,5.2,5.2h81.4c26.6,0,48.5-21.8,48.5-48.5V393
		C135.1,366.8,113.2,344.9,86.6,344.9"/>
	<path fill="#141006" d="M265.3,367.9c3,0,5.2-2.6,5.2-5.6v-11.8c0-3-2.6-5.6-5.2-5.6H163.5c-3,0-5.2,2.6-5.2,5.6v11.8
		c0,3,2.6,5.6,5.2,5.6h39.2v67.3h-39.2c-3,0-5.2,2.6-5.2,5.6v11.8c0,3,2.6,5.6,5.2,5.6h101.8c3,0,5.2-2.6,5.2-5.6v-11.8
		c0-3-2.6-5.6-5.2-5.6h-39.2v-67.3H265.3z"/>
	<path fill="#3CB7E4" d="M442.9,310.5c-1.1,0-2.6,0.4-4.1,1.9l-67.7,67.7L303,312.4c-1.5-1.5-3-1.9-4.1-1.9c-2.6,0-4.4,2.2-4.4,4.8
		v20c0,2.2,0.7,3.3,1.9,4.4c0.7,1.1,62.5,62.2,63.3,63.3c1.1,1.1,3.3,2.2,5.2,2.2H377c1.9,0,3.7-0.7,5.2-2.2
		c0.7-0.7,62.2-62.2,63.3-62.9c1.1-1.1,1.9-2.6,1.9-4.4v-20.4C447.3,312.7,445.5,310.5,442.9,310.5"/>
	<path fill="#3CB7E4" d="M442.9,387.1c-1.1,0-2.6,0.4-4.1,1.9l-67.7,67.7L303,389c-1.5-1.5-3-1.9-4.1-1.9c-2.6,0-4.4,1.9-4.4,4.8v20
		c0,2.2,0.7,3.3,1.9,4.4c0.7,0.7,62.5,62.2,63.3,62.9c1.1,1.1,3.3,2.2,5.2,2.2H377c1.9,0,3.7-0.7,5.2-2.2
		c0.7-0.7,62.2-62.2,63.3-62.9c1.1-1.1,1.9-2.6,1.9-4.4v-20C447.3,389,445.5,387.1,442.9,387.1"/>
</g>
</svg>
