<?xml version="1.0" encoding="utf-8"?>
<!-- Generator: Adobe Illustrator 18.0.0, SVG Export Plug-In . SVG Version: 6.00 Build 0)  -->
<!DOCTYPE svg PUBLIC "-//W3C//DTD SVG 1.1//EN" "http://www.w3.org/Graphics/SVG/1.1/DTD/svg11.dtd">
<svg version="1.1" id="Layer_1" xmlns="http://www.w3.org/2000/svg" xmlns:xlink="http://www.w3.org/1999/xlink" x="0px" y="0px"
	 viewBox="0 90 612 612" enable-background="new 0 90 612 612" xml:space="preserve">
<path d="M306,702c-81.8,0-158.6-31.8-216.4-89.6C31.8,554.6,0,477.8,0,396s31.8-158.6,89.6-216.4S224.2,90,306,90
	s158.6,31.8,216.4,89.6S612,314.2,612,396s-31.8,158.6-89.6,216.4C464.6,670.2,387.8,702,306,702z M306,116.9
	c-74.5,0-144.7,29-197.3,81.8S26.9,321.5,26.9,396s29,144.7,81.8,197.3c52.8,52.6,122.8,81.8,197.3,81.8s144.7-29,197.3-81.8
	c52.6-52.8,81.8-122.8,81.8-197.3s-29-144.7-81.8-197.3S380.5,116.9,306,116.9z"/>
<path d="M104,246.1H508v93.3H358V589H254.6V339.3H104.7L104,246.1z"/>
</svg>
