<?xml version="1.0" encoding="UTF-8"?>
<svg width="170px" height="56px" viewBox="0 0 170 56" version="1.1" xmlns="http://www.w3.org/2000/svg" xmlns:xlink="http://www.w3.org/1999/xlink">
    <!-- Generator: Sketch 48.2 (47327) - http://www.bohemiancoding.com/sketch -->
    <title>logo-mogo</title>
    <desc>Created with Sketch.</desc>
    <defs></defs>
    <g id="bikesharing" stroke="none" stroke-width="1" fill="none" fill-rule="evenodd">
        <g id="logo-mogo">
            <path d="M147.68702,10.922484 C139.537585,10.922484 132.415353,15.2977472 128.539449,21.8208581 C127.654393,21.2629258 126.659845,20.8559803 125.584619,20.6469953 C128.572585,19.2972209 130.655805,16.2928224 130.655805,12.8124558 C130.655805,10.0927754 129.354873,7.49436372 127.174167,5.86226786 L127.09541,5.80522838 C121.961794,2.12162876 116.495381,0.479467105 109.371709,0.479467105 C97.5216525,0.479467105 87.662613,7.65973026 83.7934322,18.0011306 C79.7312006,13.6483957 73.941596,10.922484 67.5118503,10.922484 C61.7544209,10.922484 56.5084322,13.104843 52.557613,16.6863468 L52.557613,9.14659117 C52.557613,4.37348966 48.666822,0.489532895 43.8842514,0.489532895 L43.0726695,0.489532895 C39.9036582,0.489532895 37.221596,1.99173214 35.5153531,4.71956109 L26.282048,19.1270611 L17.1034887,4.77995583 C15.353065,2.01330169 12.6469915,0.489532895 9.48470339,0.489532895 L8.67264124,0.489532895 C3.89055085,0.489532895 0.000240112994,4.37348966 0.000240112994,9.14659117 L0.000240112994,46.6488468 C0.000240112994,51.4334521 3.75464689,55.181281 8.54778249,55.181281 C13.3764548,55.181281 17.1587147,51.4334521 17.1587147,46.6488468 L17.1587147,35.4465818 L18.9441949,38.1197679 C21.192613,41.5694577 24.1056638,42.2932359 26.1538277,42.2932359 C28.2312853,42.2932359 31.1789124,41.5684991 33.3980367,38.1609897 L35.2733192,35.3478412 L35.2733192,46.5865348 C35.2733192,51.3256043 39.1362571,55.181281 43.8842514,55.181281 C47.8249859,55.181281 51.0650706,52.6988656 52.1561441,49.1945329 C56.1497034,52.998922 61.5551271,55.339937 67.5118503,55.339937 C75.832726,55.339937 83.0817373,50.7777378 86.8985734,44.026469 C91.7286864,50.9200968 99.7974435,55.181281 109.496568,55.181281 C115.937839,55.181281 122.211992,53.2793261 127.645749,49.6800874 C128.771879,48.9721269 129.705918,48.1294765 130.449308,47.1713092 C134.529788,52.1562716 140.735268,55.339937 147.68702,55.339937 C159.975523,55.339937 169.937331,45.3968543 169.937331,33.1309709 C169.937331,20.8655667 159.975523,10.922484 147.68702,10.922484" id="Fill-1" fill="#FFFFFF"></path>
            <path d="M4.80211582,9.1466391 C4.80211582,7.02803008 6.48770904,5.28281391 8.67273729,5.28281391 L9.48431921,5.28281391 C11.1703927,5.28281391 12.2941215,6.15566165 13.0427938,7.3391109 L26.2787825,28.0276635 L39.5767203,7.2772782 C40.3883023,5.96872556 41.5115508,5.28281391 43.0722853,5.28281391 L43.8843475,5.28281391 C46.0693757,5.28281391 47.7549689,7.02803008 47.7549689,9.1466391 L47.7549689,46.5865827 C47.7549689,48.7051917 46.0693757,50.3880959 43.8843475,50.3880959 C41.824178,50.3880959 40.0756751,48.6428797 40.0756751,46.5865827 L40.0756751,19.4909154 L29.4002514,35.5055865 C28.5886695,36.7518271 27.5897994,37.4995714 26.1539237,37.4995714 C24.7804774,37.4995714 23.7811271,36.7518271 22.9695452,35.5055865 L12.3560706,19.6155395 L12.3560706,46.6488947 C12.3560706,48.7675038 10.6704774,50.3880959 8.54787853,50.3880959 C6.42527966,50.3880959 4.80211582,48.7675038 4.80211582,46.6488947 L4.80211582,9.1466391 Z" id="Fill-4" fill="#A6A8AB"></path>
            <path d="M86.8339831,27.9550461 L86.8339831,27.830422 C86.8339831,15.6167848 96.1983898,5.27250846 109.371469,5.27250846 C115.927034,5.27250846 120.29709,6.83030921 124.292571,9.69714192 C125.042203,10.2579502 125.853785,11.3172547 125.853785,12.8127434 C125.853785,14.8690404 124.167712,16.6137773 122.045113,16.6137773 C121.046243,16.6137773 120.29709,16.177593 119.672797,15.7414088 C116.863475,13.6851118 113.803955,12.3142472 109.059322,12.3142472 C101.005932,12.3142472 94.8878531,19.3555066 94.8878531,27.7057979 L94.8878531,27.830422 C94.8878531,36.8033543 100.818164,43.4089088 109.746045,43.4089088 C113.866864,43.4089088 117.612627,42.1003562 120.29709,40.1063712 L120.29709,31.943016 L111.681356,31.943016 C109.808475,31.943016 108.24774,30.5098393 108.24774,28.6404784 C108.24774,26.7711175 109.808475,25.2756288 111.681356,25.2756288 L123.856045,25.2756288 C126.041073,25.2756288 127.726186,26.9580536 127.726186,29.1389746 L127.726186,40.7918036 C127.726186,42.9732039 126.852655,44.5310047 125.042203,45.6521419 C121.29596,48.1451024 116.051893,50.3878562 109.496328,50.3878562 C95.8238136,50.3878562 86.8339831,40.6671795 86.8339831,27.9550461" id="Fill-6" fill="#EE382A"></path>
            <path d="M82.4547542,41.7598929 C86.6413644,34.5216316 84.9764209,25.5185019 78.9294153,20.1951372 C78.1375226,19.4977218 76.8975791,19.7158139 76.3698107,20.6289248 L74.1247542,24.510485 C73.7559407,25.147985 73.8346977,25.9618759 74.3480593,26.4900902 C77.2491045,29.4772331 77.953596,34.1237932 75.7661667,37.9056541 C73.5787373,41.6870357 69.1947542,43.4015752 65.1526921,42.3873271 C64.4371554,42.2075808 63.6918446,42.5464624 63.3230311,43.1839624 L61.0779746,47.0655226 C60.549726,47.9786335 60.9804887,49.1592068 61.9812797,49.4952124 C69.623596,52.0605508 78.2681441,48.9981541 82.4547542,41.7598929" id="Fill-8" fill="#A6A8AB"></path>
            <path d="M59.1861723,28.351015 C61.3745621,24.5677162 65.7619068,22.8531767 69.8058898,23.8707801 C70.5175847,24.050047 71.2590537,23.7121241 71.6259463,23.0779793 L73.8796469,19.1820395 C74.4050141,18.2737218 73.9761723,17.0993797 72.9806638,16.764812 C65.3359463,14.1932425 56.6861158,17.2556391 52.4975847,24.4967763 C48.3090537,31.7379135 49.9768785,40.7458365 56.0306073,46.0682425 C56.8186582,46.761344 58.0518785,46.5446898 58.5772458,45.6363722 L60.8309463,41.7404323 C61.197839,41.1062876 61.1200424,40.2962312 60.6086017,39.7708929 C57.7037147,36.7842293 56.9977825,32.1343139 59.1861723,28.351015" id="Fill-10" fill="#A6A8AB"></path>
            <path d="M162.490946,41.7598929 C166.677556,34.5216316 165.012613,25.5185019 158.965607,20.1951372 C158.173715,19.4977218 156.933771,19.7158139 156.406003,20.6289248 L154.160946,24.510485 C153.792133,25.147985 153.87089,25.9618759 154.384251,26.4900902 C157.285297,29.4772331 157.989788,34.1237932 155.802359,37.9056541 C153.614929,41.6870357 149.230946,43.4015752 145.188884,42.3873271 C144.473347,42.2075808 143.728037,42.5464624 143.359223,43.1839624 L141.114167,47.0655226 C140.585918,47.9786335 141.016681,49.1592068 142.017472,49.4952124 C149.659788,52.0605508 158.304336,48.9981541 162.490946,41.7598929" id="Fill-12" fill="#EE382A"></path>
            <path d="M139.222316,28.351015 C141.410706,24.5677162 145.798051,22.8531767 149.842034,23.8707801 C150.553729,24.050047 151.295198,23.7121241 151.66209,23.0779793 L153.915791,19.1820395 C154.441158,18.2737218 154.012316,17.0993797 153.016808,16.764812 C145.37209,14.1932425 136.72226,17.2556391 132.533729,24.4967763 C128.345198,31.7379135 130.013023,40.7458365 136.066271,46.0682425 C136.854802,46.761344 138.088023,46.5446898 138.61339,45.6363722 L140.86709,41.7404323 C141.233983,41.1062876 141.156186,40.2962312 140.644746,39.7708929 C137.739859,36.7842293 137.033927,32.1343139 139.222316,28.351015" id="Fill-14" fill="#EE382A"></path>
        </g>
    </g>
</svg>