<?xml version="1.0" encoding="utf-8"?>
<!-- Generator: Adobe Illustrator 18.0.0, SVG Export Plug-In . SVG Version: 6.00 Build 0)  -->
<!DOCTYPE svg PUBLIC "-//W3C//DTD SVG 1.1//EN" "http://www.w3.org/Graphics/SVG/1.1/DTD/svg11.dtd">
<svg version="1.1" id="Layer_1" xmlns="http://www.w3.org/2000/svg" xmlns:xlink="http://www.w3.org/1999/xlink" x="0px" y="0px"
	 viewBox="0 248.2 612 259.8" enable-background="new 0 248.2 612 259.8" xml:space="preserve">
<g>
	<g id="Layer_1_1_">
		<g>
			<g>
				<path fill="#414142" d="M0,338h52.3c30.8,0,46,18.9,46,44.3c0,26.1-18.3,42.9-44.3,42.9H24.8v44.3H0V338z M24.8,404.5h24.6
					c15.6,0,23-9.2,23-22.2c0-18.3-9.9-23.7-24.1-23.7H24.8V404.5z"/>
				<path fill="#414142" d="M126.7,338h62c21.6,0,38.9,10.9,38.9,32.7c0,14.4-8,23.9-22.3,26.7v0.3c18.2,1.9,28.2,16.8,28.2,32.5
					c0,32.9-23.5,39.3-50.9,39.3h-55.9V338z M151.6,390.8H181c10.9,0,20.9-4.3,20.9-16.8c0-10-6.4-16.4-20.9-16.4h-29.4V390.8z
					 M151.6,447.8h32.2c14.9,0,24.1-4.7,24.1-18.3c0-14.7-9.2-20.1-24.2-20.1h-32V447.8z"/>
				<path fill="#414142" d="M277.1,429.4c9,13.5,23.2,19.6,38.9,19.6c11.8,0,27.3-4,27.3-16.4c0-10.2-9.3-13-26.7-17l-14.4-3.3
					c-20.6-4.7-38.8-12.3-38.8-36c0-27.2,26-40.3,50-40.3c22.2,0,40.5,8.1,53.8,26l-20.1,15.2c-6.2-11.8-18.2-18.7-33.9-18.7
					c-14,0-24.4,5.2-24.4,14.4c0,10.7,12.1,13.2,26.7,16.4l15.8,3.5c19.2,4.2,37.4,11.9,37.4,36.5c0,31.5-29.8,42.4-56.6,42.4
					c-21.5,0-43.4-9.2-55.9-27.2L277.1,429.4z"/>
				<path fill="#414142" d="M482.9,382.5c-2.1-14.4-13.8-24.1-28.4-24.1c-25.8,0-36.5,22.8-36.5,45.3s10.7,45.3,36.5,45.3
					c16.8,0,26.5-11.1,31.2-26.1l22.2,10.2c-10.4,26-27.5,38.4-53.3,38.4c-41.4,0-61.8-31.3-61.8-67.8s23.2-67.8,61.8-67.8
					c26,0,45.7,13.7,51.9,40.7L482.9,382.5z"/>
			</g>
			<g>
				<path fill="#79BC43" d="M546.4,272.9l-26.5,20.8c35.5,22.8,58.8,62.3,60.2,106.1c1.7-6.4,2.9-12.8,3.6-19.6
					C588.5,338.9,572.5,301.3,546.4,272.9z"/>
				<path fill="#40C2CC" d="M400,284.9c44.3-17.5,81.9-13.2,119.8,8.8c-4.5-4.8-9.3-9.3-14.7-13.5c-32.2-25.6-67.8-36.9-105.2-30.1
					C399.3,250.3,400,284.9,400,284.9z"/>
				<path fill="#939598" d="M612,412.1l-32-12.5c-1.9,42.2-19.6,85-56.6,108.3C569.2,492.2,600.8,449,612,412.1z"/>
			</g>
		</g>
	</g>
	<g id="Layer_2">
	</g>
</g>
</svg>
