<?xml version="1.0" encoding="utf-8"?>
<!-- Generator: Adobe Illustrator 18.0.0, SVG Export Plug-In . SVG Version: 6.00 Build 0)  -->
<!DOCTYPE svg PUBLIC "-//W3C//DTD SVG 1.1//EN" "http://www.w3.org/Graphics/SVG/1.1/DTD/svg11.dtd">
<svg version="1.1" id="Layer_1" xmlns="http://www.w3.org/2000/svg" xmlns:xlink="http://www.w3.org/1999/xlink" x="0px" y="0px"
	 viewBox="140.8 358.5 342.2 53.5" enable-background="new 140.8 358.5 342.2 53.5" xml:space="preserve">
<g>
	<g opacity="0.75">
		<g>
			<path fill="#0D0D0D" d="M332,375.3l-6.3,19c-0.7,2.2-1.9,2.6-3.3,2.6c-1.4,0-2.6-0.4-3.4-2.6l-6.3-19c-0.1-0.2-0.1-0.2-0.1-0.3
				c0-0.4,0.3-0.7,0.8-0.7h0.5c0.3,0,0.7,0.2,0.9,0.8l6.2,18.9c0.5,1.2,0.9,1.5,1.5,1.5c0.5,0,0.9-0.2,1.4-1.5l6.2-18.9
				c0.2-0.6,0.5-0.8,0.9-0.8h0.6c0.5,0,0.7,0.2,0.7,0.6C332,375.1,332,375.1,332,375.3z"/>
			<path fill="#0D0D0D" d="M355,386h-16.4v0.9c0,7,3.9,8.5,8.7,8.5c2.2,0,4.8-0.3,7.2-0.7c0.1,0,0.2-0.1,0.3-0.1
				c0.4,0,0.7,0.2,0.7,0.6v0.3c0,0.5-0.2,0.7-0.9,0.8c-2.3,0.4-5.1,0.7-7.3,0.7c-6,0-10.9-2.2-10.9-10.2v-2.8c0-5.8,3.4-10,9.8-10
				c6.6,0,9.7,4,9.7,10v1.2C355.9,385.6,355.5,386,355,386z M353.8,384c0-5.3-2-8.3-7.5-8.3c-5.4,0-7.6,3.4-7.6,8.3v0.2h15.1V384z"
				/>
			<path fill="#0D0D0D" d="M379.4,397h-0.5c-0.5,0-0.9-0.4-0.9-0.8v-14.5c0-5.3-2.8-6-6-6H370c-3.2,0-6,0.7-6,6v14.5
				c0,0.4-0.3,0.8-0.9,0.8h-0.5c-0.5,0-0.9-0.4-0.9-0.8v-14.5c0-7,4.9-7.7,8.2-7.7h2.1c3.3,0,8.2,0.7,8.2,7.7v14.5
				C380.2,396.6,379.9,397,379.4,397z"/>
			<path fill="#0D0D0D" d="M397,396.9c-0.6,0.1-2.2,0.2-3.7,0.2c-4.2,0-6.6-1.2-6.6-5.3v-22c0-0.4,0.4-0.8,0.9-0.8h0.4
				c0.5,0,0.9,0.4,0.9,0.8v4.7h8.1c0.5,0,0.9,0.2,0.9,0.7v0.4c0,0.4-0.4,0.7-0.9,0.7h-8.1v15.6c0,3.2,1.2,3.7,4.5,3.7h3.7
				c0.7,0,1,0.2,1,0.5v0.3C398,396.5,398,396.8,397,396.9z"/>
			<path fill="#0D0D0D" d="M412.3,397h-0.9c-3.3,0-8.7-1.5-8.7-8.4v-13.5c0-0.4,0.3-0.8,0.8-0.8h0.5c0.5,0,0.8,0.4,0.8,0.8v13.5
				c0,5.3,3.3,6.7,6.6,6.7h0.9c3.3,0,6.6-1.3,6.6-6.7v-13.5c0-0.4,0.3-0.8,0.8-0.8h0.5c0.5,0,0.8,0.4,0.8,0.8v13.5
				C421.1,395.5,415.7,397,412.3,397z"/>
			<path fill="#0D0D0D" d="M436.5,375.7H435c-2.5,0-3.8,0.2-5.3,1v19.5c0,0.4-0.3,0.8-0.9,0.8h-0.5c-0.5,0-0.8-0.4-0.8-0.8v-19.9
				c0-0.3,0.2-0.6,0.5-0.7c2.4-1.2,4.4-1.6,7-1.6c2.2,0,2.5,0.2,2.5,0.8v0.2C437.5,375.5,437.2,375.7,436.5,375.7z"/>
			<path fill="#0D0D0D" d="M460.4,386H444v0.9c0,7,3.9,8.5,8.7,8.5c2.2,0,4.8-0.3,7.2-0.7c0.1,0,0.2-0.1,0.3-0.1
				c0.4,0,0.7,0.2,0.7,0.6v0.3c0,0.5-0.2,0.7-0.9,0.8c-2.3,0.4-5.1,0.7-7.3,0.7c-6,0-10.9-2.2-10.9-10.2v-2.8c0-5.8,3.4-10,9.8-10
				c6.6,0,9.7,4,9.7,10v1.2C461.3,385.6,460.9,386,460.4,386z M459.2,384c0-5.3-2-8.3-7.5-8.3c-5.4,0-7.7,3.4-7.7,8.3v0.2h15.1
				L459.2,384L459.2,384z"/>
			<path fill="#0D0D0D" d="M474.5,397c-2.2,0-5.3-0.3-7-0.6c-0.7-0.2-1.1-0.3-1.1-0.7v-0.5c0-0.4,0.3-0.6,0.8-0.6c0.1,0,0.2,0,0.3,0
				c2.3,0.3,5.1,0.7,7.1,0.7c3.5,0,6.2-0.8,6.2-4.2c0-1.7-1.1-2.6-5.1-4.6l-3.1-1.5c-3.6-1.7-5.9-3.1-5.9-6c0-3.9,3.6-5.2,7.4-5.2
				c3.5,0,5.3,0.2,7,0.4c0.7,0.1,1,0.3,1,0.7v0.3c0,0.5-0.3,0.7-0.9,0.7c-0.1,0-0.2,0-0.2,0c-1.2-0.2-4.1-0.5-6.7-0.5
				c-3.1,0-5.5,0.5-5.5,3.5c0,1.9,1.8,2.9,4.7,4.3l3.2,1.5c4,1.9,6.2,3.3,6.2,6.1C482.9,395.7,478.9,397,474.5,397z"/>
		</g>
	</g>
	<path fill="#0D0D0D" d="M220.4,379.3L220.4,379.3h-0.5h-0.1c-0.1,0-0.2,0-0.3,0c-2.9,0-4.9,0.4-6.3,1.1c-1.3,0.7-1.9,1.8-1.9,3.2
		v1.3l0,0v0.1v12h-5.9v-15.4c0-2.2,1-3.8,3-4.9c2.3-1.3,6-2,11.1-2c0.1,0,0.2,0,0.2,0h0.1l0,0h6.6v4.6L220.4,379.3L220.4,379.3z"/>
	<path fill="#0D0D0D" d="M242.2,397.5c-5,0-8.8-0.7-11.1-2c-2-1.2-3-2.9-3-5.2v-9.4c0-2.1,1-3.6,3-4.7c2.3-1.3,6.1-1.9,11.1-1.9
		c4.9,0,8.6,0.6,11,1.9c1.9,0.9,2.9,2.3,2.9,3.6v7.3c0,1.1-0.1,1.4-0.1,1.5c0,0-0.1,0-0.2,0c-0.1,0-0.1,0-0.2,0c-0.1,0-0.2,0-0.2,0
		h-20.6h-0.5v0.5l0,0l0,0l0,0v0.5c0,1.4,0.6,2.5,1.9,3.2c1.3,0.7,3.4,1.1,6.3,1.1c0.2,0,10.5,0,13.1,0v3.9
		C252.8,397.5,242.3,397.5,242.2,397.5L242.2,397.5z M234.8,384.2L234.8,384.2h0.5h14.5h0.5v-0.5v-1.5c0-2.9-2.7-4.2-8.2-4.2
		c-2.9,0-4.9,0.4-6.3,1.1c-1.3,0.7-1.9,1.2-1.9,2.5v0.9v0.9v0.2v0.5h0.5L234.8,384.2L234.8,384.2z"/>
	<path fill="#0D0D0D" d="M305.1,392.4L305.1,392.4h-0.5h-0.1c-0.1,0-0.2,0-0.3,0c-2.9,0-4.9-0.4-6.3-1.1c-1.3-0.7-1.9-1.8-1.9-3.2
		v-1.4l0,0c0-0.1,0-0.1,0-0.1v-12h-6v15.4c0,2.2,1,3.8,3,4.9c2.3,1.3,6.1,2,11.1,2c0.1,0,0.2,0,0.2,0h0.1l0,0h6.6v-4.6H305.1z"/>
	<path fill="#0D0D0D" d="M272.8,374.2c5,0,8.8,0.7,11.1,2c2,1.2,3,2.9,3,5.2v9.4c0,2.1-1,3.6-3,4.7c-2.3,1.3-6.1,1.9-11.1,1.9
		c-4.9,0-8.6-0.6-11-1.9c-1.9-0.9-2.9-2.3-2.9-3.6v-7.3c0-1.1,0.1-1.4,0.1-1.5c0,0,0.1,0,0.2,0s0.2,0,0.2,0c0.1,0,0.2,0,0.2,0h20.6
		h0.5v-0.5l0,0l0,0l0,0v-0.5c0-1.4-0.6-2.5-1.9-3.2c-1.3-0.7-3.4-1.1-6.3-1.1c-0.2,0-10.5,0-13.1,0v-3.9
		C262.3,374.2,272.7,374.2,272.8,374.2L272.8,374.2z M280.3,387.6L280.3,387.6h-0.5h-14.5h-0.5v0.5v1.5c0,2.9,2.7,4.2,8.2,4.2
		c2.9,0,4.9-0.4,6.3-1.1c1.3-0.7,1.9-1.2,1.9-2.5v-0.9v-0.9v-0.2v-0.5h-0.5H280.3L280.3,387.6z"/>
	
		<linearGradient id="SVGID_1_" gradientUnits="userSpaceOnUse" x1="245.1846" y1="480.0249" x2="188.4154" y2="519.7751" gradientTransform="matrix(0.7727 0 0 -0.7727 6.029823e-06 771.5455)">
		<stop  offset="0" style="stop-color:#015D62"/>
		<stop  offset="1" style="stop-color:#00BABF"/>
	</linearGradient>
	<path fill="url(#SVGID_1_)" d="M186.5,366.3c-4.9-4.9-11.5-7.8-18.9-7.8c-7.4,0-14.1,3-18.9,7.8c-4.9,4.9-7.8,11.5-7.8,18.9
		c0,7.3,3,14.1,7.8,18.9c4.9,4.9,11.5,7.8,18.9,7.8l0,0c7.3,0,14.1-3,18.9-7.8c4.9-4.9,7.8-11.5,7.8-18.9
		C194.3,377.9,191.3,371.2,186.5,366.3z M182.8,400.6c-3.9,3.9-9.3,6.3-15.3,6.3c-5.9,0-11.4-2.4-15.3-6.3
		c-3.9-3.9-6.3-9.3-6.3-15.3c0-6,2.4-11.4,6.3-15.3c3.9-3.9,9.3-6.3,15.3-6.3c5.9,0,11.4,2.4,15.3,6.3c3.9,3.9,6.3,9.3,6.3,15.3
		C189.2,391.2,186.8,396.6,182.8,400.6z M172.2,373.5L172.2,373.5c-0.2,0-0.2,0-0.3,0c-5.3,0-9.3,0.7-11.8,2.1
		c-2.2,1.2-3.2,2.9-3.2,5.3v17.1h6.3v-13.4v-0.1l0,0v-0.7c0-1.5,0.7-2.6,2.1-3.3c1.4-0.8,3.6-1.2,6.6-1.2c0.1,0,0.2,0,0.3,0h0.1h0.6
		l0,0h6.5v-5.7L172.2,373.5L172.2,373.5z"/>
</g>
</svg>
