<?xml version="1.0" encoding="UTF-8"?>
<svg width="272px" height="220px" viewBox="0 0 272 220" version="1.1" xmlns="http://www.w3.org/2000/svg" xmlns:xlink="http://www.w3.org/1999/xlink">
    <!-- Generator: Sketch 52.5 (67469) - http://www.bohemiancoding.com/sketch -->
    <title>Agencies/Partners/USA/RTC-LasVegas/color</title>
    <desc>Created with Sketch.</desc>
    <g id="Agencies/Partners/USA/RTC-LasVegas/color" stroke="none" stroke-width="1" fill="none" fill-rule="evenodd">
        <path d="M65.37752,149.44796 C77.19792,149.44796 79.09312,145.50316 79.09312,134.94356 C79.09312,124.54716 77.35672,120.60316 65.37752,120.60316 L65.37752,149.44796 Z M39.21512,216.74796 L39.21512,104.52756 L65.53792,104.52756 C90.43632,104.52756 105.25192,107.04836 105.25192,130.68956 C105.25192,144.72116 99.42152,153.86196 85.23472,156.22076 L85.23472,156.53836 C97.84632,156.85276 105.25192,161.58476 105.25192,177.65276 L105.25192,201.13996 C105.25192,205.55596 106.03952,212.17356 109.19312,216.74796 L82.87152,216.74796 C79.71832,212.17356 79.09312,205.55596 79.09312,201.13996 L79.09312,177.34356 C79.09312,169.46156 74.36232,165.52156 69.63432,165.52156 L65.37752,165.52156 L65.37752,216.74796 L39.21512,216.74796 Z M231.75568,173.0886 L231.75568,187.8986 C231.75568,208.8594 220.56768,218.9482 198.50048,218.9482 C181.16608,218.9482 165.55808,211.8586 165.55808,186.1726 L165.55808,135.1054 C165.55808,109.4138 181.16608,102.3178 198.50048,102.3178 C217.56888,102.3178 231.75568,107.9958 231.75568,132.2642 L231.75568,144.5614 L205.59408,144.5614 L205.59408,129.1158 C205.59408,124.547 204.17648,120.2874 198.50048,120.2874 C193.14368,120.2874 191.72488,124.547 191.72488,129.1158 L191.72488,192.1594 C191.72488,196.729 193.14368,200.981 198.50048,200.981 C204.17648,200.981 205.59408,196.729 205.59408,192.1594 L205.74848,173.0886 L231.75568,173.0886 Z M133.3006,216.74796 L118.379,216.74796 L126.6746,114.91116 L105.0718,114.91116 L105.0718,96.23556 L136.0398,96.23556 L133.3006,216.74796 Z M167.80156,96.23548 L167.80156,114.91108 L146.20476,114.91108 L154.49716,216.74788 L139.71796,216.74788 L137.03916,96.23548 L167.80156,96.23548 Z" id="rtc" fill="#1C3B6B"></path>
        <path d="M225.48732,92.01104 L219.87052,89.57304 L271.58732,83.91544 L271.69052,83.90544 L225.48732,92.01104 Z M216.89844,87.77668 L211.06164,85.22268 L268.08924,73.84228 L268.18124,73.82388 L216.89844,87.77668 Z M44.70372,92.01104 L0.00012,84.15264 L0.09372,84.16504 L50.07172,89.57304 L44.70372,92.01104 Z M55.909,87.52628 L3.631,73.32468 L3.7278,73.35028 L61.7438,84.84908 L55.909,87.52628 Z M262.80936,63.7468 L262.90376,63.7132 L201.30456,85.946 L193.54096,82.3896 L180.11896,75.5976 L159.68656,79.6852 L137.75616,67.4924 L111.13576,78.8104 L99.24016,73.7712 L72.13096,85.0388 L9.95976,61.2452 L10.05656,61.2712 L75.16976,80.8808 C75.41576,80.5232 75.84576,80.0972 76.10456,79.7432 L17.83776,49.9224 L17.92016,49.9664 L79.31856,75.6852 C79.50336,75.4708 79.81296,75.1968 80.00536,74.9904 L26.53536,40.376 L26.61136,40.4232 L83.91216,71.3428 C84.21376,71.0716 84.52376,70.6864 84.83136,70.4252 L35.77256,31.6208 L35.84696,31.6784 L89.36536,67.0312 C89.70856,66.78 90.12256,66.4812 90.47576,66.2416 L46.85376,23.988 L46.91816,24.0432 L95.48736,63.2764 C95.82376,63.0928 96.56976,62.7044 96.56976,62.7044 L60.44096,16.568 L60.49536,16.6304 L101.92336,60.1612 C101.92336,60.1612 102.77616,59.7556 102.78736,59.7892 L73.85576,10.8852 L73.89576,10.9536 L108.47456,57.696 L110.72896,56.9936 L90.21456,5.7084 L90.24696,5.7848 L116.70616,55.4276 C116.70616,55.4276 117.62696,55.2156 118.34296,55.0648 L104.87336,2.8072 L104.89776,2.8828 L124.48056,54.062 C124.98616,53.9952 125.61776,53.9896 126.12976,53.932 L121.64696,0.6164 L121.65416,0.6952 L132.40296,53.4212 C132.70296,53.4096 133.06896,53.4036 133.37096,53.3988 L137.05736,-9.9475983e-14 L137.05736,0.0716 L139.76296,53.3936 C140.04376,53.3988 140.44936,53.3492 140.73056,53.36 L152.28616,1.2236 L152.29496,1.1476 L146.96456,53.8492 C147.50736,53.9156 148.15696,54.062 148.69136,54.1404 L168.99816,3.6996 L169.02376,3.628 L154.84256,55.0556 C155.38376,55.1772 156.11656,55.2888 156.65736,55.4136 L183.59456,6.8548 L183.62936,6.7884 L162.54816,56.9472 C163.29976,57.1868 164.28816,57.442 165.02416,57.7004 L199.85576,12.3164 L199.89976,12.2524 L170.58256,59.8628 C170.86776,59.9912 171.40616,60.1768 171.68976,60.3012 L213.15616,18.2284 L213.20616,18.1664 L176.96296,62.7868 C177.32896,62.9948 178.01056,63.3256 178.36976,63.5324 L226.60056,25.8704 L226.66496,25.8152 L183.21936,66.4452 C183.59176,66.7132 184.13976,67.1712 184.50576,67.438 L237.53696,33.7004 L237.61176,33.6456 L188.82616,70.8436 C188.82616,70.8436 189.80936,71.5076 190.12496,71.8036 L246.61776,42.6008 L246.69776,42.5548 L193.74616,75.5072 C193.94696,75.7272 194.40536,76.2304 194.60216,76.4636 L255.14256,52.2996 L255.22656,52.2584 L197.81776,80.358 C197.88656,80.3644 198.51376,81.4852 198.51376,81.4296 L262.80936,63.7468 Z" id="crown" fill="#1C3B6B"></path>
    </g>
</svg>