<?xml version="1.0" encoding="UTF-8"?>
<svg width="447px" height="115px" viewBox="0 0 447 115" version="1.1" xmlns="http://www.w3.org/2000/svg" xmlns:xlink="http://www.w3.org/1999/xlink">
    <!-- Generator: Sketch 52.5 (67469) - http://www.bohemiancoding.com/sketch -->
    <title>Agencies/Partners/Canada/SaskatoonTransit/color</title>
    <desc>Created with Sketch.</desc>
    <g id="Agencies/Partners/Canada/SaskatoonTransit/color" stroke="none" stroke-width="1" fill="none" fill-rule="evenodd">
        <path d="M170.640897,78.0923622 C163.313028,78.0923622 146.825323,78.8159985 143.894175,89.3650896 C142.428602,95.179635 147.55811,98.0923623 152.687618,98.0923623 C162.213848,98.0923623 172.106471,93.0014532 175.037618,83.5469076 L176.503192,78.4559985 L170.640897,78.4559985 L170.640897,78.0923622 Z M169.90811,102.819635 C161.847454,111.183271 151.588438,114.455998 141.695815,114.455998 C127.406471,114.455998 116.414667,106.088726 120.811388,90.0923622 C128.505651,62.8196349 160.748274,62.4523623 180.899913,62.4523623 C183.464667,53.7287259 177.968765,48.2741805 169.541716,48.2741805 C161.847454,48.2741805 154.153192,51.9105441 147.55811,57.7250895 L138.398274,44.6378166 C149.390077,36.2741805 163.313028,31.910544 175.770405,31.910544 C203.616307,31.910544 206.913848,46.4559984 199.585979,72.6378168 L188.594175,112.637817 L166.610569,112.637817 L169.90811,102.819635 Z M214.60811,34.0901805 L237.324503,34.0901805 L234.389692,44.635635 L234.759749,44.635635 C239.522864,38.4538167 249.045429,31.9083621 260.773684,31.9083621 C284.955651,31.9083621 284.955651,47.9083623 279.093356,69.0029076 L267.002372,112.271998 L243.186798,112.271998 L253.812208,73.7265441 C256.373298,64.6356348 259.30811,52.9992714 247.213462,52.9992714 C234.759749,52.9992714 230.363028,62.817453 227.43188,72.9992712 L216.440077,112.271998 L192.624503,112.271998 L214.60811,34.0901805 Z M332.218939,56.9985441 C330.020578,52.6385439 325.990252,50.4530895 320.127955,50.4530895 C316.101292,50.4530895 310.968121,52.2712713 309.502546,56.9985441 C306.205006,68.6349075 349.076701,58.8167259 341.012383,88.6349076 C335.516479,108.634908 314.632054,114.456726 298.144349,114.456726 C287.518939,114.456726 276.160742,111.543998 270.664841,103.907635 L289.7173,87.5439984 C292.648448,92.9985441 297.045169,96.2749077 304.006645,96.2749077 C309.502546,96.2749077 315.36484,94.8167259 316.464022,90.4530894 C320.127955,77.7258168 276.893529,88.6349076 285.320579,58.4530896 C290.453751,39.9112713 308.773423,31.9112712 325.261129,31.9112712 C335.516479,31.9112712 346.141891,34.4567259 350.908669,42.0894531 L332.218939,56.9985441 Z M359.333521,34.0901805 L383.149093,34.0901805 L361.165486,112.639271 L337.349914,112.639271 L359.333521,34.0901805 Z M441.403453,53.3621805 L420.522691,53.3621805 L413.194822,79.5439986 C410.992798,87.907635 410.260009,94.089453 420.522691,94.089453 C423.083779,94.089453 428.21329,93.729453 430.781707,91.9112712 L425.285806,112.271271 C419.419846,114.089453 413.557552,114.816726 408.061648,114.816726 C392.310394,114.816726 381.681322,108.274908 386.444437,91.1803623 L396.707116,53.7294531 L381.318592,53.7294531 L386.814493,34.4567259 L402.203017,34.4567259 L408.7981,11.1803622 L432.613675,11.1803622 L426.018592,34.4567259 L446.899354,34.4567259 L441.403453,53.3621805 Z M57.4238575,87.9076359 C56.324677,92.2712724 53.3935294,102.820363 50.8287754,112.638545 L24.4484475,112.638545 C0.266480329,112.638545 6.8615623,88.2749088 6.8615623,88.2749088 L14.922218,58.8167268 L0.999267213,58.8167268 L7.59434917,34.0894542 L21.5173,34.0894542 L28.4787754,9.72581782 L54.4927099,9.72581782 L47.8976278,34.0894542 L72.0795952,34.0894542 C69.5148409,43.9076361 66.2173,55.5476361 65.4845131,58.8167268 L39.8369722,58.8167268 L31.7763163,87.9076359 L57.4238575,87.9076359 Z M132.169585,32.2719984 C134.734339,32.2719984 138.03188,32.2719984 140.230241,32.6392713 L134.001552,54.8174532 C130.704011,54.0901803 127.772864,53.3629077 124.108929,53.3629077 C111.285159,53.3629077 104.690077,58.8174531 100.659749,67.5447258 L84.904831,35.5447257 L85.2712246,34.0901805 L109.086798,34.0901805 L105.422864,46.8174531 L105.789257,46.8174531 C113.48352,37.3629075 121.544175,32.2719984 132.169585,32.2719984 Z M87.1031917,112.639271 L64.7531917,112.639271 L95.1638476,83.1810894 L87.1031917,112.639271 Z" id="Transit" fill="#027AA7" fill-rule="nonzero"></path>
        <polygon id="fleche" fill="#FE5000" points="69.8823337 64.6374546 44.2347925 64.6374546 39.4716778 82.092 65.119219 82.092 56.6921698 112.637455 97.3618417 73.361091 77.9429893 34.0883637"></polygon>
        <path d="M75.0118417,17.3643622 C76.111022,18.8152713 77.5765958,19.5461803 79.408563,19.5461803 C81.2405302,19.5461803 83.4388909,18.4552713 83.4388909,16.2734531 C83.4388909,11.542544 73.5462679,14.4552713 73.5462679,6.45527127 C73.5462679,3.90981672 75.3782351,0.63345309 80.5077433,0.63345309 C82.706104,0.63345309 84.9044647,1.00072582 86.3700384,2.81890764 L84.1716778,5.00072583 C83.4388909,3.90981672 82.3397105,3.182544 80.5077433,3.182544 C77.5765958,3.182544 76.4774155,5.00072583 76.4774155,6.45527127 C76.4774155,11.542544 86.3700384,8.63708946 86.3700384,15.9098167 C86.3700384,19.9098167 83.0724974,22.0916349 79.408563,22.0916349 C76.8438089,22.0916349 74.2790548,21.3643622 73.1798745,19.182544 L75.0118417,17.3643622 Z M120.811022,14.0901804 L117.147088,4.63563492 L113.483153,14.0901804 L120.811022,14.0901804 Z M115.681514,1.36290763 L118.246268,1.36290763 L126.673317,21.7301803 L123.375776,21.7301803 L121.543809,16.6356349 L112.017579,16.6356349 L110.185612,21.7301803 L106.888071,21.7301803 L115.681514,1.36290763 Z M149.755738,17.3643622 C150.854918,18.8152713 152.320492,19.5461803 154.152459,19.5461803 C155.984426,19.5461803 158.182787,18.4552713 158.182787,16.2734531 C158.182787,11.542544 148.290164,14.4552713 148.290164,6.45527127 C148.290164,3.90981672 150.122131,0.63345309 155.251639,0.63345309 C157.45,0.63345309 159.648361,1.00072582 161.113934,2.81890764 L158.54918,5.00072583 C157.816393,3.90981672 156.717213,3.182544 154.885246,3.182544 C151.954098,3.182544 150.854918,5.00072583 150.854918,6.45527127 C150.854918,11.542544 160.747541,8.63708946 160.747541,15.9098167 C160.747541,19.9098167 157.45,22.0916349 153.786066,22.0916349 C151.221311,22.0916349 148.656557,21.3643622 147.557377,19.182544 L149.755738,17.3643622 Z M183.464667,1.36290763 L186.029421,1.36290763 L186.029421,10.0901803 L186.395815,10.0901803 L195.189258,1.36290763 L198.853192,1.36290763 L189.326962,10.8210895 L199.585979,21.7301803 L195.555651,21.7301803 L186.029421,11.5447258 L185.663028,11.5447258 L185.663028,21.7301803 L183.098274,21.7301803 L183.098274,1.36290763 L183.464667,1.36290763 Z M232.561022,14.0901804 L228.897088,4.63563492 L225.233153,14.0901804 L232.561022,14.0901804 Z M227.797908,1.36290763 L230.362662,1.36290763 L238.789711,21.7301803 L235.49217,21.7301803 L233.660202,16.6356349 L224.133973,16.6356349 L222.302006,21.7301803 L219.004465,21.7301803 L227.797908,1.36290763 Z M264.804744,3.90908946 L258.205998,3.90908946 L258.205998,1.36363491 L273.96458,1.36363491 L273.96458,3.90908946 L267.365834,3.90908946 L267.365834,21.7272713 L264.804744,21.7272713 L264.804744,3.90908946 Z M311.333779,11.5439986 C311.333779,7.18399854 308.402632,3.54763491 303.639517,3.54763491 C298.880067,3.54763491 295.94892,7.18399854 295.94892,11.5439986 C295.94892,15.9076349 298.880067,19.5439985 303.639517,19.5439985 C308.402632,19.5439985 311.333779,15.9076349 311.333779,11.5439986 Z M293.014108,11.5439986 C293.014108,5.36581674 297.410829,1.00218036 303.639517,1.00218036 C309.87187,1.00218036 314.268592,5.72581674 314.268592,11.5439986 C314.268592,17.7258167 309.87187,22.4530894 303.639517,22.4530894 C297.410829,22.0894531 293.014108,17.7258167 293.014108,11.5439986 Z M348.706645,11.5439986 C348.706645,7.18399854 345.775498,3.54763491 341.012383,3.54763491 C336.252931,3.54763491 333.318121,7.18399854 333.318121,11.5439986 C333.318121,15.9076349 336.252931,19.5439985 341.012383,19.5439985 C345.412768,19.5439985 348.706645,15.9076349 348.706645,11.5439986 Z M330.386971,11.5439986 C330.386971,5.36581674 334.783693,1.00218036 341.012383,1.00218036 C347.244733,1.00218036 351.637792,5.72581674 351.637792,11.5439986 C351.637792,17.7258167 347.244733,22.4530894 341.012383,22.4530894 C334.783693,22.0894531 330.386971,17.7258167 330.386971,11.5439986 Z M369.591802,1.36290763 L373.255738,1.36290763 L384.24754,18.0938167 L384.24754,1.36290763 L386.812294,1.36290763 L386.812294,21.7301803 L383.514754,21.7301803 L372.522952,4.99927128 L372.522952,21.7301803 L369.958198,21.7301803 L369.958198,1.36290763 L369.591802,1.36290763 Z" id="Sasktoon" fill="#027AA7" fill-rule="nonzero"></path>
    </g>
</svg>