<?xml version="1.0" encoding="UTF-8"?>
<svg width="188px" height="28px" viewBox="0 0 188 28" version="1.1" xmlns="http://www.w3.org/2000/svg" xmlns:xlink="http://www.w3.org/1999/xlink">
    <!-- Generator: Sketch 50.2 (55047) - http://www.bohemiancoding.com/sketch -->
    <title>The_Washington_Post</title>
    <desc>Created with Sketch.</desc>
    <defs></defs>
    <g id="The_Washington_Post" stroke="none" stroke-width="1" fill="none" fill-rule="evenodd">
        <path d="M3.619,10.557 C3.989,9.558 4.498,8.77 5.146,8.194 C5.236,8.158 5.326,8.135 5.416,8.126 C5.506,8.117 5.731,8.113 6.091,8.113 C6.289,8.113 6.464,8.126 6.618,8.154 C6.771,8.181 6.929,8.234 7.091,8.316 C7.253,8.397 7.442,8.509 7.658,8.653 L4.902,10.841 L5.551,11.354 L5.551,18.648 C4.849,18.305 4.29,17.783 3.876,17.081 C3.336,16.145 3.066,14.892 3.066,13.326 C3.066,12.48 3.25,11.557 3.619,10.557 Z M3.363,7.762 C3.525,7.762 3.732,7.789 3.984,7.843 C4.236,7.897 4.47,7.951 4.687,8.005 C3.174,8.671 2.003,9.779 1.175,11.327 C0.454,12.696 0.094,14.173 0.094,15.757 C0.094,17.738 0.783,19.435 2.161,20.849 C3.538,22.262 5.218,22.969 7.199,22.969 C9.107,22.969 10.719,22.239 12.034,20.782 C13.348,19.323 14.006,17.603 14.006,15.623 C13.826,16.037 13.623,16.384 13.398,16.662 C13.172,16.941 12.853,17.252 12.439,17.594 C12.169,17.828 11.925,18.004 11.71,18.12 C11.493,18.237 11.214,18.368 10.872,18.513 L10.872,8.788 C11.305,8.608 11.651,8.424 11.912,8.234 C12.173,8.046 12.457,7.771 12.764,7.41 C13.555,6.528 13.996,5.546 14.087,4.466 C13.511,4.845 12.993,5.124 12.534,5.304 C12.074,5.484 11.557,5.601 10.981,5.655 C10.89,5.655 10.764,5.664 10.602,5.682 C9.972,5.682 9.031,5.434 7.78,4.939 C6.528,4.444 5.542,4.196 4.822,4.196 C3.399,4.196 2.255,4.863 1.391,6.195 C0.617,7.384 0.229,8.797 0.229,10.436 C0.337,9.932 0.599,9.455 1.013,9.004 C1.301,8.68 1.652,8.392 2.067,8.14 C2.463,7.888 2.895,7.762 3.363,7.762 Z M16.518,22.834 L18.868,20.214 L17.679,18.971 L17.679,11.948 L18.355,11.49 L20.246,12.921 L20.246,22.186 C20.246,22.708 20.214,23.153 20.151,23.523 C20.088,23.891 19.948,24.211 19.732,24.482 C19.588,24.662 19.368,24.936 19.07,25.306 C18.773,25.674 18.399,25.967 17.95,26.183 C18.85,26.093 19.588,25.89 20.164,25.576 C20.741,25.26 21.335,24.76 21.947,24.076 C22.397,23.572 22.735,23.068 22.96,22.564 C23.185,22.06 23.334,21.52 23.406,20.943 L23.406,10.571 L22.596,10.625 L20.056,8.923 L18.219,10.436 L17.626,10.112 L17.626,4.98 L17.086,3.818 L14.681,6.168 L14.681,19.485 L13.952,20.349 L16.518,22.834 Z M24.568,19.89 L28.917,22.644 L33.05,18.296 L30.808,19.89 L28.052,17.918 L28.052,16.081 L32.968,12.407 L29.835,8.194 L24.838,11.679 L24.838,19.296 L24.568,19.89 Z M39.019,6.303 L39.019,11.354 C38.659,11.391 38.366,11.454 38.142,11.543 C37.916,11.633 37.678,11.787 37.425,12.002 C36.705,12.561 36.345,13.281 36.345,14.163 C36.345,14.325 36.354,14.47 36.372,14.596 C36.39,14.722 36.417,14.847 36.453,14.973 C36.705,14.758 36.953,14.613 37.195,14.542 C37.438,14.47 37.74,14.434 38.101,14.434 C38.28,14.434 38.425,14.452 38.533,14.487 C38.641,14.524 38.803,14.596 39.019,14.704 L39.019,19.674 L42.747,23.428 L46.177,19.944 L50.31,23.428 L56.334,17.594 L56.334,7.599 L52.607,4.736 L49.851,7.222 L46.097,4.736 L42.747,7.546 L42.747,5.898 C42.747,5.358 42.36,4.746 41.585,4.061 C41.351,3.899 41.13,3.733 40.923,3.562 C40.716,3.391 40.595,3.147 40.559,2.832 C40.523,2.517 40.505,2.261 40.505,2.062 C40.505,1.45 40.712,0.964 41.126,0.603 C40.91,0.567 40.757,0.549 40.667,0.549 C39.857,0.549 39.141,0.887 38.52,1.563 C37.898,2.238 37.587,2.99 37.587,3.818 C37.587,3.944 37.605,4.115 37.642,4.331 C37.803,5.214 38.262,5.871 39.019,6.303 Z M57.063,20.025 L60.413,22.374 L62.844,20.079 L65.734,22.104 L68.22,19.431 L67.355,19.431 L66.248,18.296 L66.248,10.382 L65.653,10.49 L62.844,8.14 L57.522,11.813 L57.522,19.566 L57.063,20.025 Z M73.176,8.666 C72.879,8.531 72.56,8.329 72.217,8.059 L67.814,11.165 L67.814,16.405 L68.22,16.729 L70.84,16.729 L67.436,22.644 C67.958,22.195 68.364,21.898 68.652,21.753 C69.048,21.556 69.489,21.456 69.976,21.456 C70.552,21.456 71.019,21.524 71.38,21.659 C71.74,21.795 72.109,22.033 72.488,22.374 L76.809,18.971 L76.809,13.651 L76.485,13.326 L73.595,13.326 L73.595,13.056 L76.161,8.545 C75.891,8.707 75.675,8.802 75.513,8.829 C75.35,8.856 75.09,8.869 74.73,8.869 L74.162,8.869 C73.801,8.869 73.473,8.802 73.176,8.666 Z M80.024,22.455 L82.401,19.809 L81.212,18.566 L81.212,11.543 L81.861,11.084 L83.778,12.543 L83.778,21.781 C83.778,22.321 83.747,22.766 83.684,23.118 C83.62,23.469 83.472,23.788 83.238,24.076 C83.094,24.256 82.896,24.517 82.644,24.861 C82.319,25.238 81.932,25.544 81.483,25.777 C82.311,25.706 83.045,25.503 83.684,25.17 C84.323,24.837 84.922,24.347 85.48,23.699 C85.894,23.212 86.219,22.703 86.453,22.172 C86.687,21.641 86.84,21.096 86.912,20.538 L86.912,10.166 L86.129,10.247 L83.563,8.545 L81.725,10.031 L81.131,9.706 L81.131,4.601 L80.618,3.413 L78.187,5.763 L78.187,19.106 L77.458,19.944 L80.024,22.455 Z M93.017,6.492 L90.585,4.52 L88.614,6.681 L90.667,8.545 L93.017,6.492 Z M89.208,12.596 L89.208,19.944 L88.695,20.728 L89.613,20.728 L91.72,22.51 L93.935,20.484 L96.772,22.779 L99.256,20.025 L98.473,19.026 L98.473,12.137 L99.121,11.813 L100.553,13.38 L100.553,20.133 L103.065,22.321 L105.496,19.566 L104.362,19.566 L103.714,18.513 L103.714,11.165 L104.038,10.49 L103.39,10.625 L100.904,8.653 L98.473,11.165 L95.637,8.923 L93.287,11.543 L94.205,11.543 L94.988,12.462 L94.988,19.215 L93.422,19.755 L92.423,18.971 L92.423,11.408 L92.746,10.949 L89.937,8.869 L87.642,11.3 L88.425,11.543 L89.208,12.596 Z M137.776,19.701 L136.993,18.701 L136.993,11.813 L137.641,11.49 L139.072,13.056 L139.072,19.836 L141.585,21.997 L144.016,19.242 L142.881,19.242 L142.233,18.189 L142.233,10.841 L142.557,10.193 L141.908,10.301 L139.424,8.329 L136.993,10.841 L134.156,8.599 L131.806,11.22 L132.725,11.22 L133.508,12.137 L133.508,18.918 L132.535,20.214 L135.533,22.186 L137.776,19.701 Z M106.009,19.755 C106.369,19.755 106.698,19.8 106.995,19.89 C107.293,19.98 107.585,20.137 107.873,20.363 C108.161,20.588 108.373,20.805 108.508,21.011 C108.643,21.219 108.755,21.501 108.846,21.861 L107.441,23.671 L105.955,25.671 C106.333,25.454 106.657,25.323 106.928,25.279 C107.198,25.233 107.594,25.211 108.117,25.211 C108.729,25.264 109.25,25.409 109.682,25.643 C110.116,25.877 110.51,26.228 110.872,26.697 C111.736,26.372 112.74,25.652 113.884,24.536 C115.027,23.419 115.599,22.501 115.599,21.781 C115.599,21.655 115.469,21.268 115.207,20.62 C114.945,19.971 114.815,19.287 114.815,18.566 L114.815,10.166 L111.061,7.815 L106.333,11.165 L106.333,19.161 L106.009,19.755 Z M115.329,10.517 L116.896,10.517 L116.896,19.89 L116.517,20.62 L117.435,20.62 L119.407,22.132 L121.947,19.242 L120.839,19.242 L120.11,18.458 L120.11,10.706 L121.704,8.734 L120.11,8.734 L120.11,3.575 L116.896,6.573 L116.896,8.626 L115.329,10.517 Z M122.163,19.755 L125.513,22.132 L131.347,18.053 L131.347,10.112 L130.753,10.247 L127.944,7.87 L122.622,11.543 L122.622,19.296 L122.163,19.755 Z M149.58,6.357 L149.58,8.869 C149.112,8.869 148.715,8.918 148.392,9.018 C148.067,9.117 147.757,9.31 147.459,9.599 C147.162,9.887 146.987,10.22 146.933,10.598 C146.878,10.976 146.852,11.471 146.852,12.084 C146.852,12.336 146.843,12.507 146.825,12.596 C147.221,11.966 147.77,11.705 148.472,11.813 C148.941,11.885 149.31,12.084 149.58,12.407 L149.58,16.594 C148.751,17.027 148.032,17.594 147.419,18.296 C146.734,19.106 146.276,19.944 146.042,20.808 C146.42,20.521 146.744,20.309 147.014,20.174 C147.284,20.039 147.662,19.9 148.149,19.755 C148.329,19.701 148.536,19.643 148.77,19.579 C149.004,19.517 149.274,19.485 149.58,19.485 L149.58,27.561 L153.119,24.67 L154.307,25.535 L154.307,20.943 L155.82,21.456 L160.925,17.918 L160.925,6.033 L157.657,3.413 L154.307,6.222 L154.307,4.736 L153.659,4.196 L153.659,6.573 L153.119,6.951 L153.119,4.466 L150.363,2.359 L147.096,5.574 C147.365,5.411 147.644,5.33 147.932,5.33 C148.166,5.33 148.392,5.367 148.607,5.439 C149.094,5.619 149.418,5.925 149.58,6.357 Z M161.384,20.025 L164.734,22.374 L170.596,18.296 L170.596,10.382 L170.002,10.49 L167.165,8.14 L161.844,11.813 L161.844,19.566 L161.384,20.025 Z M176.89,8.545 C176.62,8.419 176.286,8.221 175.89,7.951 L171.514,11.029 L171.514,16.271 L171.892,16.594 L174.513,16.594 L171.109,22.51 C171.487,22.186 171.802,21.943 172.054,21.781 C172.522,21.475 173.063,21.322 173.675,21.322 C174.234,21.322 174.692,21.39 175.053,21.524 C175.413,21.659 175.782,21.898 176.16,22.239 L180.482,18.836 L180.482,13.515 L180.158,13.191 L177.267,13.191 L177.267,12.921 L179.833,8.41 C179.564,8.572 179.347,8.666 179.185,8.694 C179.023,8.721 178.762,8.734 178.403,8.734 L177.835,8.734 C177.475,8.734 177.159,8.671 176.89,8.545 Z M180.563,10.652 L182.13,10.652 L182.13,20.025 L181.752,20.754 L182.67,20.754 L184.615,22.267 L187.181,19.376 L186.074,19.376 L185.345,18.594 L185.345,10.841 L186.911,8.869 L185.345,8.869 L185.345,3.71 L182.13,6.708 L182.13,8.761 L180.563,10.652 Z M60.737,10.895 L62.844,12.462 L62.844,18.756 L62.169,19.485 L60.737,18.242 L60.737,10.895 Z M113.032,21.97 C113.464,22.276 113.681,22.663 113.681,23.131 C113.681,23.346 113.663,23.509 113.627,23.617 C113.519,23.779 113.438,23.887 113.383,23.942 C113.239,24.085 113.059,24.176 112.844,24.211 C112.609,24.247 112.303,24.134 111.925,23.874 C111.547,23.612 110.979,23.482 110.224,23.482 C109.737,23.482 109.296,23.527 108.9,23.617 C108.504,23.707 108.089,23.86 107.657,24.076 L111.602,19.215 L111.602,19.836 C111.602,20.197 111.632,20.494 111.695,20.728 C111.759,20.962 111.898,21.187 112.114,21.403 C112.42,21.601 112.727,21.79 113.032,21.97 Z M109.548,10.571 L111.602,12.084 L111.602,18.189 L111.006,18.836 L109.548,17.378 L109.548,10.571 Z M28.052,15.298 L28.052,11.354 L30.024,13.839 L28.052,15.298 Z M74.324,10.841 L72.488,14.11 L71.11,14.11 L71.11,10.571 C71.65,10.913 72.235,11.084 72.865,11.084 C73.369,11.084 73.856,11.003 74.324,10.841 Z M125.837,10.625 L127.944,12.219 L127.944,18.513 L127.269,19.242 L125.837,17.972 L125.837,10.625 Z M71.623,16.081 L73.595,16.081 L73.595,19.566 C73.217,19.44 72.933,19.364 72.744,19.336 C72.555,19.31 72.163,19.296 71.569,19.296 C71.172,19.296 70.831,19.332 70.542,19.404 C70.254,19.476 69.912,19.593 69.516,19.755 L71.623,16.081 Z M153.119,8.734 L153.659,8.275 L153.659,23.699 L153.119,23.374 L153.119,8.734 Z M154.307,7.87 L155.955,6.817 L157.143,7.681 L157.143,17.837 C156.585,17.513 156.279,17.342 156.225,17.324 C156.171,17.306 155.973,17.243 155.631,17.135 C155.181,17.027 154.739,16.919 154.307,16.81 L154.307,7.87 Z M9.981,9.058 C10.161,9.058 10.305,9.04 10.413,9.004 L10.413,18.836 C9.711,19.179 8.981,19.35 8.225,19.35 C7.775,19.35 7.325,19.296 6.875,19.188 C6.424,19.08 6.073,18.936 5.821,18.756 L8.9,15.676 L8.9,8.923 C9.027,8.995 9.166,9.036 9.319,9.045 C9.472,9.054 9.576,9.058 9.63,9.058 C9.684,9.058 9.801,9.058 9.981,9.058 Z M165.058,10.895 L167.165,12.462 L167.165,18.756 L166.517,19.485 L165.058,18.242 L165.058,10.895 Z M42.747,8.329 L43.746,7.546 L45.826,9.653 L45.826,19.35 L44.989,20.214 L42.747,18.053 L42.747,8.329 Z M177.322,10.895 C177.556,10.86 177.781,10.796 177.997,10.706 L176.16,13.974 L174.782,13.974 L174.782,10.436 C175.34,10.778 175.935,10.949 176.566,10.949 C176.836,10.949 177.088,10.931 177.322,10.895 Z M175.296,15.946 L177.267,15.946 L177.267,19.431 C176.89,19.305 176.606,19.228 176.417,19.201 C176.227,19.174 175.835,19.161 175.242,19.161 C174.845,19.161 174.503,19.197 174.215,19.269 C173.927,19.341 173.594,19.458 173.216,19.62 L175.296,15.946 Z M49.851,8.329 L50.824,7.546 L52.931,9.653 L52.931,19.35 L52.066,20.214 L49.851,18.053 L49.851,8.329 Z" id="Fill-2" fill="#1A1919"></path>
    </g>
</svg>