<?xml version="1.0" encoding="utf-8"?>
<!-- Generator: Adobe Illustrator 18.0.0, SVG Export Plug-In . SVG Version: 6.00 Build 0)  -->
<!DOCTYPE svg PUBLIC "-//W3C//DTD SVG 1.1//EN" "http://www.w3.org/Graphics/SVG/1.1/DTD/svg11.dtd">
<svg version="1.1" id="Layer_1" xmlns="http://www.w3.org/2000/svg" xmlns:xlink="http://www.w3.org/1999/xlink" x="0px" y="0px"
	 viewBox="5 4.7 240 29.6" enable-background="new 5 4.7 240 29.6" xml:space="preserve">
<g>
	<path d="M113.9,30.7c-1.8-1.7-4.1-2.7-6.6-2.6l4.8-5.1C115.6,23.7,113.5,28.7,113.9,30.7 M137.6,31.1l-4.1-2.3
		c-0.3-3.9,0-9.4,0.1-13.1l4.2,2.4L137.6,31.1z M115.7,18.1c-1.4,1.7-2.7,2.9-4.4,4.5c-0.8,0-1.2-0.9-2-1.4l0.2-6
		C111.5,16.3,113.3,17.8,115.7,18.1z M125.1,14.2l-0.2-4.7c-2.1,1.7-4.1,4.4-6.3,6c-2.6-0.3-4.8-1.7-6.9-3c-1.8,1.7-3.8,3-6,4.1
		c0.2,2.3-0.3,4.1-0.2,6.3l3.2,2.6c-1.7,2.3-5,4.1-4.7,6.9c0,0.8,0,1.8,0.8,1.8c-0.5-0.9-0.8-2.9,0.9-3.3c2.4-0.6,4.2,0.9,6,2.3
		c2-1.5,3.9-3,6-4.1l0.1-6.6l-3-2.3c1.7-1.5,3-2.9,4.7-4.5c0.5,0,1.2-0.3,1.5,0.2l-0.2,12.2l-0.8,1.8c1.5,1.1,3.3,2.7,5,3.5l3.9-3.5
		c2,1.2,4.1,2.6,6.2,3.8c2.1-2,4.1-3.5,6.5-4.5c-0.3-3.6-0.3-9.4,0-12.8c-1.8-1.2-3.8-2.3-5.7-3.2c-2,1.8-4.1,3.2-6.3,4.2l-0.1,11.3
		c-0.9,0.5-1.1,1.7-2.3,2c-1.1-0.2-2-1.1-2.6-2c0.2-4.2,0-9.4,0.5-13.4c1.1,0.2,2.7,0.2,3.9,0c0-0.3,0.2-0.8-0.1-0.9L125.1,14.2z
		 M79.3,19.3l-0.2,10c1.2,1.7,2.6,0.2,3.9-0.3l0.2-7.2C82.2,20.7,80.8,19.8,79.3,19.3z M186.7,21.7c1.2,2.3,1.5,5.6,0,7.9
		c-1.5,1.5-3.8,2.1-6,2l-0.3-13.1C182.9,17.4,185.5,19.5,186.7,21.7z M173.9,26.1c-0.3,0.8-0.3,1.7-1.1,2.1c-2.7-2.6-3.5-6.5-3-9.8
		c0.3-2.1,1.7-4.8,3.9-6.2L173.9,26.1z M185.6,13c-1.4,1.8-3.6,3.3-5.1,4.7l-0.2-7.2C182.3,11,184.1,11.9,185.6,13z M179.6,31.4
		c-2.4-0.1-4.5-1.4-6.3-2.7c2-1.1,3.6-2.6,4.2-4.7c0-4.8,0-9.1,0-14.2c0.5-0.8,1.5,0,2.1,0.1L179.6,31.4L179.6,31.4z M181.3,6.2
		c-4.5,3.8-9.5,6.2-13.9,10.3c-2.1,3.3-2.1,6.9-0.6,10.6c2.1,4.8,7.4,7.4,12.7,7.2c2.9-0.9,5.6-2.3,8-4.5c1.4-1.8,4.7-3.5,3.8-6.6
		c0.2-3.8-3.2-6.8-6.3-8c1.8-2,4.7-4.4,6.5-6.2l-0.5-0.5l-1.7,1.5C186.6,8.9,183.8,7.9,181.3,6.2z M226,18.4l-0.2,12.7
		c-1.5,0.1-2.7-1.5-4.2-2.1V18.1c0.5-0.6,1.2-1.2,2-1.5C224.6,16.6,225.5,17.7,226,18.4z M218.7,8.8c-0.9-0.2-1.7-1.2-2.7-0.9
		c0.9,0.8,1.5,2,1.7,3v17.4l-0.6,2.1l6.3,3.8c1.8-2.1,4.4-3.5,6.5-4.8c-0.3-3.3-0.1-8.5,0-11.8c-0.6-1.7-2.3-3.5-3.9-3.8l-4.4,3.5
		c-0.5-0.9,0.2-2.3,0-3.5c0.2-2.3-1.1-6.2,2-7.2C221.7,6.2,219.9,7.2,218.7,8.8z M210,31.6c-1.7-0.6-2.9-1.7-4.4-2.4
		c0-4.1-0.2-9.2,0.2-12.8l4.2,2.3L210,31.6L210,31.6z M195.6,8.6c-0.9-0.2-1.7-1.1-2.4-1.1c0.2,0.6,0.8,1.2,0.9,2l0.2,19.8l-0.9,1.8
		c1.4,1.1,2.7,2.1,4.2,3l3.8-3.3c2.1,0.8,4.1,2.4,6.3,3.5c1.8-1.8,3.9-3.6,6.3-4.5c-0.3-3.9-0.3-9.1,0-13l-5.9-3.2
		c-2,2.1-4.2,3.5-6.6,4.5l0.3,11.9c-0.8,0.5-1.5,1.1-2.3,1.2c-2.4-0.3-1.7-2.7-1.8-3.9c0.2-5.6,0.2-10.3,0.2-15.7
		c0.1-2.1-0.3-3.8,1.7-5.1C198.2,6.5,196.5,7.2,195.6,8.6z M240.9,20.2l-4.1,2.9c0.1-2.6,0-4.5,0.1-6.8
		C238.4,17.2,240,18.9,240.9,20.2z M244.7,18.4l-5.1-5c-2.3,1.5-4.2,3.5-6.6,4.5l0.1,2.3c-0.3,2.9,0.5,7.1-0.6,9.8
		c2,1.7,4.4,2.9,6.6,4.1c2-2,4.2-3.6,5.9-5.6c-0.2-0.2,0-0.5-0.3-0.3l-3.2,2.4c-1.7,0.5-3.2-0.9-4.5-2l-0.1-4.5L244.7,18.4z
		 M51.7,19.5l-4.2,3.2l0.3-6.9C49,16.8,50.5,18.3,51.7,19.5z M12.3,26.7l-0.5,0.6C9,24,8.1,18.7,9.7,15.1l3-2.3
		C13,18,13.2,21.7,12.3,26.7z M19.1,30.5c-1.5,0-3.5-0.8-5-1.5c-0.5-0.6-1.2-0.6-1.8-1.2c6.9-4.1,3.3-11,4.5-17.2l2.1,0.3L19.1,30.5
		z M29.4,7.1L28,5.6c-0.5,6.8-0.5,15-0.5,22.8l-0.3,0.5c-2.3,1.4-5.1,2.7-7.6,1.7c0.3-6.6-0.2-12.4,0.2-19.5c1.4,0.2,3,0.2,4.4-0.2
		l3-5.3l-0.3-0.2c-0.5-0.2-0.5,0.8-0.8,1.1c-2.1,2.3-5.9,0.8-8.5,0.8C13.8,7.1,9,5.1,6.4,9.4c-0.3,1.4-0.6,3.3,0.9,4.4
		c-0.2-0.8-0.9-1.2-0.6-2.1c0.2-0.8,0.8-1.7,1.5-1.5c2.3-0.3,5.6,0,7.7,0.6c-3.2,1.8-6.6,3.5-9.5,5.9c-1.8,3.3-1.8,6.5-0.3,10
		c2.4,5,7.9,7.2,13.4,7.1l6.9-3.6l3.3,2.7c1.4,1.1,2.6-1.4,3.5-2.1l-1.8-1.8l0.1-11.3c0.9-0.9,1.8-1.8,3-1.8
		c0.8,0.2,1.5,0.9,1.5,1.7v13.3l0.9,1.7c2.6,2.9,4.4-2,6.8-2.1l5.4,3.5c2-1.8,4.4-3.8,6-5.4c-1.1-0.3-1.7,1.2-2.6,1.8
		c-1.2,0.6-2,0.5-3-0.3c-3.2-0.6-2.3-3.8-2.3-6l7.9-5.6c-1.7-1.8-3.5-3.5-5.3-5c-2,1.7-4.1,3.3-6.3,4.4v11.6l-0.5,0.5
		c-0.9,0.9-2.3,1.8-3.2,0.3c-0.2-3.6-0.3-9.5,0-13l-0.3-1.2c-0.8-1.2-2-2.6-3.5-2.7c-1.7,1.1-3.2,2.6-4.7,3.5
		c0.3-3.9-1.2-9.1,1.7-11.8C31.5,4.7,30.1,5.6,29.4,7.1z M98.5,30.7l-4.1-2.3c-0.3-4.2-0.2-9.4,0.2-13.1l4.2,2.3L98.5,30.7z
		 M97.2,12.5c-2.1,2-4.8,3.3-6.8,4.7c0.2,3.6,0.2,7.2-0.2,11l-0.6,1.1c2,1.4,4.2,2.7,6.3,3.9c2.3-1.8,4.4-3.3,6.8-4.5
		c-0.2-3.9-0.3-9.4,0.3-13L97.2,12.5z M147.3,13.6c-0.9-0.6-1.8,1.1-2.9,1.5c-0.9,0.9,0.8,1.5,1.1,2.4l-0.3,11.3
		c-0.2,0.8-0.8,1.4-0.9,1.8l3.8,3l2.6-2.3c0-0.9-1.5-1.4-1.8-2.3l0.5-11.5c0.8-0.5,1.5-1.5,2.7-1.5c0.8,0.2,1.7,1.1,1.8,1.8
		c0.2,3.6,0,8.6-0.3,12.7c0.5,1.5,1.7,2.6,2.9,3.2c1.7-1.1,3.3-2.6,4.5-3.8c-0.3-0.1-0.8,0.3-1.1,0.6c-0.6,1.1-1.7,0.5-2.3-0.2
		c-0.6-3.6,0.1-8.8,0-12.4c0.5-1.2-0.5-2.4-1.4-3.3c-2.3-3.6-4.5,1.5-6.8,2.1C148.8,15.9,148.4,14.5,147.3,13.6z M79.8,7.9
		c-5.3,2.4-2.4,9.5-3.6,13.3c-0.9,2.1-3.3,3.8-5.1,4.8c2.7,0.3,5,1.5,7.2,2.7l0.6-16.2c0-0.3,0.5-0.5,0.6-0.2c0,2.1,0,5,0,6.5
		c1.5-0.8,3-1.7,4.2-3C83.9,12.7,81.3,10.4,79.8,7.9z M64.4,7.2c-1.2,1.8-1.1,3.6,0,5.4h0.2c0-0.3-0.2-0.5-0.2-0.6
		c-0.6-0.9-0.2-2.1,0.3-2.9c2.4-1.1,5.3-0.3,7.4,0.2c-2.7,1.8-5.3,4.5-4.8,8h-2.9c-0.8,0.5-1.8,0.9-2,2c-0.2,0.8-0.3,1.8,0.5,2.3
		c-0.3-0.8-0.2-1.4,0.2-2.1c0.6-0.5,1.5-0.3,2.3-0.5c1.7,0.3,2.6,1.5,2,3c0.2,1.5-1.1,2.7-2,3.5l1.8-0.6c5.1-2,2.7-7.6,3.6-11.9
		c0.5-3.2,3.6-5.4,6.2-6.5C72.4,6.6,68.3,3.9,64.4,7.2z M87.6,13.6c-1.1,1.5-2.9,2.1-4.2,3.5c1.4,1.2,3,2,4.4,3
		c-0.8,2.6-0.5,5.7-0.6,8.2c-3.2,1.1-6.6,2-8.9,4.7c-4.2-2.1-9.1-5.6-13.7-2.9c-1.1,0.9-1.2,3-0.5,4.2c-0.8,0.3-0.9-1.2-1.1-1.8
		c-0.5-1.5,0.8-2.9,1.5-4.2c2.3-3.3,7.6-0.8,8.2-5.7c0.3-3.2-0.5-6.9,0.8-10c2.4-3.6,6-5,9.4-7.5C84.5,7.7,86.7,10.4,87.6,13.6z"/>
</g>
</svg>
