<?xml version="1.0" encoding="utf-8"?>
<!-- Generator: Adobe Illustrator 21.1.0, SVG Export Plug-In . SVG Version: 6.00 Build 0)  -->
<svg version="1.1" id="Layer_1" xmlns="http://www.w3.org/2000/svg" xmlns:xlink="http://www.w3.org/1999/xlink" x="0px" y="0px"
	 viewBox="0 0 334.1 90.4" style="enable-background:new 0 0 334.1 90.4;" xml:space="preserve">
<style type="text/css">
	.st0{fill:#93C13D;}
	.st1{fill:#231F20;}
	.st2{fill:#95C847;}
</style>
<g>
	<g id="XMLID_6_">
		<path id="XMLID_8_" class="st0" d="M64.5,45.5c0,9.8-6.8,17.5-17.1,17.5c-10.3,0-17.1-7.8-17.1-17.5c0-9.8,6.8-17.5,17.1-17.5
			C57.6,28,64.5,35.8,64.5,45.5 M40.4,45.5c0,4.5,2.5,8.2,7,8.2c4.5,0,7-3.7,7-8.2c0-4.5-2.5-8.2-7-8.2
			C42.9,37.3,40.4,41.1,40.4,45.5"/>
		<path id="XMLID_7_" class="st0" d="M47.4,72.6c-15.9,0-28.8-12.3-28.8-27.4c0-15.1,12.9-27.4,28.8-27.4c6.3,0,12.1,1.9,16.8,5.2
			v-20C59,1,53.3,0,47.4,0C21.2,0,0,20.2,0,45.2c0,25,21.2,45.2,47.4,45.2c5.9,0,11.6-1,16.8-2.9v-20C59.5,70.7,53.7,72.6,47.4,72.6
			"/>
	</g>
	<g>
		<path class="st1" d="M95.6,63.9L82.2,29.7c-0.3-0.8-0.4-1.5-0.4-2.3c0-1.3,0.5-2.3,1.4-3.1c0.9-0.8,2.1-1.3,3.3-1.3
			c1.8,0,3.2,1,4.2,3l9.5,25.5l9.5-25.5c0.9-2,2.3-3,4.2-3c1.3,0,2.4,0.4,3.3,1.3c0.9,0.8,1.4,1.9,1.4,3.1c0,0.8-0.2,1.5-0.5,2.3
			l-13.4,34.2c-0.5,1.1-1,2-1.7,2.6c-0.7,0.6-1.6,0.9-2.9,0.9c-1.2,0-2.2-0.3-2.8-0.9C96.7,65.9,96.1,65.1,95.6,63.9z"/>
		<path class="st1" d="M121.1,62.7V28.2c0-1.5,0.4-2.7,1.2-3.5c0.8-0.8,2-1.3,3.5-1.3h10.8c4.9,0,8.7,1.1,11.3,3.4
			c2.6,2.3,4,5.8,4,10.5c0,1.7-0.3,3.2-0.9,4.5c-0.6,1.3-1.4,2.5-2.4,3.5c-1,1-2.2,1.8-3.6,2.3c-1.3,0.6-2.8,1-4.5,1.3L151,60
			c0.8,0.9,1.2,1.8,1.2,2.7c0,1.2-0.4,2.3-1.3,3.3c-0.9,0.9-2,1.4-3.3,1.4c-1.5,0-2.7-0.5-3.6-1.6l-13.6-16.5h-0.1v13.3
			c0,1.5-0.4,2.7-1.3,3.5c-0.8,0.8-2,1.2-3.3,1.2c-1.3,0-2.4-0.4-3.3-1.3C121.5,65.3,121.1,64.1,121.1,62.7z M130.3,31.8v10.9h6.3
			c1.7,0,3.1-0.5,4.1-1.5c1.1-1,1.6-2.3,1.6-4c0-1.7-0.5-3.1-1.6-4c-1-0.9-2.4-1.4-4.2-1.4H130.3z"/>
		<path class="st1" d="M162.6,62.7V31.8h-6.7c-1.4,0-2.4-0.4-3.1-1.2c-0.7-0.8-1.1-1.8-1.1-3c0-0.7,0.2-1.4,0.5-2.1
			c0.3-0.7,0.8-1.2,1.5-1.6c0.6-0.4,1.4-0.6,2.2-0.6h22.6c0.8,0,1.5,0.2,2.2,0.6c0.6,0.4,1.1,0.9,1.5,1.6c0.3,0.7,0.5,1.4,0.5,2.1
			c0,1.2-0.3,2.2-1,3c-0.7,0.8-1.8,1.2-3.1,1.2h-6.7v30.8c0,1.5-0.4,2.7-1.3,3.5c-0.8,0.8-2,1.2-3.3,1.2c-1.4,0-2.5-0.4-3.3-1.2
			C163,65.4,162.6,64.2,162.6,62.7z"/>
		<path class="st1" d="M184.4,49.7V27.8c0-1.5,0.4-2.7,1.3-3.5c0.9-0.8,2-1.3,3.3-1.3c1.4,0,2.5,0.4,3.3,1.2c0.8,0.8,1.3,2,1.3,3.5
			v21.4c0,1.9,0.4,3.6,1.1,5.1c0.8,1.5,1.9,2.7,3.3,3.6c1.4,0.9,3.1,1.4,5,1.4c2.7,0,5-1,6.8-3c1.8-2,2.7-4.4,2.7-7.1V27.8
			c0-1.5,0.4-2.7,1.3-3.5c0.9-0.8,2-1.3,3.3-1.3c1.4,0,2.5,0.4,3.3,1.2c0.8,0.8,1.3,2,1.3,3.5v21.9c0,2.5-0.5,4.9-1.4,7.1
			c-1,2.2-2.3,4.1-4,5.8c-1.7,1.7-3.7,2.9-6,3.9c-2.3,0.9-4.7,1.4-7.2,1.4c-3.4,0-6.5-0.8-9.4-2.4c-2.9-1.6-5.1-3.7-6.8-6.5
			C185.2,56.2,184.4,53.1,184.4,49.7z"/>
		<path class="st1" d="M225.1,45.2c0-3.2,0.5-6.1,1.5-8.9c1-2.8,2.5-5.2,4.4-7.2c1.9-2.1,4.1-3.7,6.7-4.8c2.6-1.1,5.4-1.7,8.5-1.7
			c1.3,0,2.7,0.1,4.2,0.4c1.6,0.2,3,0.6,4.3,1.1s2.4,1.2,3.3,2.1c0.9,0.9,1.3,2,1.3,3.3c0,1.1-0.4,2.1-1.1,2.9
			c-0.7,0.8-1.6,1.2-2.7,1.2c-0.7,0-1.6-0.2-2.8-0.7c-1.2-0.5-2.2-0.8-3.1-1.1c-0.9-0.3-2.1-0.4-3.6-0.4c-1.9,0-3.5,0.4-5,1.1
			c-1.4,0.7-2.6,1.7-3.6,3c-1,1.3-1.7,2.7-2.2,4.4c-0.5,1.7-0.8,3.5-0.8,5.4c0,3.9,1,7.1,3.1,9.7c2,2.6,4.9,3.9,8.5,3.9
			c1.5,0,2.7-0.2,3.6-0.5c0.9-0.3,2-0.7,3.2-1.3c1.3-0.6,2.2-0.8,2.9-0.8c1.3,0,2.2,0.5,3,1.4c0.7,1,1.1,1.9,1.1,2.7
			c0,1.8-0.8,3.2-2.3,4.3c-1.5,1.1-3.4,1.8-5.5,2.3c-2.1,0.4-4.1,0.7-6,0.7c-4.1,0-7.7-1-10.9-3c-3.2-2-5.7-4.7-7.5-8.2
			C226,53.2,225.1,49.4,225.1,45.2z"/>
		<path class="st1" d="M262.1,61.1l12.4-33.4c0.6-1.5,1.4-2.8,2.6-3.7c1.1-0.9,2.5-1.4,4-1.4c1.6,0,2.9,0.5,4.1,1.4
			c1.1,0.9,2,2.2,2.5,3.7l12.1,33.4c0.3,0.9,0.5,1.6,0.5,2.3c0,0.8-0.2,1.5-0.6,2.1c-0.4,0.6-0.9,1.1-1.5,1.4
			c-0.6,0.3-1.3,0.5-2.1,0.5c-2.3,0-3.8-1.1-4.5-3.2l-1.8-5.8h-17.1l-1.9,5.7c-0.7,2.2-2.1,3.2-4.4,3.2c-1.3,0-2.3-0.4-3.2-1.2
			c-0.9-0.8-1.3-1.8-1.3-3C261.7,62.6,261.8,61.9,262.1,61.1z M280.9,32.2L275.1,50h11.7l-5.7-17.8H280.9z"/>
		<path class="st1" d="M303,62.7V28.2c0-1.5,0.4-2.7,1.2-3.5c0.8-0.8,2-1.3,3.5-1.3h10.8c4.9,0,8.7,1.1,11.3,3.4
			c2.6,2.3,4,5.8,4,10.5c0,1.7-0.3,3.2-0.9,4.5c-0.6,1.3-1.4,2.5-2.4,3.5c-1,1-2.2,1.8-3.6,2.3c-1.3,0.6-2.8,1-4.5,1.3L332.9,60
			c0.8,0.9,1.2,1.8,1.2,2.7c0,1.2-0.4,2.3-1.3,3.3c-0.9,0.9-2,1.4-3.3,1.4c-1.5,0-2.7-0.5-3.6-1.6l-13.6-16.5h-0.1v13.3
			c0,1.5-0.4,2.7-1.3,3.5c-0.8,0.8-2,1.2-3.3,1.2c-1.3,0-2.4-0.4-3.3-1.3C303.4,65.3,303,64.1,303,62.7z M312.2,31.8v10.9h6.3
			c1.7,0,3.1-0.5,4.1-1.5c1.1-1,1.6-2.3,1.6-4c0-1.7-0.5-3.1-1.6-4c-1-0.9-2.4-1.4-4.2-1.4H312.2z"/>
	</g>
	<path class="st2" d="M255,41.9c0.1,0.2,0.3,0.2,0.5,0.1l0.7-0.3l-0.5,2.6c-0.1,0.5,0.2,0.5,0.4,0.3l1.2-1.3l0.2,0.7
		c0,0.1,0.1,0.2,0.3,0.2l1.5-0.3l-0.4,1.4c-0.1,0.3-0.2,0.4,0.1,0.5l0.5,0.3l-2.6,2c-0.1,0.1-0.2,0.2-0.1,0.3l0.2,0.7
		c-0.9-0.1-1.7-0.3-2.5-0.4c-0.1,0-0.2,0.1-0.2,0.2l0,2.3l-0.4,0l0.2-2.3c0-0.1-0.1-0.2-0.2-0.2c-0.9,0.1-1.7,0.2-2.6,0.3l0.2-0.7
		c0-0.1,0-0.3-0.1-0.3l-2.5-2.1l0.5-0.2c0.2-0.1,0.2-0.2,0.1-0.5l-0.4-1.4l1.5,0.3c0.1,0,0.2-0.1,0.3-0.1l0.2-0.7l1.2,1.3
		c0.2,0.2,0.5,0.2,0.4-0.3l-0.5-2.7l0.7,0.4c0.2,0.1,0.4,0.1,0.5-0.1l1-1.7L255,41.9z"/>
</g>
</svg>
