<?xml version="1.0" encoding="UTF-8"?>
<svg width="504px" height="121px" viewBox="0 0 504 121" version="1.1" xmlns="http://www.w3.org/2000/svg" xmlns:xlink="http://www.w3.org/1999/xlink">
    <!-- Generator: Sketch 52.5 (67469) - http://www.bohemiancoding.com/sketch -->
    <title>Agencies/Partners/USA/VTA-SanJose/color</title>
    <desc>Created with Sketch.</desc>
    <g id="Agencies/Partners/USA/VTA-SanJose/color" stroke="none" stroke-width="1" fill="none" fill-rule="evenodd">
        <path d="M250.1346,48.5426 L242.7286,48.5426 L242.7286,45.1266 L261.2986,45.1266 L261.2986,48.5426 L253.9886,48.5426 L253.9886,71.3846 L250.1346,71.3846 L250.1346,48.5426 Z M263.45,51.2828 L267.11,51.2828 L267.11,54.7808 C267.11,55.6148 267.032,56.2888 267.032,56.2888 L267.11,56.2888 C268.004,53.3488 270.304,51.0448 273.34,51.0448 C273.846,51.0448 274.314,51.1228 274.314,51.1228 L274.314,54.9368 C274.314,54.9368 273.808,54.8188 273.224,54.8188 C270.81,54.8188 268.59,56.5668 267.694,59.5468 C267.342,60.6988 267.228,61.9308 267.228,63.1608 L267.228,71.3848 L263.45,71.3848 L263.45,51.2828 Z M283.9402,68.7622 C287.1342,68.7622 289.1982,65.3462 289.1982,62.3682 L289.1982,61.7302 L288.2242,61.7302 C285.3822,61.7302 280.2422,61.9302 280.2422,65.5442 C280.2422,67.1742 281.4862,68.7622 283.9402,68.7622 Z M288.3022,58.8322 L289.1582,58.8322 L289.1582,58.4722 C289.1582,55.1762 287.3282,54.0642 284.8362,54.0642 C281.8002,54.0642 279.3462,56.0102 279.3462,56.0102 L277.7902,53.1902 C277.7902,53.1902 280.6322,50.8062 285.1482,50.8062 C290.1322,50.8062 292.9362,53.5882 292.9362,58.6722 L292.9362,71.3862 L289.4302,71.3862 L289.4302,69.4762 C289.4302,68.5622 289.5102,67.8882 289.5102,67.8882 L289.4302,67.8882 C289.4302,67.8882 287.8342,71.8622 283.1242,71.8622 C279.7342,71.8622 276.4262,69.7562 276.4262,65.7422 C276.4262,59.1082 284.9922,58.8322 288.3022,58.8322 Z M298.2996,51.2828 L301.9596,51.2828 L301.9596,53.9448 C301.9596,54.7408 301.8816,55.4148 301.8816,55.4148 L301.9596,55.4148 C302.7396,53.6648 305.0756,50.8068 309.3576,50.8068 C313.9916,50.8068 316.1336,53.3888 316.1336,58.5128 L316.1336,71.3848 L312.3556,71.3848 L312.3556,59.3868 C312.3556,56.5668 311.7716,54.3428 308.6176,54.3428 C305.6196,54.3428 303.2056,56.3668 302.3896,59.2688 C302.1556,60.0628 302.0776,60.9768 302.0776,61.9688 L302.0776,71.3848 L298.2996,71.3848 L298.2996,51.2828 Z M321.9832,66.1802 C321.9832,66.1802 324.2012,68.5242 327.6292,68.5242 C329.2652,68.5242 330.8992,67.6482 330.8992,66.0222 C330.8992,62.3262 320.7752,63.0822 320.7752,56.5262 C320.7752,52.8722 323.9692,50.8062 327.9012,50.8062 C332.2232,50.8062 334.2472,53.0302 334.2472,53.0302 L332.7292,55.9302 C332.7292,55.9302 330.9772,54.1422 327.8612,54.1422 C326.2272,54.1422 324.6292,54.8582 324.6292,56.6062 C324.6292,60.2222 334.7552,59.4282 334.7552,66.0222 C334.7552,69.3582 331.9512,71.8622 327.6292,71.8622 C322.7992,71.8622 320.1532,68.9202 320.1532,68.9202 L321.9832,66.1802 Z M348.6414,68.563 C351.7574,68.563 354.3274,65.941 354.3274,61.373 C354.3274,57.003 352.0294,54.183 348.7594,54.183 C345.7994,54.183 343.0734,56.289 343.0734,61.415 C343.0734,64.989 345.0194,68.563 348.6414,68.563 Z M339.4134,51.283 L342.8774,51.283 L342.8774,52.991 C342.8774,53.787 342.8014,54.461 342.8014,54.461 L342.8774,54.461 C342.8774,54.461 344.5534,50.807 349.4994,50.807 C354.7934,50.807 358.1434,55.097 358.1434,61.335 C358.1434,67.729 354.3634,71.861 349.2254,71.861 C344.9034,71.861 343.1894,68.563 343.1894,68.563 L343.1114,68.563 C343.1114,68.563 343.1894,69.279 343.1894,70.313 L343.1894,77.353 L339.4134,77.353 L339.4134,51.283 Z M371.6844,68.524 C375.4224,68.524 378.4604,65.506 378.4604,61.294 C378.4604,57.122 375.4224,54.144 371.6844,54.144 C367.9844,54.144 364.9084,57.122 364.9084,61.294 C364.9084,65.506 367.9844,68.524 371.6844,68.524 Z M371.6844,50.808 C377.5624,50.808 382.3124,55.216 382.3124,61.294 C382.3124,67.412 377.5624,71.862 371.6844,71.862 C365.8064,71.862 361.0544,67.412 361.0544,61.294 C361.0544,55.216 365.8064,50.808 371.6844,50.808 Z M385.9812,51.2828 L389.6412,51.2828 L389.6412,54.7808 C389.6412,55.6148 389.5632,56.2888 389.5632,56.2888 L389.6412,56.2888 C390.5352,53.3488 392.8352,51.0448 395.8712,51.0448 C396.3772,51.0448 396.8452,51.1228 396.8452,51.1228 L396.8452,54.9368 C396.8452,54.9368 396.3392,54.8188 395.7552,54.8188 C393.3412,54.8188 391.1212,56.5668 390.2252,59.5468 C389.8732,60.6988 389.7592,61.9308 389.7592,63.1608 L389.7592,71.3848 L385.9812,71.3848 L385.9812,51.2828 Z M402.9284,54.6598 L400.3584,54.6598 L400.3584,51.5618 L403.0464,51.5618 L403.0464,45.7598 L406.7064,45.7598 L406.7064,51.5618 L411.4564,51.5618 L411.4564,54.6598 L406.7064,54.6598 L406.7064,63.5978 C406.7064,67.6098 409.4704,68.1278 410.9104,68.1278 C411.4564,68.1278 411.8064,68.0478 411.8064,68.0478 L411.8064,71.4638 C411.8064,71.4638 411.2604,71.5438 410.4824,71.5438 C407.9524,71.5438 402.9284,70.7478 402.9284,64.0358 L402.9284,54.6598 Z M422.8504,68.7622 C426.0444,68.7622 428.1084,65.3462 428.1084,62.3682 L428.1084,61.7302 L427.1344,61.7302 C424.2924,61.7302 419.1524,61.9302 419.1524,65.5442 C419.1524,67.1742 420.3964,68.7622 422.8504,68.7622 Z M427.2124,58.8322 L428.0684,58.8322 L428.0684,58.4722 C428.0684,55.1762 426.2364,54.0642 423.7464,54.0642 C420.7104,54.0642 418.2564,56.0102 418.2564,56.0102 L416.7004,53.1902 C416.7004,53.1902 419.5424,50.8062 424.0584,50.8062 C429.0424,50.8062 431.8444,53.5882 431.8444,58.6722 L431.8444,71.3862 L428.3404,71.3862 L428.3404,69.4762 C428.3404,68.5622 428.4184,67.8882 428.4184,67.8882 L428.3404,67.8882 C428.3404,67.8882 426.7444,71.8622 422.0344,71.8622 C418.6444,71.8622 415.3364,69.7562 415.3364,65.7422 C415.3364,59.1082 423.9024,58.8322 427.2124,58.8322 Z M437.911,54.6598 L435.341,54.6598 L435.341,51.5618 L438.029,51.5618 L438.029,45.7598 L441.689,45.7598 L441.689,51.5618 L446.441,51.5618 L446.441,54.6598 L441.689,54.6598 L441.689,63.5978 C441.689,67.6098 444.453,68.1278 445.893,68.1278 C446.441,68.1278 446.789,68.0478 446.789,68.0478 L446.789,71.4638 C446.789,71.4638 446.245,71.5438 445.465,71.5438 C442.935,71.5438 437.911,70.7478 437.911,64.0358 L437.911,54.6598 Z M451.782,71.3842 L451.782,51.2822 L455.56,51.2822 L455.56,71.3842 L451.782,71.3842 Z M451.742,47.2702 L451.742,43.3382 L455.558,43.3382 L455.558,47.2702 L451.742,47.2702 Z M470.6374,68.524 C474.3754,68.524 477.4134,65.506 477.4134,61.294 C477.4134,57.122 474.3754,54.144 470.6374,54.144 C466.9374,54.144 463.8614,57.122 463.8614,61.294 C463.8614,65.506 466.9374,68.524 470.6374,68.524 Z M470.6374,50.808 C476.5174,50.808 481.2674,55.216 481.2674,61.294 C481.2674,67.412 476.5174,71.862 470.6374,71.862 C464.7594,71.862 460.0074,67.412 460.0074,61.294 C460.0074,55.216 464.7594,50.808 470.6374,50.808 Z M485.1844,51.2828 L488.8464,51.2828 L488.8464,53.9448 C488.8464,54.7408 488.7664,55.4148 488.7664,55.4148 L488.8464,55.4148 C489.6244,53.6648 491.9604,50.8068 496.2424,50.8068 C500.8784,50.8068 503.0184,53.3888 503.0184,58.5128 L503.0184,71.3848 L499.2424,71.3848 L499.2424,59.3868 C499.2424,56.5668 498.6564,54.3428 495.5044,54.3428 C492.5064,54.3428 490.0904,56.3668 489.2744,59.2688 C489.0404,60.0628 488.9624,60.9768 488.9624,61.9688 L488.9624,71.3848 L485.1844,71.3848 L485.1844,51.2828 Z M283.6434,90.4868 C283.6434,90.4868 282.6494,92.4188 282.1734,93.7768 L279.3914,101.1528 L287.8934,101.1528 L285.1014,93.5408 C284.6234,92.1828 283.7234,90.4868 283.7234,90.4868 L283.6434,90.4868 Z M288.9274,104.2468 L278.3594,104.2468 L275.5794,111.9028 L271.5254,111.9028 L281.7294,84.7608 L285.7034,84.7988 L295.8394,111.9028 L291.7474,111.9028 L288.9274,104.2468 Z M299.3992,91.7856 L303.2532,91.7856 L303.2532,103.7836 C303.2532,106.5656 303.8092,108.7896 307.0252,108.7896 C311.1172,108.7896 313.5412,105.1736 313.5412,101.2016 L313.5412,91.7856 L317.3952,91.7856 L317.3952,111.8876 L313.6612,111.8876 L313.6612,109.2276 C313.6612,108.3916 313.7412,107.7556 313.7412,107.7556 L313.6612,107.7556 C312.8272,109.7436 310.2032,112.3656 306.2732,112.3656 C301.7432,112.3656 299.3992,109.9816 299.3992,104.6576 L299.3992,91.7856 Z M324.5614,95.1626 L321.9394,95.1626 L321.9394,92.0626 L324.6834,92.0626 L324.6834,86.2646 L328.4154,86.2646 L328.4154,92.0626 L333.2634,92.0626 L333.2634,95.1626 L328.4154,95.1626 L328.4154,104.1026 C328.4154,108.1146 331.2374,108.6286 332.7054,108.6286 C333.2634,108.6286 333.6194,108.5506 333.6194,108.5506 L333.6194,111.9666 C333.6194,111.9666 333.0634,112.0466 332.2694,112.0466 C329.6874,112.0466 324.5614,111.2526 324.5614,104.5366 L324.5614,95.1626 Z M338.45,86.2642 L342.306,86.2642 L342.306,94.1302 C342.306,95.0822 342.226,95.8002 342.226,95.8002 L342.306,95.8002 C343.178,93.8522 345.72,91.3082 349.734,91.3082 C354.462,91.3082 356.646,93.8902 356.646,99.0162 L356.646,111.8882 L352.792,111.8882 L352.792,99.8902 C352.792,97.0702 352.196,94.8462 348.978,94.8462 C345.96,94.8462 343.456,96.9102 342.622,99.8102 C342.384,100.6062 342.306,101.5182 342.306,102.4722 L342.306,111.8882 L338.45,111.8882 L338.45,86.2642 Z M370.987,109.0278 C374.801,109.0278 377.899,106.0078 377.899,101.7978 C377.899,97.6258 374.801,94.6478 370.987,94.6478 C367.213,94.6478 364.075,97.6258 364.075,101.7978 C364.075,106.0078 367.213,109.0278 370.987,109.0278 Z M370.987,91.3098 C376.987,91.3098 381.833,95.7198 381.833,101.7978 C381.833,107.9138 376.987,112.3658 370.987,112.3658 C364.987,112.3658 360.141,107.9138 360.141,101.7978 C360.141,95.7198 364.987,91.3098 370.987,91.3098 Z M385.6062,91.7856 L389.3422,91.7856 L389.3422,95.2816 C389.3422,96.1176 389.2622,96.7916 389.2622,96.7916 L389.3422,96.7916 C390.2542,93.8516 392.6002,91.5476 395.6982,91.5476 C396.2142,91.5476 396.6902,91.6276 396.6902,91.6276 L396.6902,95.4396 C396.6902,95.4396 396.1742,95.3216 395.5782,95.3216 C393.1162,95.3216 390.8502,97.0716 389.9382,100.0496 C389.5782,101.2016 389.4622,102.4316 389.4622,103.6636 L389.4622,111.8876 L385.6062,111.8876 L385.6062,91.7856 Z M412.0242,95.1626 L409.4022,95.1626 L409.4022,92.0626 L412.1462,92.0626 L412.1462,86.2646 L415.8802,86.2646 L415.8802,92.0626 L420.7262,92.0626 L420.7262,95.1626 L415.8802,95.1626 L415.8802,104.1026 C415.8802,108.1146 418.7002,108.6286 420.1682,108.6286 C420.7262,108.6286 421.0822,108.5506 421.0822,108.5506 L421.0822,111.9666 C421.0822,111.9666 420.5262,112.0466 419.7322,112.0466 C417.1502,112.0466 412.0242,111.2526 412.0242,104.5366 L412.0242,95.1626 Z M425.4012,116.0592 C425.4012,116.0592 426.5152,116.8932 427.7472,116.8932 C429.2952,116.8932 430.6072,115.7792 431.3592,113.9532 L432.3552,111.6492 L423.9332,91.7852 L428.2632,91.7852 L433.3072,104.9352 C433.7052,105.9692 434.0612,107.3572 434.0612,107.3572 L434.1412,107.3572 C434.1412,107.3572 434.4592,106.0092 434.8172,104.9752 L439.7032,91.7852 L443.8752,91.7852 L434.4592,115.5032 C433.2272,118.6012 430.7652,120.2312 427.9432,120.2312 C425.6792,120.2312 424.0512,118.9992 424.0512,118.9992 L425.4012,116.0592 Z M400.746,111.8882 L400.746,91.7862 L404.524,91.7862 L404.524,111.8882 L400.746,111.8882 Z M400.708,87.7742 L400.708,83.8422 L404.524,83.8422 L404.524,87.7742 L400.708,87.7742 Z M218.9832,4.1352 L223.2332,4.1352 L229.5272,22.1052 C230.0432,23.6152 230.5992,25.9592 230.5992,25.9592 L230.6792,25.9592 C230.6792,25.9592 231.2352,23.6152 231.7512,22.1052 L238.1132,4.1992 L242.2832,4.1992 L232.6252,30.3272 L228.6932,30.3272 L218.9832,4.1352 Z M249.2742,27.7066 C252.5322,27.7066 254.6362,24.2906 254.6362,21.3126 L254.6362,20.6766 L253.6442,20.6766 C250.7442,20.6766 245.5002,20.8746 245.5002,24.4886 C245.5002,26.1166 246.7722,27.7066 249.2742,27.7066 Z M253.7242,17.7766 L254.5962,17.7766 L254.5962,17.4186 C254.5962,14.1226 252.7302,13.0086 250.1882,13.0086 C247.0902,13.0086 244.5882,14.9566 244.5882,14.9566 L242.9982,12.1366 C242.9982,12.1366 245.8982,9.7526 250.5062,9.7526 C255.5902,9.7526 258.4502,12.5346 258.4502,17.6186 L258.4502,30.3286 L254.8762,30.3286 L254.8762,28.4206 C254.8762,27.5086 254.9542,26.8326 254.9542,26.8326 L254.8762,26.8326 C254.8762,26.8326 253.2462,30.8046 248.4402,30.8046 C244.9842,30.8046 241.6082,28.7006 241.6082,24.6886 C241.6082,18.0546 250.3482,17.7766 253.7242,17.7766 Z M263.3192,4.2632 L267.1732,4.2632 L267.1732,24.1732 C267.1732,26.5952 268.1252,27.0312 269.3172,27.0312 C269.6752,27.0312 269.9932,26.9912 269.9932,26.9912 L269.9932,30.4072 C269.9932,30.4072 269.3972,30.4872 268.7212,30.4872 C266.5372,30.4872 263.3192,29.8912 263.3192,24.8472 L263.3192,4.2632 Z M275.1434,4.2632 L278.9974,4.2632 L278.9974,24.1732 C278.9974,26.5952 279.9494,27.0312 281.1414,27.0312 C281.4994,27.0312 281.8154,26.9912 281.8154,26.9912 L281.8154,30.4072 C281.8154,30.4072 281.2194,30.4872 280.5454,30.4872 C278.3614,30.4872 275.1434,29.8912 275.1434,24.8472 L275.1434,4.2632 Z M299.2918,17.936 C299.1698,14.48 297.0278,12.81 294.4438,12.81 C291.5038,12.81 289.1218,14.64 288.5678,17.936 L299.2918,17.936 Z M294.5238,9.754 C300.2058,9.754 303.2238,13.964 303.2238,19.166 C303.2238,19.684 303.1038,20.834 303.1038,20.834 L288.4478,20.834 C288.6478,25.244 291.7838,27.468 295.3578,27.468 C298.8158,27.468 301.3158,25.124 301.3158,25.124 L302.9078,27.944 C302.9078,27.944 299.9258,30.804 295.1198,30.804 C288.8038,30.804 284.4758,26.236 284.4758,20.28 C284.4758,13.884 288.8038,9.754 294.5238,9.754 Z M306.3464,34.4986 C306.3464,34.4986 307.4604,35.3326 308.6904,35.3326 C310.2384,35.3326 311.5524,34.2206 312.3044,32.3946 L313.2984,30.0906 L304.8784,10.2286 L309.2084,10.2286 L314.2504,23.3766 C314.6464,24.4106 315.0044,25.8006 315.0044,25.8006 L315.0864,25.8006 C315.0864,25.8006 315.4024,24.4506 315.7604,23.4166 L320.6444,10.2286 L324.8144,10.2286 L315.4024,33.9426 C314.1724,37.0406 311.7084,38.6686 308.8884,38.6686 C306.6244,38.6686 304.9964,37.4366 304.9964,37.4366 L306.3464,34.4986 Z" id="Combined-Shape" fill="#00528A"></path>
        <path d="M248.489,105.6626 C236.049,86.1946 199.353,28.7606 199.353,28.7606 C188.405,11.7986 175.905,2.9646 161.025,1.0226 C158.789,0.7306 157.433,3.4286 158.935,5.1106 C166.243,13.2946 167.719,20.7466 158.361,36.4406 L181.213,36.4406 C183.621,36.4406 185.135,39.0386 183.947,41.1346 L183.643,41.6666 C177.793,52.6646 165.167,58.3666 155.425,58.3666 L144.415,58.3666 L124.595,89.3686 C118.009,99.6786 125.417,113.1966 137.653,113.1966 L151.377,113.1966 C154.863,113.1966 158.105,111.4406 160.013,108.5246 L178.635,80.0606 C179.913,78.1066 182.781,78.1066 184.061,80.0606 L201.893,107.3186 C203.801,110.2346 207.045,111.9926 210.531,111.9926 L245.023,111.9926 C248.275,111.9926 250.241,108.4046 248.489,105.6626" id="Fill-41" fill="#38B4E5"></path>
        <path d="M102.327,58.3668 L85.447,58.3668 C83.035,58.3668 81.523,55.7668 82.711,53.6728 L90.683,39.6228 C91.801,37.6568 93.889,36.4408 96.151,36.4408 L116.337,36.4408 L128.833,16.8788 C133.223,10.0088 128.291,0.9988 120.139,0.9988 C111.825,1.0008 102.667,1.0008 96.973,1.0008 C93.489,1.0008 90.245,2.7568 88.337,5.6728 L70.507,32.9308 C69.227,34.8868 66.359,34.8868 65.079,32.9308 L47.249,5.6728 C45.341,2.7568 42.097,1.0008 38.611,1.0008 C30.185,1.0008 14.135,0.9988 4.125,0.9988 C0.869,0.9988 -1.097,4.5908 0.657,7.3348 C13.099,26.8108 49.787,84.2308 49.787,84.2308 C60.737,101.1948 73.237,110.0268 88.117,111.9708 C90.351,112.2628 91.707,109.5628 90.207,107.8828 C82.531,99.2848 81.261,91.5208 92.247,74.1448 L102.327,58.3668 Z" id="Fill-42" fill="#00528A"></path>
    </g>
</svg>